SplineFontDB: 3.0
FontName: Crimson-Roman
FullName: Crimson
FamilyName: Crimson
Weight: Roman
Copyright: Copyright (c) 2010, Sebastian Kosch (sebastian@aldusleaf.org),\nwith Reserved Font Name "Crimson".\nThis Font Software is licensed under the SIL Open Font License, Version 1.1.\nThis license is available with a FAQ at: http://scripts.sil.org/OFL
Version: 0.8
ItalicAngle: 0
UnderlinePosition: -112
UnderlineWidth: 47
Ascent: 819
Descent: 205
sfntRevision: 0x0000cccd
LayerCount: 2
Layer: 0 0 "Back"  1
Layer: 1 0 "Fore"  0
XUID: [1021 559 149143806 1270264]
FSType: 0
OS2Version: 0
OS2_WeightWidthSlopeOnly: 0
OS2_UseTypoMetrics: 1
CreationTime: 1270926789
ModificationTime: 1322161392
PfmFamily: 17
TTFWeight: 400
TTFWidth: 5
LineGap: 92
VLineGap: 0
Panose: 2 0 5 3 0 0 0 0 0 0
OS2TypoAscent: 207
OS2TypoAOffset: 1
OS2TypoDescent: -66
OS2TypoDOffset: 1
OS2TypoLinegap: 0
OS2WinAscent: 0
OS2WinAOffset: 1
OS2WinDescent: 0
OS2WinDOffset: 1
HheadAscent: 0
HheadAOffset: 1
HheadDescent: 0
HheadDOffset: 1
OS2SubXSize: 666
OS2SubYSize: 716
OS2SubXOff: 0
OS2SubYOff: 143
OS2SupXSize: 666
OS2SupYSize: 716
OS2SupXOff: 0
OS2SupYOff: 490
OS2StrikeYSize: 50
OS2StrikeYPos: 264
OS2FamilyClass: 258
OS2Vendor: 'PfEd'
OS2CodePages: 20000001.00000000
OS2UnicodeRanges: 80000043.40000062.00000000.00000000
Lookup: 1 0 0 "'c2sc' Capitals to Small Capitals in Latin lookup 0"  {"'c2sc' Capitals to Small Capitals in Latin lookup 0 subtable"  } ['c2sc' ('DFLT' <'dflt' > 'latn' <'dflt' > ) ]
Lookup: 1 0 0 "'pnum' Proportional Numbers lookup 12"  {"'pnum' Proportional Numbers lookup 12-1" ("prop" ) } ['pnum' ('DFLT' <'dflt' > 'grek' <'dflt' > 'latn' <'AZE ' 'CRT ' 'DEU ' 'FRA ' 'ITA ' 'MOL ' 'ROM ' 'TRK ' 'dflt' > ) ]
Lookup: 1 0 0 "'zero' Slashed Zero lookup 11"  {"'zero' Slashed Zero lookup 11-1"  } ['zero' ('DFLT' <'dflt' > 'grek' <'dflt' > 'latn' <'AZE ' 'CRT ' 'DEU ' 'FRA ' 'ITA ' 'MOL ' 'ROM ' 'TRK ' 'dflt' > ) ]
Lookup: 1 0 0 "Fraction Denominators"  {"Fraction Denominators-1"  } []

StartChar: exclam
Encoding: 33 33 1
Width: 241
Flags: HW
HStem: -11 110<77.2305 163.537> 622 20G<109 140.5>
VStem: 65 110<1.23046 87.5371> 75 94<327.09 632.2>
LayerCount: 2
Fore
SplineSet
65 45 m 0xe0
 65 75 91 99 121 99 c 0
 151 99 175 75 175 45 c 0
 175 15 151 -11 121 -11 c 0
 91 -11 65 15 65 45 c 0xe0
125 642 m 0
 156 642 169 610 169 584 c 0
 169 556 155 422 134 172 c 1
 130 164 127 160 118 159 c 1
 113 161 108 164 105 170 c 1
 91 331 75 533 75 584 c 0xd0
 75 612 93 642 125 642 c 0
EndSplineSet
Substitution2: "'sinf' Scientific Inferiors lookup 5-1" exclam.sinf
Substitution2: "'sups' Superscript lookup 6-1" exclam.ssup
Substitution2: "'smcp' Lowercase to Small Capitals lookup 2-1" exclam.sc
Substitution2: "'subs' Subscript lookup 1-1" exclam.subs
Substitution2: "'ordn' Ordinals lookup 0-1" exclam.ordn
EndChar

StartChar: quotedbl
Encoding: 34 34 2
Width: 280
Flags: HW
HStem: 473 226<74.0952 102.855 194.095 222.855>
VStem: 39 78<523.482 685.326> 159 78<523.482 685.326>
LayerCount: 2
Fore
SplineSet
211 699 m 0
 223 699 229 696 237 686 c 1
 237 657 229 544 223 492 c 1
 220 486 211 477 203 473 c 1
 200 473 196 475 194 479 c 1
 173 551 159 601 159 629 c 0
 159 657 179 699 211 699 c 0
91 699 m 0
 103 699 109 696 117 686 c 1
 117 657 109 544 103 492 c 1
 100 486 91 477 83 473 c 1
 80 473 76 475 74 479 c 1
 53 551 39 601 39 629 c 0
 39 657 59 699 91 699 c 0
EndSplineSet
Substitution2: "'smcp' Lowercase to Small Capitals lookup 2-1" quotedbl.sc
EndChar

StartChar: numbersign
Encoding: 35 35 3
Width: 480
Flags: HW
HStem: 178 49<59.3459 392.303> 369 49<86.4529 420.211>
LayerCount: 2
Fore
SplineSet
413.63 369 m 1
 254.63 369 254.63 369 84.6299 369 c 1
 72.6299 369 80.6299 414 93.6299 418 c 9
 419.63 418 l 17
 433.63 418 426.63 375 413.63 369 c 1
385.63 178 m 1
 226.63 178 226.63 178 56.6299 178 c 1
 44.6299 178 53.6299 223 66.6299 227 c 9
 392.63 227 l 17
 406.63 227 398.63 184 385.63 178 c 1
373.63 528 m 1
 301.63 77 l 2
 300.63 73 292.63 64 277.63 64 c 0
 267.63 64 266.63 68 266.63 68 c 1
 338.63 518 l 1
 341.63 527 341.63 531 360.63 531 c 0
 369.63 531 370.63 530 373.63 528 c 1
212.63 528 m 1
 139.63 77 l 2
 138.63 73 131.63 64 116.63 64 c 0
 106.63 64 105.63 68 105.63 68 c 1
 177.63 518 l 1
 180.63 527 180.63 531 199.63 531 c 0
 208.63 531 209.63 530 212.63 528 c 1
EndSplineSet
Substitution2: "'smcp' Lowercase to Small Capitals lookup 2-1" numbersign.sc
EndChar

StartChar: dollar
Encoding: 36 36 4
Width: 498
Flags: HW
HStem: -10 36<220.435 313.473> 604 35<187.151 280.766>
VStem: 51 38<113.977 176.088> 69 77<435.029 550.873> 172 35<-48.3816 -8.51413> 292 35<639.634 680.877> 364 84<85.5952 206.996> 379 35<470.001 527.286>
LayerCount: 2
Fore
SplineSet
257 639 m 0xde
 317 639 339 626 402 612 c 1
 414 561 414 501 414 475 c 1
 413 472 406 470 403 470 c 0
 399 470 381 468 379 478 c 0
 373 526 327 604 251 604 c 0
 167 604 146 546 146 500 c 0xdd
 146 423 218 391 281 351 c 0
 344 311 448 261 448 166 c 0
 448 60 350 -10 247 -10 c 0
 182 -10 121 8 74 18 c 1
 62 75 51 154 51 165 c 1
 53 171 69 177 76 177 c 0
 81 177 87.7031 174.27 89 168 c 0xee
 95 139 122 26 249 26 c 0
 309 26 364 65 364 140 c 0
 364 220 302 240 236 278 c 0
 162 321 69 373 69 470 c 0
 69 572 161 639 257 639 c 0xde
292 683 m 17
 300 683 327 683 327 676 c 9
 207 -52 l 17
 198 -52 172 -50 172 -43 c 9
 292 683 l 17
EndSplineSet
Substitution2: "'smcp' Lowercase to Small Capitals lookup 2-1" dollar.sc
EndChar

StartChar: percent
Encoding: 37 37 5
Width: 667
Flags: HW
HStem: -7 25<451.434 521.549> 289 24<438.266 507.513> 325 25<163.003 231.1> 621 24<149.377 218.599>
VStem: 40 64<408.045 571.079> 271 66<399.6 570.458> 328 64<76.045 237.871> 559 66<66.3943 238.458>
LayerCount: 2
Fore
SplineSet
186 621 m 0xfd
 127 621 104 555 104 496 c 0
 104 427 146 350 196 350 c 0
 254 350 271 418 271 476 c 0
 271 543 239 621 186 621 c 0xfd
190 645 m 0
 277 645 337 571 337 484 c 0
 337 404 281 325 190 325 c 0
 107 325 40 396 40 484 c 0
 40 573 101 645 190 645 c 0
475 289 m 0
 416 289 392 223 392 164 c 0xfb
 392 95 435 18 485 18 c 0
 543 18 559 86 559 144 c 0
 559 211 528 289 475 289 c 0
479 313 m 0
 566 313 625 239 625 152 c 0
 625 72 570 -7 478 -7 c 0
 395 -7 328 64 328 152 c 0
 328 241 390 313 479 313 c 0
598 624 m 1
 115 0 l 2
 111 -5 94 -12 82 -12 c 0
 68 -12 65 -3 64 -1 c 1
 546 624 l 2
 551 630 560 636 566 636 c 0
 595 636 589 633 598 624 c 1
EndSplineSet
Substitution2: "'sinf' Scientific Inferiors lookup 5-1" percent.sinf
Substitution2: "'sups' Superscript lookup 6-1" percent.ssup
Substitution2: "'smcp' Lowercase to Small Capitals lookup 2-1" percent.sc
Substitution2: "'subs' Subscript lookup 1-1" percent.subs
Substitution2: "'ordn' Ordinals lookup 0-1" percent.ordn
EndChar

StartChar: ampersand
Encoding: 38 38 6
Width: 683
Flags: HW
HStem: -3 43<199.243 342.066 514.5 607.13> 289 23<463.686 506.938 597.031 655.236> 620 36<262.399 355.509>
VStem: 53 86<94.0843 236.46> 161 73<445.099 592.5> 385 68<465.283 594.712>
LayerCount: 2
Fore
SplineSet
406 95 m 1
 341 161 242 314 242 314 c 1
 188 277 139 244 139 172 c 0
 139 78 208 40 281 40 c 0
 321 40 374 61 406 95 c 1
313 620 m 0
 270 620 234 589 234 543 c 0
 234 494 254 443 286 385 c 1
 348 421 385 453 385 530 c 0
 385 575 358 620 313 620 c 0
308 656 m 0
 396 656 453 616 453 544 c 0
 453 454 380 400 304 353 c 1
 346 282 402 210 452 154 c 1
 489 210 509 261 509 271 c 0
 509 291 471 287 464 289 c 1
 461 295 461 308 465 312 c 1
 544 312 l 2
 579 312 608 315 654 317 c 1
 657 315 656 289 653 289 c 1
 636 289 595 279 584 272 c 0
 579 269 541 194 480 123 c 1
 525 76 554 45 578 45 c 0
 599 45 625 78 630 91 c 1
 641 91 653 80 653 73 c 1
 649 64 621 0 544 0 c 0
 485 0 429 72 429 72 c 1
 381 30 313 -3 247 -3 c 0
 130 -3 53 57 53 158 c 0
 53 254 135 307 219 350 c 1
 191 398 161 450 161 519 c 0
 161 595 224 656 308 656 c 0
EndSplineSet
Substitution2: "'smcp' Lowercase to Small Capitals lookup 2-1" ampersand.sc
EndChar

StartChar: quotesingle
Encoding: 39 39 7
Width: 160
Flags: HW
HStem: 473 226<74.0952 102.855>
VStem: 39 78<523.482 685.326>
LayerCount: 2
Fore
SplineSet
91 699 m 0
 103 699 109 696 117 686 c 1
 117 657 109 544 103 492 c 1
 100 486 91 477 83 473 c 1
 80 473 76 475 74 479 c 1
 53 551 39 601 39 629 c 0
 39 657 59 699 91 699 c 0
EndSplineSet
Substitution2: "'smcp' Lowercase to Small Capitals lookup 2-1" quotesingle.sc
EndChar

StartChar: parenleft
Encoding: 40 40 8
Width: 262
Flags: HW
VStem: 37 73<122.806 447.394>
LayerCount: 2
Fore
SplineSet
110 285 m 0
 110 128 162 -47 256 -130 c 1
 257 -130 244 -146 237 -150 c 1
 120 -58 37 91 37 285 c 0
 37 480 120 627 237 719 c 1
 244 715 257 699 256 699 c 1
 162 616 110 443 110 285 c 0
EndSplineSet
Substitution2: "'sinf' Scientific Inferiors lookup 5-1" parenleft.sinf
Substitution2: "'sups' Superscript lookup 6-1" parenleft.ssup
Substitution2: "'smcp' Lowercase to Small Capitals lookup 2-1" parenleft.sc
Substitution2: "'subs' Subscript lookup 1-1" parenleft.subs
Substitution2: "'ordn' Ordinals lookup 0-1" parenleft.ordn
EndChar

StartChar: parenright
Encoding: 41 41 9
Width: 262
Flags: HW
VStem: 152.055 73<122.806 447.394>
LayerCount: 2
Fore
SplineSet
225.055 285 m 0
 225.055 91 142.055 -58 25.0547 -150 c 1
 18.0547 -146 5.05469 -130 6.05469 -130 c 1
 100.055 -47 152.055 128 152.055 285 c 0
 152.055 443 100.055 616 6.05469 699 c 1
 5.05469 699 18.0547 715 25.0547 719 c 1
 142.055 627 225.055 480 225.055 285 c 0
EndSplineSet
Substitution2: "'sinf' Scientific Inferiors lookup 5-1" parenright.sinf
Substitution2: "'sups' Superscript lookup 6-1" parenright.ssup
Substitution2: "'smcp' Lowercase to Small Capitals lookup 2-1" parenright.sc
Substitution2: "'subs' Subscript lookup 1-1" parenright.subs
Substitution2: "'ordn' Ordinals lookup 0-1" parenright.ordn
EndChar

StartChar: asterisk
Encoding: 42 42 10
Width: 443
Flags: HW
HStem: 390 61<309.708 393.559> 434 65<38.09 148.571>
VStem: 129.583 57<572.979 660.875> 208.583 25<420.999 450.228>
LayerCount: 2
Fore
SplineSet
301.583 613 m 0x70
 318.583 632 342.583 640 357.583 625 c 0
 373.583 609 370.583 586 351.583 569 c 0
 316.583 537 282.583 532 254.583 505 c 1
 254.583 505 248.583 496 249.583 491 c 0
 250.583 486 254.583 483 259.583 481 c 0
 294.583 465 322.583 471 366.583 451 c 0
 389.583 441 404.583 421 395.583 402 c 0
 385.583 382 362.583 378 340.583 390 c 0xb0
 298.583 413 283.583 444 249.583 462 c 1
 249.583 462 240.583 467 235.583 465 c 0
 229.583 462 230.583 457 229.583 452 c 0
 225.583 414 238.583 389 233.583 341 c 0
 230.583 316 216.583 296 195.583 299 c 0
 173.583 302 162.583 322 167.583 347 c 0
 176.583 394 201.583 419 208.583 457 c 1
 208.583 457 209.583 466 205.583 470 c 0
 202.583 474 197.583 474 192.583 473 c 0
 155.583 465 135.583 444 87.583 434 c 0
 63.583 429 38.583 436 35.583 457 c 0
 31.583 479 48.583 496 73.583 499 c 0
 121.583 505 150.583 489 189.583 494 c 1
 189.583 494 198.583 497 200.583 502 c 0
 202.583 507 201.583 511 198.583 516 c 0
 179.583 549 153.583 562 129.583 604 c 0
 117.583 626 117.583 650 135.583 660 c 0
 155.583 670 175.583 660 186.583 637 c 0
 206.583 593 200.583 560 217.583 525 c 1
 217.583 525 222.583 515 227.583 514 c 0
 232.583 513 236.583 516 240.583 520 c 0
 266.583 548 269.583 577 301.583 613 c 0x70
EndSplineSet
Substitution2: "'smcp' Lowercase to Small Capitals lookup 2-1" asterisk.sc
EndChar

StartChar: plus
Encoding: 43 43 11
Width: 542
Flags: HW
HStem: 218 56<35.4861 242 298 507.076>
VStem: 242 56<7.125 218 274 480.966>
LayerCount: 2
Fore
SplineSet
242 474 m 1
 258 480 278 485 285 485 c 0
 295 485 298 479 298 479 c 1
 298 274 l 29
 378 274 422 274 502 274 c 20
 506 274 511 270 511 262 c 4
 511 245.721 503 226 495 218 c 5
 420 218 298 218 298 218 c 29
 298 218 298 93 298 16 c 1
 286 7 265 5 255 5 c 0
 248 5 242 10 242 14 c 2
 242 218 l 29
 37 218 l 5
 37 218 31 218 31 228 c 4
 31 232 36 266 46 274 c 5
 126.168 274 242 274 242 274 c 13
 242 274 242 455 242 474 c 1
EndSplineSet
Substitution2: "'sinf' Scientific Inferiors lookup 5-1" plus.sinf
Substitution2: "'sups' Superscript lookup 6-1" plus.ssup
Substitution2: "'smcp' Lowercase to Small Capitals lookup 2-1" plus.sc
Substitution2: "'subs' Subscript lookup 1-1" plus.subs
Substitution2: "'ordn' Ordinals lookup 0-1" plus.ordn
EndChar

StartChar: comma
Encoding: 44 44 12
Width: 201
Flags: HW
HStem: -139 262
VStem: 80 70<-26.8236 65>
LayerCount: 2
Fore
SplineSet
106 123 m 0
 114 123 125 120 132 116 c 1
 139 104 150 84 150 46 c 0
 150 -11 83 -111 32 -139 c 1
 25 -139 17 -124 17 -118 c 1
 37 -103 80 -71 80 -7 c 0
 80 26 47 35 47 74 c 0
 47 95 70 123 106 123 c 0
EndSplineSet
Substitution2: "'smcp' Lowercase to Small Capitals lookup 2-1" comma.sc
Substitution2: "'c2sc' Capitals to Small Capitals in Latin lookup 0 subtable" comma.sc
Substitution2: "'sinf' Scientific Inferiors lookup 5-1" comma.sinf
Substitution2: "'sups' Superscript lookup 6-1" comma.ssup
Substitution2: "'subs' Subscript lookup 1-1" comma.subs
Substitution2: "'ordn' Ordinals lookup 0-1" comma.ordn
EndChar

StartChar: hyphen
Encoding: 45 45 13
Width: 377
Flags: HW
HStem: 210 63<80.002 314.131>
VStem: 58 261
LayerCount: 2
Fore
SplineSet
71 261 m 1
 71 261 279 272 312 273 c 0
 316 273 319 272 319 264 c 0
 319 247 314 227 306 210 c 1
 259 207 156 203 65 199 c 0
 60 199 58 201 58 210 c 0
 58 229 64 246 71 261 c 1
EndSplineSet
Substitution2: "'sinf' Scientific Inferiors lookup 5-1" hyphen.sinf
Substitution2: "'sups' Superscript lookup 6-1" hyphen.ssup
Substitution2: "'smcp' Lowercase to Small Capitals lookup 2-1" hyphen.sc
Substitution2: "'subs' Subscript lookup 1-1" hyphen.subs
Substitution2: "'ordn' Ordinals lookup 0-1" hyphen.ordn
EndChar

StartChar: slash
Encoding: 47 47 14
Width: 413
Flags: HW
LayerCount: 2
Fore
SplineSet
369 761 m 4
 377 761 381 755 382 752 c 5
 87 -12 l 6
 84 -19 71 -35 48 -35 c 4
 33 -35 30 -28 30 -28 c 5
 329 746 l 5
 330 749 345 761 369 761 c 4
EndSplineSet
Substitution2: "'frac' Diagonal Fractions lookup 10 subtable" fraction
Substitution2: "'sinf' Scientific Inferiors lookup 5-1" slash.sinf
Substitution2: "'sups' Superscript lookup 6-1" slash.ssup
Substitution2: "'smcp' Lowercase to Small Capitals lookup 2-1" slash.sc
Substitution2: "'subs' Subscript lookup 1-1" slash.subs
Substitution2: "'ordn' Ordinals lookup 0-1" slash.ordn
EndChar

StartChar: zero
Encoding: 48 48 15
Width: 546
Flags: HW
HStem: -3 37<223.809 318.186> 604 37<228.815 322.765>
VStem: 55 88<173.11 465.617> 403 88<171.948 470.875>
LayerCount: 2
Fore
SplineSet
278 604 m 0
 194 604 143 477 143 320 c 0
 143 163 194 34 268 34 c 0
 357 34 403 168 403 325 c 0
 403 482 352 604 278 604 c 0
273 641 m 0
 413 641 491 493 491 319 c 0
 491 145 411 -3 273 -3 c 0
 137 -3 55 145 55 319 c 0
 55 493 135 641 273 641 c 0
EndSplineSet
Substitution2: "'pnum' Proportional Numbers lookup 12-1" zero.prop
Substitution2: "'zero' Slashed Zero lookup 11-1" slashedzero
Substitution2: "'sinf' Scientific Inferiors lookup 5-1" zero.sinf
Substitution2: "'sups' Superscript lookup 6-1" zero.ssup
Substitution2: "'onum' Oldstyle Figures lookup 3-1" zero.onum
Substitution2: "'smcp' Lowercase to Small Capitals lookup 2-1" zero.sc
Substitution2: "'subs' Subscript lookup 1-1" zero.subs
Substitution2: "'ordn' Ordinals lookup 0-1" zero.ordn
EndChar

StartChar: one
Encoding: 49 49 16
Width: 323
Flags: HW
HStem: -3 29<60.563 126.443 217.876 283.756> 622 20G<206.66 213.16>
VStem: 133.16 79<32.7426 557.993>
LayerCount: 2
Fore
SplineSet
133.16 116 m 2
 133.16 520 l 2
 133.16 549 126.16 558 112.16 558 c 0
 97.1602 558 58.1602 544 42.1602 538 c 1
 37.1602 542 32.1602 548 32.1602 555 c 0
 32.1602 557 31.1602 560 34.1602 561 c 0
 116.16 598 205.16 642 208.16 642 c 2
 210.16 642 l 2
 216.16 642 219.16 631 220.16 626 c 1
 220.16 626 212.16 590 212.16 529 c 2
 212.16 116 l 2
 212.16 86 212.16 58 217.16 42 c 0
 220.16 31 269.16 26 281.16 26 c 1
 285.16 21 286.16 2 281.16 -3 c 1
 240.16 -1 209.16 2 170.16 2 c 0
 131.16 2 104.16 -1 63.1602 -3 c 1
 58.1602 2 59.1602 21 63.1602 26 c 1
 75.1602 26 124.16 31 127.16 42 c 0
 132.16 58 133.16 86 133.16 116 c 2
EndSplineSet
Substitution2: "'pnum' Proportional Numbers lookup 12-1" one.prop
Substitution2: "'sinf' Scientific Inferiors lookup 5-1" one.sinf
Substitution2: "'sups' Superscript lookup 6-1" one.ssup
Substitution2: "'onum' Oldstyle Figures lookup 3-1" one.onum
Substitution2: "'smcp' Lowercase to Small Capitals lookup 2-1" one.sc
Substitution2: "'subs' Subscript lookup 1-1" one.subs
Substitution2: "'ordn' Ordinals lookup 0-1" one.ordn
EndChar

StartChar: two
Encoding: 50 50 17
Width: 479
Flags: HW
HStem: 0 73<128 378.605> 577 65<150.85 271.625>
VStem: 47 19<497.173 503.317> 318 85<378.152 530.573>
LayerCount: 2
Fore
SplineSet
443 150 m 1
 423 101 395 18 389 0 c 9
 389 0 49 0 42 0 c 1
 38 2 32 10 32 14 c 1
 116 107 213 221 271 306 c 0
 312 366 318 407 318 456 c 0
 318 525 272 577 208 577 c 0
 128 577 78 511 66 491 c 1
 58 491 47 503 47 507 c 1
 54 532 126 642 231 642 c 0
 327 642 403 560 403 475 c 0
 403 418 381 367 346 324 c 0
 275 237 173 123 128 73 c 9
 327 73 l 2
 367 73 390 98 411 150 c 0
 413 155 417 156 423 156 c 0
 427 156 439 153 443 150 c 1
EndSplineSet
Substitution2: "'pnum' Proportional Numbers lookup 12-1" two.prop
Substitution2: "'sinf' Scientific Inferiors lookup 5-1" two.sinf
Substitution2: "'sups' Superscript lookup 6-1" two.ssup
Substitution2: "'onum' Oldstyle Figures lookup 3-1" two.onum
Substitution2: "'smcp' Lowercase to Small Capitals lookup 2-1" two.sc
Substitution2: "'subs' Subscript lookup 1-1" two.subs
Substitution2: "'ordn' Ordinals lookup 0-1" two.ordn
EndChar

StartChar: three
Encoding: 51 51 18
Width: 459
Flags: HW
HStem: -5 40<137.683 259.616> 318 30<130.3 179.758> 589 53<147.851 255.645>
VStem: 289 75<445.646 556.049> 325 86<125.145 267.973>
LayerCount: 2
Fore
SplineSet
232 642 m 0xf0
 283 642 364 596 364 514 c 0xf0
 364 449 306 400 271 379 c 5
 328 371 411 316 411 218 c 4
 411 81 281 -5 156 -5 c 0
 129 -5 86 2 54 18 c 1
 48 22 35 40 35 56 c 0
 35 85 54 104 76 104 c 0
 104 104 116 76 132 60 c 0
 151 41 179 35 206 35 c 0
 259 35 325 75 325 190 c 0xe8
 325 271 262 331 196 331 c 0
 175 331 148 321 136 318 c 1
 132 323 130 330 130 338 c 0
 130 342 130 345 132 348 c 1
 212 366 289 410 289 496 c 0
 289 549 248 589 191 589 c 0
 128 589 87 530 78 523 c 1
 72 523 66 536 66 545 c 1
 97 591 154 642 232 642 c 0xf0
EndSplineSet
Substitution2: "'pnum' Proportional Numbers lookup 12-1" three.prop
Substitution2: "'sinf' Scientific Inferiors lookup 5-1" three.sinf
Substitution2: "'sups' Superscript lookup 6-1" three.ssup
Substitution2: "'onum' Oldstyle Figures lookup 3-1" three.onum
Substitution2: "'smcp' Lowercase to Small Capitals lookup 2-1" three.sc
Substitution2: "'subs' Subscript lookup 1-1" three.subs
Substitution2: "'ordn' Ordinals lookup 0-1" three.ordn
EndChar

StartChar: four
Encoding: 52 52 19
Width: 493
Flags: HW
HStem: -6 21G<327 358.5> 174 57<79 302 381 452.961> 624 20G<362 371>
VStem: 302 79<-5.44241 174 231 524>
LayerCount: 2
Fore
SplineSet
366 644 m 0
 376 644 381 634 381 626 c 2
 381 231 l 25
 441 231 l 18
 447 231 455 211 455 190 c 0
 455 181 453 177 451 174 c 1
 425 174 381 174 381 174 c 25
 381 -1 l 1
 381 -1 378 -6 339 -6 c 0
 315 -6 302 -5 302 2 c 2
 302 174 l 25
 20 174 l 1
 13 178 11 187 11 193 c 1
 336 619 l 2
 342 627 358 644 366 644 c 0
302 524 m 25
 79 231 l 25
 302 231 l 25
 302 524 l 25
EndSplineSet
Substitution2: "'pnum' Proportional Numbers lookup 12-1" four.prop
Substitution2: "'sinf' Scientific Inferiors lookup 5-1" four.sinf
Substitution2: "'sups' Superscript lookup 6-1" four.ssup
Substitution2: "'onum' Oldstyle Figures lookup 3-1" four.onum
Substitution2: "'smcp' Lowercase to Small Capitals lookup 2-1" four.sc
Substitution2: "'subs' Subscript lookup 1-1" four.subs
Substitution2: "'ordn' Ordinals lookup 0-1" four.ordn
EndChar

StartChar: five
Encoding: 53 53 20
Width: 453
Flags: HW
HStem: -5 40<137.683 259.616> 339 56<117.696 250.763> 556 79<149.062 350.682> 624 20G<279 373>
VStem: 325 86<126.942 266.661>
LayerCount: 2
Fore
SplineSet
222 395 m 0xe8
 340 395 411 303 411 218 c 0
 411 81 281 -5 156 -5 c 0
 129 -5 86 2 54 18 c 1
 48 22 35 40 35 56 c 0
 35 85 54 104 76 104 c 0
 104 104 116 76 132 60 c 0
 151 41 179 35 206 35 c 0
 259 35 325 74 325 190 c 0
 325 252 280 339 164 339 c 3
 143 339 96 332 80 324 c 1
 76 324 73 331 73 338 c 1
 95 450 120 574 131 635 c 1
 202 635 279 635 279 635 c 2xe8
 320 635 370 644 370 644 c 17xd8
 376 640 382 638 382 633 c 0
 382 627 370 583 352 562 c 1
 324 559 289 556 237 556 c 2
 237 556 166 556 153 556 c 1
 141 496 129 432 117 376 c 1
 145 387 195 395 222 395 c 0xe8
EndSplineSet
Substitution2: "'pnum' Proportional Numbers lookup 12-1" five.prop
Substitution2: "'sinf' Scientific Inferiors lookup 5-1" five.sinf
Substitution2: "'sups' Superscript lookup 6-1" five.ssup
Substitution2: "'onum' Oldstyle Figures lookup 3-1" five.onum
Substitution2: "'smcp' Lowercase to Small Capitals lookup 2-1" five.sc
Substitution2: "'subs' Subscript lookup 1-1" five.subs
Substitution2: "'ordn' Ordinals lookup 0-1" five.ordn
EndChar

StartChar: six
Encoding: 54 54 21
Width: 494
Flags: HW
HStem: -6 33<208.175 302.859> 346 49<184.015 309.157> 618 29<387.23 421.518>
VStem: 50 86<119.341 313.338> 364 85<110.219 284.317>
LayerCount: 2
Fore
SplineSet
141 306 m 1
 138 285 136 262 136 238 c 0
 136 148 175 27 255 27 c 0
 318 27 364 94 364 184 c 0
 364 269 328 346 238 346 c 0
 209 346 174 342 141 306 c 1
266 395 m 0
 406 395 449 275 449 203 c 0
 449 91 360 -6 246 -6 c 0
 125 -6 50 112 50 220 c 0
 50 322 83 416 146 485 c 0
 217 563 330 625 414 647 c 1
 423 647 426 624 426 618 c 1
 342 591 194 527 149 350 c 1
 184 379 232 395 266 395 c 0
EndSplineSet
Substitution2: "'pnum' Proportional Numbers lookup 12-1" six.prop
Substitution2: "'sinf' Scientific Inferiors lookup 5-1" six.sinf
Substitution2: "'sups' Superscript lookup 6-1" six.ssup
Substitution2: "'onum' Oldstyle Figures lookup 3-1" six.onum
Substitution2: "'smcp' Lowercase to Small Capitals lookup 2-1" six.sc
Substitution2: "'subs' Subscript lookup 1-1" six.subs
Substitution2: "'ordn' Ordinals lookup 0-1" six.ordn
EndChar

StartChar: seven
Encoding: 55 55 22
Width: 452
Flags: HW
HStem: -5 21G<134.5 144.5> 560 73<80.1464 382>
LayerCount: 2
Fore
SplineSet
371 633 m 2
 397 633 432 636 438 636 c 0
 444 636 445 632 445 627 c 0
 445 614 429 588 416 560 c 2
 153 -2 l 1
 151 -4 147 -5 142 -5 c 0
 127 -5 98 4 98 13 c 1
 201 169 382 560 382 560 c 9
 128 560 l 2
 88 560 72 536 57 483 c 0
 56 478 51 477 45 477 c 0
 41 477 29 480 25 483 c 1
 42 537 59 601 66 633 c 9
 371 633 l 2
EndSplineSet
Substitution2: "'pnum' Proportional Numbers lookup 12-1" seven.prop
Substitution2: "'sinf' Scientific Inferiors lookup 5-1" seven.sinf
Substitution2: "'sups' Superscript lookup 6-1" seven.ssup
Substitution2: "'onum' Oldstyle Figures lookup 3-1" seven.onum
Substitution2: "'smcp' Lowercase to Small Capitals lookup 2-1" seven.sc
Substitution2: "'subs' Subscript lookup 1-1" seven.subs
Substitution2: "'ordn' Ordinals lookup 0-1" seven.ordn
EndChar

StartChar: eight
Encoding: 56 56 23
Width: 496
Flags: HW
HStem: -9 36<189.472 307.325> 608 35<199.682 294.828>
VStem: 57 79<77.0132 225.193> 85 74<430.437 556.213> 343 72<424.076 561.8> 353 81<86.3009 203.234>
LayerCount: 2
Fore
SplineSet
245 27 m 0xe4
 311 27 353 70 353 138 c 0
 353 221 239 287 225 295 c 0
 223 296 222 297 219 297 c 0
 218 297 216 297 215 296 c 0
 160 261 136 221 136 157 c 0
 136 75 192 27 245 27 c 0xe4
245 608 m 0
 197 608 159 558 159 498 c 0
 159 421 225 386 263 364 c 0
 265 363 267 362 269 362 c 0
 271 362 272 362 275 364 c 0
 316 391 343 431 343 486 c 0xd8
 343 544 305 608 245 608 c 0
251 643 m 0
 340 643 415 589 415 496 c 0xd8
 415 418 349 373 303 344 c 1
 299 343 300 340 303 338 c 0
 363 304 434 239 434 167 c 0
 434 67 343 -9 243 -9 c 0
 133 -9 57 57 57 154 c 0xe4
 57 242 148 293 187 318 c 0
 190 320 189 323 187 324 c 0
 145 349 85 406 85 480 c 0
 85 565 163 643 251 643 c 0
EndSplineSet
Substitution2: "'pnum' Proportional Numbers lookup 12-1" eight.prop
Substitution2: "'sinf' Scientific Inferiors lookup 5-1" eight.sinf
Substitution2: "'sups' Superscript lookup 6-1" eight.ssup
Substitution2: "'onum' Oldstyle Figures lookup 3-1" eight.onum
Substitution2: "'smcp' Lowercase to Small Capitals lookup 2-1" eight.sc
Substitution2: "'subs' Subscript lookup 1-1" eight.subs
Substitution2: "'ordn' Ordinals lookup 0-1" eight.ordn
EndChar

StartChar: nine
Encoding: 57 57 24
Width: 493
Flags: HW
HStem: -6 29<72.4823 106.77> 246 49<184.843 309.985> 614 33<191.141 285.825>
VStem: 45 85<356.683 530.781> 358 86<327.662 521.659>
LayerCount: 2
Fore
SplineSet
353 335 m 1
 356 356 358 379 358 403 c 0
 358 493 319 614 239 614 c 0
 176 614 130 547 130 457 c 0
 130 372 166 295 256 295 c 0
 285 295 320 299 353 335 c 1
68 23 m 1
 152 50 300 114 345 291 c 1
 310 262 262 246 228 246 c 0
 88 246 45 366 45 438 c 0
 45 550 134 647 248 647 c 0
 369 647 444 529 444 421 c 0
 444 319 411 225 348 156 c 0
 277 78 164 16 80 -6 c 1
 71 -6 68 17 68 23 c 1
EndSplineSet
Substitution2: "'pnum' Proportional Numbers lookup 12-1" nine.prop
Substitution2: "'sinf' Scientific Inferiors lookup 5-1" nine.sinf
Substitution2: "'sups' Superscript lookup 6-1" nine.ssup
Substitution2: "'onum' Oldstyle Figures lookup 3-1" nine.onum
Substitution2: "'smcp' Lowercase to Small Capitals lookup 2-1" nine.sc
Substitution2: "'subs' Subscript lookup 1-1" nine.subs
Substitution2: "'ordn' Ordinals lookup 0-1" nine.ordn
EndChar

StartChar: colon
Encoding: 58 58 25
Width: 226
Flags: HW
HStem: -11 110<70.2305 156.537> 321 110<70.2305 156.537>
VStem: 58 110<1.23046 87.5371 333.23 419.537>
LayerCount: 2
Fore
SplineSet
58 45 m 0
 58 75 84 99 114 99 c 0
 144 99 168 75 168 45 c 0
 168 15 144 -11 114 -11 c 0
 84 -11 58 15 58 45 c 0
58 377 m 0
 58 407 84 431 114 431 c 0
 144 431 168 407 168 377 c 0
 168 347 144 321 114 321 c 0
 84 321 58 347 58 377 c 0
EndSplineSet
Substitution2: "'sinf' Scientific Inferiors lookup 5-1" colon.sinf
Substitution2: "'sups' Superscript lookup 6-1" colon.ssup
Substitution2: "'smcp' Lowercase to Small Capitals lookup 2-1" colon.sc
Substitution2: "'subs' Subscript lookup 1-1" colon.subs
Substitution2: "'ordn' Ordinals lookup 0-1" colon.ordn
EndChar

StartChar: semicolon
Encoding: 59 59 26
Width: 232
Flags: HW
HStem: 321 110<73.2305 159.537>
VStem: 68 103<25.9041 111.105 332.398 420.324> 101 70<-26.8236 65>
LayerCount: 2
Fore
SplineSet
127 123 m 0xc0
 135 123 146 120 153 116 c 1
 160 104 171 84 171 46 c 0xc0
 171 -11 104 -111 53 -139 c 1
 46 -139 38 -124 38 -118 c 1
 58 -103 101 -71 101 -7 c 0xa0
 101 26 68 35 68 74 c 0
 68 95 91 123 127 123 c 0xc0
61 377 m 0
 61 407 87 431 117 431 c 0
 147 431 171 407 171 377 c 0
 171 347 147 321 117 321 c 0
 87 321 61 347 61 377 c 0
EndSplineSet
Substitution2: "'sinf' Scientific Inferiors lookup 5-1" semicolon.sinf
Substitution2: "'sups' Superscript lookup 6-1" semicolon.ssup
Substitution2: "'smcp' Lowercase to Small Capitals lookup 2-1" semicolon.sc
Substitution2: "'subs' Subscript lookup 1-1" semicolon.subs
Substitution2: "'ordn' Ordinals lookup 0-1" semicolon.ordn
EndChar

StartChar: less
Encoding: 60 60 27
Width: 492
Flags: HW
HStem: 410 20G<421.5 423.5>
LayerCount: 2
Fore
SplineSet
444 35 m 0
 444 28 434 -15 428 -15 c 0
 427 -15 425 -14 423 -13 c 2
 48 177 l 2
 33 185 30 200 30 217 c 0
 30 228 38 236 48 241 c 2
 417 428 l 2
 419 429 421 430 422 430 c 0
 425 430 432 420 439 383 c 0
 440 377 436 374 436 374 c 1
 110 209 l 1
 441 41 l 1
 441 41 444 40 444 35 c 0
EndSplineSet
Substitution2: "'sinf' Scientific Inferiors lookup 5-1" less.sinf
Substitution2: "'sups' Superscript lookup 6-1" less.ssup
Substitution2: "'smcp' Lowercase to Small Capitals lookup 2-1" less.sc
Substitution2: "'subs' Subscript lookup 1-1" less.subs
Substitution2: "'ordn' Ordinals lookup 0-1" less.ordn
EndChar

StartChar: equal
Encoding: 61 61 28
Width: 565
Flags: HW
HStem: 120 55<80.8428 485.544> 264 55<80.8428 485.544>
LayerCount: 2
Fore
SplineSet
478.547 120 m 1
 317.547 120 244.547 120 72.5469 120 c 1
 60.5459 120 74.5469 170 88.5469 175 c 9
 491.547 175 l 17
 505.547 175 492.547 127 478.547 120 c 1
478.547 264 m 1
 317.547 264 244.547 264 72.5469 264 c 1
 60.5459 264 74.5469 314 88.5469 319 c 9
 491.547 319 l 17
 505.547 319 492.547 271 478.547 264 c 1
EndSplineSet
Substitution2: "'sinf' Scientific Inferiors lookup 5-1" equal.sinf
Substitution2: "'sups' Superscript lookup 6-1" equal.ssup
Substitution2: "'smcp' Lowercase to Small Capitals lookup 2-1" equal.sc
Substitution2: "'subs' Subscript lookup 1-1" equal.subs
Substitution2: "'ordn' Ordinals lookup 0-1" equal.ordn
EndChar

StartChar: greater
Encoding: 62 62 29
Width: 493
Flags: HW
HStem: 410 20G<68 70.5>
LayerCount: 2
Fore
SplineSet
48 35 m 0
 48 39 51 41 51 41 c 1
 382 209 l 1
 57 374 l 1
 57 374 54 375 54 382 c 0
 54 400 66 430 70 430 c 0
 71 430 73 429 75 428 c 2
 445 241 l 2
 455 236 462 228 462 217 c 0
 462 200 460 185 445 177 c 2
 70 -13 l 2
 68 -14 66 -15 65 -15 c 0
 59 -15 48 27 48 35 c 0
EndSplineSet
Substitution2: "'sinf' Scientific Inferiors lookup 5-1" greater.sinf
Substitution2: "'sups' Superscript lookup 6-1" greater.ssup
Substitution2: "'smcp' Lowercase to Small Capitals lookup 2-1" greater.sc
Substitution2: "'subs' Subscript lookup 1-1" greater.subs
Substitution2: "'ordn' Ordinals lookup 0-1" greater.ordn
EndChar

StartChar: question
Encoding: 63 63 30
Width: 356
Flags: HW
HStem: -11 110<75.2305 161.537> 548 94<64.7663 183.549> 569 73<83.3395 192.566>
VStem: 63 110<1.23046 87.5371> 96 29<159.288 241.239> 260 50<432.623 535.531>
LayerCount: 2
Fore
SplineSet
63 45 m 0x94
 63 75 89 99 119 99 c 0
 149 99 173 75 173 45 c 0
 173 15 149 -11 119 -11 c 0
 89 -11 63 15 63 45 c 0x94
100 548 m 0xd4
 86 548 56 565 56 598 c 0
 56 613 60 628 65 635 c 1
 75 640 92 642 113 642 c 0
 179 642 310 574 310 457 c 0
 310 389 284 347 209 304 c 0
 182 288 137 253 131 242 c 0
 122 226 125 195 125 172 c 1
 121 164 118 160 109 159 c 1
 104 161 99 164 96 170 c 1xcc
 91 191 88 234 88 261 c 0
 88 335 136 361 173 385 c 0
 222 416 260 439 260 487 c 0
 260 539 224 569 186 569 c 0xb4
 133 569 126 548 100 548 c 0xd4
EndSplineSet
Substitution2: "'sinf' Scientific Inferiors lookup 5-1" question.sinf
Substitution2: "'sups' Superscript lookup 6-1" question.ssup
Substitution2: "'smcp' Lowercase to Small Capitals lookup 2-1" question.sc
Substitution2: "'subs' Subscript lookup 1-1" question.subs
Substitution2: "'ordn' Ordinals lookup 0-1" question.ordn
EndChar

StartChar: at
Encoding: 64 64 31
Width: 748
Flags: HW
HStem: -124 18<261.319 285.566> -7 43<494.48 583.769> -5 58<283.059 341.022> 389 46<390.034 497.5> 538 40<314.127 518.377>
VStem: 49 40<62.2822 287.163> 194 74<65.092 232.038> 423 66<41.9004 125> 672 40<157.015 377.609>
LayerCount: 2
Fore
SplineSet
418 578 m 0xdf80
 614 578 712 426 712 270 c 0
 712 117 623 -7 506 -7 c 0xdf80
 457 -7 423 18 423 79 c 0
 423 91 427 117 430 125 c 1
 411 88 347 -5 289 -5 c 3xbf80
 227 -5 194 60 194 130 c 3
 194 276 343 435 480 435 c 0
 515 435 534 429 553 422 c 9
 492 106 l 2
 491 102 489 86 489 81 c 0
 489 49 510 36 537 36 c 0
 600 36 672 142 672 267 c 0
 672 402 592 538 418 538 c 0
 214 538 89 344 89 170 c 0
 89 53 150 -36 222 -78 c 0
 258 -99 278 -103 297 -106 c 1
 297 -114 273 -124 261 -124 c 0
 249 -124 235 -123 222 -118 c 0
 130 -84 49 29 49 170 c 0
 49 366 186 578 418 578 c 0xdf80
438 389 m 3
 361 389 268 266 268 151 c 0
 268 89 284 53 319 53 c 3xbf80
 369 53 440 178 459 274 c 2
 479 376 l 17
 470 386 451 389 438 389 c 3
EndSplineSet
Substitution2: "'smcp' Lowercase to Small Capitals lookup 2-1" at.sc
EndChar

StartChar: A
Encoding: 65 65 32
Width: 627
Flags: HW
HStem: -3 29<-10.4375 43.4219 131.557 192.446 403.025 461.809 582.411 631.812> 252 42<204.25 380.249> 643 20G<321.75 327.75>
LayerCount: 2
Fore
SplineSet
95.25 139 m 2
 95.25 139 227.25 478 288.25 634 c 0
 294.25 650 317.25 663 326.25 663 c 0
 329.25 663 329.25 661 332.25 660 c 1
 535.545 126 l 0
 549.91 88.5957 559.512 63.8613 561.25 60 c 0
 571.25 36 621.25 26 629.25 26 c 1
 634.25 19 632.25 0 631.25 -3 c 1
 591.25 -1 565.25 2 521.25 2 c 0
 475.25 2 451.25 -1 405.25 -3 c 1
 400.25 2 401.25 21 406.25 26 c 1
 418.25 26 453.25 31 462.25 39 c 0
 465.25 42 466.25 47 466.25 53 c 0
 466.25 83 400.25 247 400.25 247 c 1
 400.25 247 397.25 251 394.25 251 c 0
 368.25 253 318.25 252 293.25 252 c 0
 252.25 252 233.25 252 188.25 249 c 0
 186.25 249 183.25 246 183.25 246 c 1
 183.25 246 153.25 173 137.25 125 c 16
 125.25 90 123.25 67 123.25 54 c 0
 123.25 30 182.25 26 190.25 26 c 1
 193.25 23 194.25 3 192.25 -3 c 1
 152.25 -1 139.25 2 95.25 2 c 0
 49.25 2 37.25 -1 -8.75 -3 c 1
 -11.75 0 -11.75 19 -8.75 26 c 1
 3.25 26 38.25 32 48.25 45 c 0
 68.25 71 81.25 103 95.25 139 c 2
294.25 535 m 1
 204.25 300 l 1
 204.25 300 204.25 296 206.25 296 c 0
 232.25 295 269.25 294 292.25 294 c 0
 323.25 294 346.25 295 377.25 297 c 0
 379.25 297 380.25 302 380.25 302 c 1
 294.25 535 l 1
EndSplineSet
Substitution2: "'sinf' Scientific Inferiors lookup 5-1" A.sinf
Substitution2: "'sups' Superscript lookup 6-1" A.ssup
Substitution2: "'subs' Subscript lookup 1-1" A.subs
Substitution2: "'ordn' Ordinals lookup 0-1" A.ordn
EndChar

StartChar: B
Encoding: 66 66 33
Width: 596
Flags: HW
HStem: -3 35<44.6713 116.213 216.098 384.013> 334 38<206.386 365.968> 624 35<211.595 344.545> 633 29<42.7891 113.638>
VStem: 119.386 87<50.3571 334 372 613.422> 415.386 91<437.712 566.413> 453.386 99<116.781 263.949>
LayerCount: 2
Fore
SplineSet
206.386 334 m 1xca
 206.386 118 l 2
 206.386 104 208.386 57 215.386 50 c 0
 230.386 34 257.386 32 294.386 32 c 0
 369.386 32 453.386 54 453.386 176 c 0
 453.386 251 421.386 334 267.386 334 c 2
 206.386 334 l 1xca
206.386 372 m 1
 307.386 372 l 2
 379.386 372 415.386 430 415.386 487 c 0
 415.386 576 354.386 624 261.386 624 c 0xec
 249.386 624 215.386 623 211.386 614 c 0
 206.386 602 206.386 569 206.386 539 c 2
 206.386 372 l 1
305.386 659 m 0
 396.386 659 506.386 624 506.386 510 c 0xec
 506.386 433 440.386 383 405.386 370 c 0
 403.386 369 402.386 367 405.386 365 c 1
 454.386 363 552.386 298 552.386 199 c 0
 552.386 142 517.386 79 473.386 47 c 0
 422.386 10 352.386 -2 275.386 -3 c 0
 242.386 -3 84.3857 -3 45.3857 -3 c 1
 40.3857 2 41.3857 21 45.3857 26 c 1
 57.3857 26 111.386 31 114.386 42 c 0
 119.386 58 119.386 86 119.386 116 c 2
 119.386 543 l 2
 119.386 573 119.386 601 114.386 617 c 0
 111.386 628 57.3857 633 45.3857 633 c 1
 41.3857 638 40.3857 657 45.3857 662 c 1xda
 86.3857 660 124.386 657 163.386 657 c 0
 202.386 657 246.386 659 305.386 659 c 0
EndSplineSet
Substitution2: "'sinf' Scientific Inferiors lookup 5-1" B.sinf
Substitution2: "'sups' Superscript lookup 6-1" B.ssup
Substitution2: "'subs' Subscript lookup 1-1" B.subs
Substitution2: "'ordn' Ordinals lookup 0-1" B.ordn
EndChar

StartChar: C
Encoding: 67 67 34
Width: 674
Flags: HW
HStem: -6 37<311.323 497.803> 630 37<307.034 491.783>
VStem: 48 99<212.865 446.975> 600 32<140.38 185.708>
LayerCount: 2
Fore
SplineSet
386 667 m 0
 452 667 524 662 598 646 c 1
 598 646 621 508 621 498 c 1
 621 488 610 483 600 483 c 0
 594 483 589 485 587 488 c 1
 581 519 558 630 391 630 c 0
 243 630 147 483 147 343 c 0
 147 187 233 31 407 31 c 0
 468.386 31 510.236 49.46 539 75.0752 c 0
 578.18 109.966 593.08 158.131 600 191 c 1
 614 191 632 183 632 183 c 1
 632 163 611 51 597 39 c 1
 542 8 474 -6 382 -6 c 0
 184 -6 48 145 48 322 c 0
 48 509 189 667 386 667 c 0
EndSplineSet
Substitution2: "'sinf' Scientific Inferiors lookup 5-1" C.sinf
Substitution2: "'sups' Superscript lookup 6-1" C.ssup
Substitution2: "'subs' Subscript lookup 1-1" C.subs
Substitution2: "'ordn' Ordinals lookup 0-1" C.ordn
EndChar

StartChar: D
Encoding: 68 68 35
Width: 710
Flags: HW
HStem: -3 35<44.6713 116.212 213.782 391.991> 624 34<210.918 377.064> 633 29<42.7891 113.637>
VStem: 119.386 88<46.3146 620.395> 560.386 99<197.68 448.61>
LayerCount: 2
Fore
SplineSet
207.386 539 m 2xd8
 207.386 118 l 0
 207.386 104 208.386 52 213.386 46 c 0
 221.386 35 258.386 32 295.386 32 c 0
 437.386 32 560.386 118 560.386 313 c 0
 560.386 539 425.386 624 281.386 624 c 0
 269.386 624 215.386 623 212.386 613 c 0
 207.386 597 207.386 568 207.386 539 c 2xd8
308.386 658 m 0
 527.386 658 659.386 519 659.386 334 c 0
 659.386 164 577.386 -3 295.386 -3 c 0
 251.386 -3 84.3857 -3 45.3857 -3 c 1
 40.3857 2 41.3857 21 45.3857 26 c 1
 57.3857 26 111.386 31 114.386 42 c 0
 119.386 58 119.386 86 119.386 116 c 2
 119.386 543 l 2
 119.386 573 119.386 601 114.386 617 c 0
 111.386 628 57.3857 633 45.3857 633 c 1
 41.3857 638 40.3857 657 45.3857 662 c 1xb8
 86.3857 660 124.386 657 163.386 657 c 0
 202.386 657 264.386 658 308.386 658 c 0
EndSplineSet
Substitution2: "'sinf' Scientific Inferiors lookup 5-1" D.sinf
Substitution2: "'sups' Superscript lookup 6-1" D.ssup
Substitution2: "'subs' Subscript lookup 1-1" D.subs
Substitution2: "'ordn' Ordinals lookup 0-1" D.ordn
EndChar

StartChar: E
Encoding: 69 69 36
Width: 587
Flags: HW
HStem: -3 29<42.7891 113.637> 0 37<212.997 445.86> 312 37<206.385 383.836> 408 20G<423.885 430.885> 621 36<209.735 437.838> 633 29<42.9341 113.637>
VStem: 119.385 87<47.2663 310.528 349.429 616.995> 412.385 32<230.002 289.298 372.014 427.976> 482.385 32<523.07 569.412>
LayerCount: 2
Fore
SplineSet
163.386 657 m 0x3b80
 257.386 657 376.386 664 485.386 664 c 1
 492.386 614 505.386 573 514.386 528 c 1
 511.386 525 503.386 523 496.386 523 c 0
 489.386 523 483.386 525 482.386 530 c 0
 460.386 610 419.386 621 366.386 621 c 2
 280.386 621 l 0
 268.386 621 214.386 620 211.386 610 c 0
 206.386 594 206.386 566 206.386 539 c 2
 206.386 355 l 2
 206.386 350 227.386 349 249.386 349 c 2
 302.386 349 l 2
 398.386 349 395.386 355 412.386 421 c 0
 413.386 426 420.386 428 427.386 428 c 0
 434.386 428 441.386 426 444.386 423 c 1
 444.386 234 l 1
 442.386 232 435.386 230 428.386 230 c 0
 421.386 230 414.386 233 412.386 238 c 0
 397.386 295 393.386 298 384.386 304 c 0
 373.386 311 316.386 312 278.386 312 c 0
 250.386 312 206.386 312 206.386 303 c 2
 206.386 116 l 2
 206.386 101 206.386 52 212.386 47 c 0
 225.386 37 241.386 37 283.386 37 c 2
 331.386 37 l 2
 378.386 37 429.386 44 457.386 61 c 0
 489.386 80 504.386 119 520.386 162 c 0
 521.386 166 527.386 168 534.386 168 c 0
 544.386 168 556.386 165 559.386 162 c 1
 540.386 108 512.386 40 505.386 -4 c 1
 396.386 -4 297.386 0 164.386 0 c 0x7b80
 117.386 0 84.3857 -3 45.3857 -3 c 1
 40.3857 2 41.3857 21 45.3857 26 c 1
 57.3857 26 111.386 31 114.386 42 c 0
 119.386 58 119.386 86 119.386 116 c 2
 119.386 543 l 2
 119.386 573 119.386 601 114.386 617 c 0
 111.386 628 57.3857 633 45.3857 633 c 1
 41.3857 638 40.3857 657 45.3857 662 c 1xb780
 86.3857 660 124.386 657 163.386 657 c 0x3b80
EndSplineSet
Substitution2: "'sinf' Scientific Inferiors lookup 5-1" E.sinf
Substitution2: "'sups' Superscript lookup 6-1" E.ssup
Substitution2: "'subs' Subscript lookup 1-1" E.subs
Substitution2: "'ordn' Ordinals lookup 0-1" E.ordn
EndChar

StartChar: F
Encoding: 70 70 37
Width: 535
Flags: HW
HStem: -3 29<42.7891 113.637 212.198 292.982> 312 37<206.386 383.837> 408 20G<423.886 430.886> 621 36<209.735 437.839> 633 29<42.9341 113.637>
VStem: 119.386 87<33.4148 310.528 349.429 616.995> 412.386 32<230.002 289.298 372.014 427.976> 482.386 32<523.07 569.412>
LayerCount: 2
Fore
SplineSet
163.386 657 m 0xf7
 257.386 657 376.386 664 485.386 664 c 1
 492.386 614 505.386 573 514.386 528 c 1
 511.386 525 503.386 523 496.386 523 c 0
 489.386 523 483.386 525 482.386 530 c 0
 460.386 610 419.386 621 366.386 621 c 2
 280.386 621 l 0xf7
 268.386 621 214.386 620 211.386 610 c 0
 206.386 594 206.386 566 206.386 539 c 2
 206.386 355 l 2
 206.386 350 227.386 349 249.386 349 c 2
 302.386 349 l 2
 398.386 349 395.386 355 412.386 421 c 0
 413.386 426 420.386 428 427.386 428 c 0
 434.386 428 441.386 426 444.386 423 c 1
 444.386 234 l 1
 442.386 232 435.386 230 428.386 230 c 0
 421.386 230 414.386 233 412.386 238 c 0
 397.386 295 393.386 298 384.386 304 c 0
 373.386 311 316.386 312 278.386 312 c 0
 250.386 312 206.386 312 206.386 303 c 2
 206.386 116 l 2
 206.386 86 206.386 58 211.386 42 c 0
 214.386 31 278.386 26 290.386 26 c 1
 294.386 21 295.386 2 290.386 -3 c 1
 249.386 -1 202.386 2 163.386 2 c 0
 116.386 2 84.3857 -3 45.3857 -3 c 1
 40.3857 2 41.3857 21 45.3857 26 c 1
 57.3857 26 111.386 31 114.386 42 c 0
 119.386 58 119.386 86 119.386 116 c 2
 119.386 543 l 2
 119.386 573 119.386 601 114.386 617 c 0
 111.386 628 57.3857 633 45.3857 633 c 1
 41.3857 638 40.3857 657 45.3857 662 c 1xef
 86.3857 660 124.386 657 163.386 657 c 0xf7
EndSplineSet
Substitution2: "'sinf' Scientific Inferiors lookup 5-1" F.sinf
Substitution2: "'sups' Superscript lookup 6-1" F.ssup
Substitution2: "'subs' Subscript lookup 1-1" F.subs
Substitution2: "'ordn' Ordinals lookup 0-1" F.ordn
EndChar

StartChar: G
Encoding: 71 71 38
Width: 720
Flags: HW
HStem: -6 37<311.129 505.174> 265 29<453.404 529.22 626.723 693.596> 630 37<307.034 491.783>
VStem: 48 99<212.865 446.975> 535 86<64.4681 257.925> 587 34<483.297 537.608>
LayerCount: 2
Fore
SplineSet
535 175 m 2xf8
 535 205 535 233 530 249 c 0
 527 260 468 265 456 265 c 1
 452 270 451 289 456 294 c 1
 497 292 540 289 579 289 c 0
 618 289 650 292 691 294 c 1
 696 289 695 270 691 265 c 1
 679 265 629 260 626 249 c 0
 621 233 621 205 621 175 c 2
 621 175 621 114 621 104 c 0xf8
 621 83 631 74 631 64 c 0
 631 58 628 55 611 46 c 0
 568 23 514 -6 382 -6 c 0
 184 -6 48 145 48 322 c 0
 48 509 189 667 386 667 c 0
 452 667 524 662 598 646 c 1
 598 646 621 508 621 498 c 1
 621 488 610 483 600 483 c 0
 594 483 589 485 587 488 c 1xf4
 581 519 558 630 391 630 c 0
 243 630 147 483 147 343 c 0
 147 187 232 31 407 31 c 0
 459 31 498 44 528 59 c 0
 534 62 535 67 535 74 c 0
 535 101 535 175 535 175 c 2xf8
EndSplineSet
Substitution2: "'sinf' Scientific Inferiors lookup 5-1" G.sinf
Substitution2: "'sups' Superscript lookup 6-1" G.ssup
Substitution2: "'subs' Subscript lookup 1-1" G.subs
Substitution2: "'ordn' Ordinals lookup 0-1" G.ordn
EndChar

StartChar: H
Encoding: 72 72 39
Width: 726
Flags: HW
HStem: -3 32<42.8892 114.385 211.387 282.882 443.889 515.385 612.387 683.882> 325 34<207.582 520.386> 630 32<42.8892 114.385 211.387 282.882 443.889 515.385 612.387 683.882>
VStem: 119.386 87<35.7426 318.953 362.001 623.257> 520.386 87<35.7426 320.999 362.001 623.257>
LayerCount: 2
Fore
SplineSet
163.386 657 m 0
 202.386 657 239.386 660 280.386 662 c 1
 285.386 657 284.386 635 280.386 630 c 1
 268.386 630 214.386 625 211.386 614 c 0
 206.386 598 206.386 570 206.386 540 c 2
 206.386 365 l 1
 206.386 363 208.386 362 208.386 362 c 1
 257.386 361 309.386 359 365.386 359 c 0
 412.386 359 473.386 361 518.386 362 c 1
 518.386 362 520.386 364 520.386 366 c 0
 520.386 434 520.386 540 520.386 540 c 2
 520.386 570 520.386 598 515.386 614 c 0
 512.386 625 458.386 630 446.386 630 c 1
 442.386 635 441.386 657 446.386 662 c 1
 487.386 660 525.386 657 564.386 657 c 0
 603.386 657 640.386 660 681.386 662 c 1
 686.386 657 685.386 635 681.386 630 c 1
 669.386 630 615.386 625 612.386 614 c 0
 607.386 598 607.386 570 607.386 540 c 2
 607.386 119 l 2
 607.386 89 607.386 61 612.386 45 c 0
 615.386 34 669.386 29 681.386 29 c 1
 685.386 24 686.386 2 681.386 -3 c 1
 640.386 -1 603.386 2 564.386 2 c 0
 525.386 2 487.386 -1 446.386 -3 c 1
 441.386 2 442.386 24 446.386 29 c 1
 458.386 29 512.386 34 515.386 45 c 0
 520.386 61 520.386 89 520.386 119 c 2
 520.386 317 l 1
 520.386 319 518.386 321 518.386 321 c 1
 471.386 322 416.386 325 365.386 325 c 0
 226.386 325 211.386 321 207.386 319 c 1
 206.386 318 206.386 317 206.386 317 c 1
 206.386 119 l 2
 206.386 89 206.386 61 211.386 45 c 0
 214.386 34 268.386 29 280.386 29 c 1
 284.386 24 285.386 2 280.386 -3 c 1
 239.386 -1 202.386 2 163.386 2 c 0
 124.386 2 86.3857 -1 45.3857 -3 c 1
 40.3857 2 41.3857 24 45.3857 29 c 1
 57.3857 29 111.386 34 114.386 45 c 0
 119.386 61 119.386 89 119.386 119 c 2
 119.386 540 l 2
 119.386 570 119.386 598 114.386 614 c 0
 111.386 625 57.3857 630 45.3857 630 c 1
 41.3857 635 40.3857 657 45.3857 662 c 1
 86.3857 660 124.386 657 163.386 657 c 0
EndSplineSet
Substitution2: "'sinf' Scientific Inferiors lookup 5-1" H.sinf
Substitution2: "'sups' Superscript lookup 6-1" H.ssup
Substitution2: "'subs' Subscript lookup 1-1" H.subs
Substitution2: "'ordn' Ordinals lookup 0-1" H.ordn
EndChar

StartChar: I
Encoding: 73 73 40
Width: 324
Flags: HW
HStem: -3 29<42.7891 113.637 212.134 282.982> 633 29<42.7891 113.637 212.134 282.982>
VStem: 119.386 87<32.7426 626.257>
LayerCount: 2
Fore
SplineSet
163.386 657 m 0
 202.386 657 239.386 660 280.386 662 c 1
 285.386 657 284.386 638 280.386 633 c 1
 268.386 633 214.386 628 211.386 617 c 0
 206.386 601 206.386 573 206.386 543 c 2
 206.386 116 l 6
 206.386 86 206.386 58 211.386 42 c 4
 214.386 31 268.386 26 280.386 26 c 5
 284.386 21 285.386 2 280.386 -3 c 1
 239.386 -1 202.386 2 163.386 2 c 0
 124.386 2 86.3857 -1 45.3857 -3 c 1
 40.3857 2 41.3857 21 45.3857 26 c 5
 57.3857 26 111.386 31 114.386 42 c 4
 119.386 58 119.386 86 119.386 116 c 6
 119.386 543 l 2
 119.386 573 119.386 601 114.386 617 c 0
 111.386 628 57.3857 633 45.3857 633 c 1
 41.3857 638 40.3857 657 45.3857 662 c 1
 86.3857 660 124.386 657 163.386 657 c 0
EndSplineSet
Substitution2: "'sinf' Scientific Inferiors lookup 5-1" I.sinf
Substitution2: "'sups' Superscript lookup 6-1" I.ssup
Substitution2: "'subs' Subscript lookup 1-1" I.subs
Substitution2: "'ordn' Ordinals lookup 0-1" I.ordn
EndChar

StartChar: J
Encoding: 74 74 41
Width: 313
Flags: HW
HStem: -227 48<-44 60.0717> 633 29<37.4037 108.252 206.748 277.596>
VStem: 114 87<-40.7974 626.257>
LayerCount: 2
Fore
SplineSet
158 657 m 0
 197 657 234 660 275 662 c 1
 280 657 279 638 275 633 c 1
 263 633 209 628 206 617 c 0
 201 601 201 573 201 543 c 2
 201 116 l 2
 201 -92 112 -227 -33 -227 c 0
 -55 -227 -84 -217 -96 -209 c 1
 -101 -204 -104 -193 -104 -186 c 0
 -104 -155 -85 -131 -53 -131 c 0
 -35 -131 -20 -145 -6 -158 c 0
 6 -169 22 -179 35 -179 c 0
 67 -179 114 -126 114 116 c 2
 114 543 l 2
 114 573 114 601 109 617 c 0
 106 628 52 633 40 633 c 1
 36 638 35 657 40 662 c 1
 81 660 119 657 158 657 c 0
EndSplineSet
Substitution2: "'sinf' Scientific Inferiors lookup 5-1" J.sinf
Substitution2: "'sups' Superscript lookup 6-1" J.ssup
Substitution2: "'subs' Subscript lookup 1-1" J.subs
Substitution2: "'ordn' Ordinals lookup 0-1" J.ordn
EndChar

StartChar: K
Encoding: 75 75 42
Width: 657
Flags: HW
HStem: -3 32<42.8891 114.385 211.387 282.882 590.286 661.168> 630 32<42.8891 114.385 211.387 282.882 402.848 459.566 553.029 628.468>
VStem: 119.386 87<35.7426 306.999 343 623.257>
LayerCount: 2
Fore
SplineSet
163.386 657 m 0
 202.386 657 239.386 660 280.386 662 c 1
 285.386 657 284.386 635 280.386 630 c 1
 268.386 630 214.386 625 211.386 614 c 0
 206.386 598 206.386 570 206.386 540 c 2
 206.386 343 l 1
 227.386 356 278.386 402 319.386 442 c 0
 397.386 519 399.386 517 446.386 578 c 0
 452.386 586 460.386 599 460.386 609 c 0
 460.386 634 413.386 631 404.386 631 c 1
 401.386 637 401.386 653 404.386 662 c 1
 441.386 660 482.386 656 519.386 656 c 0
 563.386 656 587.386 660 627.386 662 c 1
 629.386 656 630.386 631 625.386 631 c 0
 616.386 630 560.386 631 526.386 594 c 0
 440.386 500 384.386 450 297.386 366 c 0
 291.386 360 295.386 355 299.386 350 c 0
 395.386 238 474.386 145 551.386 72 c 0
 576.386 49 605.386 30 660.386 26 c 1
 665.386 21 660.386 -1 659.386 -3 c 1
 592.386 -3 537.386 1 517.386 8 c 0
 503.386 13 477.386 23 449.386 51 c 0
 428.386 72 337.386 175 224.386 304 c 0
 222.386 307 219.386 307 215.386 307 c 0
 212.386 307 208.386 306 206.386 305 c 1
 206.386 119 l 2
 206.386 89 206.386 61 211.386 45 c 0
 214.386 34 268.386 29 280.386 29 c 1
 284.386 24 285.386 2 280.386 -3 c 1
 239.386 -1 202.386 2 163.386 2 c 0
 124.386 2 86.3857 -1 45.3857 -3 c 1
 40.3857 2 41.3857 24 45.3857 29 c 1
 57.3857 29 111.386 34 114.386 45 c 0
 119.386 61 119.386 89 119.386 119 c 2
 119.386 540 l 2
 119.386 570 119.386 598 114.386 614 c 0
 111.386 625 57.3857 630 45.3857 630 c 1
 41.3857 635 40.3857 657 45.3857 662 c 1
 86.3857 660 124.386 657 163.386 657 c 0
EndSplineSet
Substitution2: "'sinf' Scientific Inferiors lookup 5-1" K.sinf
Substitution2: "'sups' Superscript lookup 6-1" K.ssup
Substitution2: "'subs' Subscript lookup 1-1" K.subs
Substitution2: "'ordn' Ordinals lookup 0-1" K.ordn
EndChar

StartChar: L
Encoding: 76 76 43
Width: 564
Flags: HW
HStem: -3 29<42.7891 113.638> 0 37<212.998 447.42> 633 29<42.7891 113.638 212.134 282.982>
VStem: 119.386 87<47.2685 626.257>
LayerCount: 2
Fore
SplineSet
206.386 119 m 2xb0
 206.386 104 206.386 52 212.386 47 c 0
 225.386 37 241.386 37 283.386 37 c 2
 340.386 37 l 2
 378.386 37 429.386 42 457.386 61 c 0
 482.386 78 504.386 109 520.386 162 c 0
 521.386 166 527.386 168 534.386 168 c 0
 544.386 168 556.386 165 559.386 162 c 1
 540.386 108 512.386 40 505.386 -4 c 1
 396.386 -4 297.386 0 164.386 0 c 0x70
 117.386 0 84.3857 -3 45.3857 -3 c 1
 40.3857 2 41.3857 21 45.3857 26 c 1
 57.3857 26 111.386 31 114.386 42 c 0
 119.386 58 119.386 86 119.386 116 c 2
 119.386 543 l 2
 119.386 573 119.386 601 114.386 617 c 0
 111.386 628 57.3857 633 45.3857 633 c 1
 41.3857 638 40.3857 657 45.3857 662 c 1
 86.3857 660 124.386 657 163.386 657 c 0
 202.386 657 239.386 660 280.386 662 c 1
 285.386 657 284.386 638 280.386 633 c 1
 268.386 633 214.386 628 211.386 617 c 0
 206.386 601 206 573 206.386 543 c 2
 206.386 119 l 2xb0
EndSplineSet
Substitution2: "'sinf' Scientific Inferiors lookup 5-1" L.sinf
Substitution2: "'sups' Superscript lookup 6-1" L.ssup
Substitution2: "'subs' Subscript lookup 1-1" L.subs
Substitution2: "'ordn' Ordinals lookup 0-1" L.ordn
EndChar

StartChar: M
Encoding: 77 77 44
Width: 907
Flags: HW
HStem: -3 29<24.4906 102.656 171.458 249.963 632.491 698.726 803.386 873.67> 633 29<58.057 121.455 788.222 853.324>
VStem: 119.31 45<37.5115 289.668> 133.31 44<371.361 583.939> 693.31 86<325.272 584.822> 708.31 81<37.202 383.21>
LayerCount: 2
Fore
SplineSet
162.31 657 m 0xd0
 196.31 657 221.31 660 243.31 662 c 1
 263.31 599 384.31 324 455.31 146 c 0
 456.31 144 458.31 144 459.31 144 c 0
 460.31 144 463.31 145 464.31 148 c 0
 523.31 300 559.31 394 617.31 542 c 0
 635.31 588 661.31 662 661.31 662 c 1
 693.31 660 721.31 658 740.31 658 c 0
 775.31 658 827.31 660 852.31 662 c 1
 853.31 659 855.31 633 855.31 633 c 17
 841.31 633 789.31 625 784.31 615 c 0
 780.31 606 779.31 589 779.31 577 c 0xd8
 781.31 508 786.31 270 789.31 140 c 0
 790.31 101 792.31 67 801.31 43 c 0
 806.31 29 863.31 26 871.31 26 c 1
 876.31 17 874.31 0 873.31 -3 c 1
 833.31 -1 798.31 2 754.31 2 c 0
 708.31 2 680.31 -1 634.31 -3 c 1
 632.31 -1 630.31 18 634.31 26 c 1
 646.31 26 687.31 30 699.31 37 c 0
 706.31 41 708.31 65 708.31 79 c 0xc4
 708.31 93 706.31 122 706.31 137 c 0
 702.31 281 699.31 403 693.31 565 c 0
 693.31 569 691.31 585 684.31 585 c 0
 682.31 585 681.31 583 679.31 578 c 8
 597.31 372 545.31 242 468.31 49 c 0
 464.31 40 441.31 0 430.31 -2 c 0
 427.31 -3 424.31 -1 421.31 0 c 1
 177.31 584 l 1xd8
 173.31 366 164.31 85 164.31 75 c 0
 164.31 66 165.31 52 168.31 44 c 0
 174.31 29 239.31 26 247.31 26 c 1
 252.31 20 250.31 0 249.31 -3 c 1
 209.31 -1 187.31 2 143.31 2 c 0
 97.3096 2 72.3096 -1 26.3096 -3 c 1
 24.3096 -1 22.3096 18 26.3096 26 c 1
 38.3096 26 98.3096 31 107.31 44 c 0
 116.31 57 118.31 73 119.31 94 c 0xe0
 128.31 334 133.31 554 133.31 572 c 0
 133.31 586 133.31 601 129.31 612 c 0
 125.31 624 71.3096 633 59.3096 633 c 1
 57.3096 633 57.3096 660 59.3096 662 c 1
 105.31 660 116.31 657 162.31 657 c 0xd0
EndSplineSet
Substitution2: "'sinf' Scientific Inferiors lookup 5-1" M.sinf
Substitution2: "'sups' Superscript lookup 6-1" M.ssup
Substitution2: "'subs' Subscript lookup 1-1" M.subs
Substitution2: "'ordn' Ordinals lookup 0-1" M.ordn
EndChar

StartChar: N
Encoding: 78 78 45
Width: 776
Flags: HW
HStem: -3 29<37.0767 109.331 192.917 263.854> 634 29<37.3347 113.012 522.238 593.175 676.761 749.015>
VStem: 127.046 48<46.7508 568.502> 611.046 48<166 613.249>
LayerCount: 2
Fore
SplineSet
143.046 660 m 0
 173.046 660 205.046 661 219.046 662 c 1
 270.046 582 500.046 321 611.046 166 c 1
 611.046 224 l 0
 611.046 545 l 2
 611.046 581 611.046 598 601.046 614 c 0
 595.046 624 541.046 634 525.046 634 c 1
 520.046 641 521.046 657 523.046 663 c 1
 563.046 661 594.046 658 638.046 658 c 0
 684.046 658 701.046 661 747.046 663 c 1
 750.046 658 752.046 645 747.046 634 c 1
 735.046 634 676.046 626 669.046 614 c 0
 660.046 599 659.046 584 659.046 546 c 2
 659.046 139 l 2
 659.046 81 660.046 51 662.046 -1 c 1
 659.046 -4 647.046 -5 644.046 -5 c 0
 635.046 -5 621.046 4 611.046 18 c 2
 175.046 569 l 1
 175.046 115 l 2
 175.046 79 175.046 62 185.046 46 c 0
 191.046 36 245.046 26 261.046 26 c 1
 266.046 19 265.046 3 263.046 -3 c 1
 223.046 -1 192.046 2 148.046 2 c 0
 102.046 2 85.0459 -1 39.0459 -3 c 1
 36.0459 2 34.0459 15 39.0459 26 c 1
 51.0459 26 110.046 34 117.046 46 c 0
 126.046 61 127.046 76 127.046 114 c 2
 127.046 548 l 2
 127.046 586 126.046 601 117.046 616 c 0
 110.046 628 51.0459 636 39.0459 636 c 1
 34.0459 647 36.0459 660 39.0459 665 c 1
 85.0459 663 110.046 660 143.046 660 c 0
EndSplineSet
Substitution2: "'sinf' Scientific Inferiors lookup 5-1" N.sinf
Substitution2: "'sups' Superscript lookup 6-1" N.ssup
Substitution2: "'subs' Subscript lookup 1-1" N.subs
Substitution2: "'ordn' Ordinals lookup 0-1" N.ordn
EndChar

StartChar: O
Encoding: 79 79 46
Width: 748
Flags: HW
HStem: -10 37<308.874 469.033> 630 37<277.613 437.715>
VStem: 49 99<214.231 447.375> 600 99<209.819 443.304>
LayerCount: 2
Fore
SplineSet
358 630 m 4
 208 630 148 484 148 350 c 4
 148 195 234 27 389 27 c 4
 539 27 600 174 600 309 c 4
 600 464 513 630 358 630 c 4
373 667 m 4
 549 667 699 527 699 328 c 4
 699 141 549 -10 373 -10 c 4
 197 -10 49 130 49 328 c 4
 49 515 197 667 373 667 c 4
EndSplineSet
Substitution2: "'sinf' Scientific Inferiors lookup 5-1" O.sinf
Substitution2: "'sups' Superscript lookup 6-1" O.ssup
Substitution2: "'subs' Subscript lookup 1-1" O.subs
Substitution2: "'ordn' Ordinals lookup 0-1" O.ordn
EndChar

StartChar: P
Encoding: 80 80 47
Width: 548
Flags: HW
HStem: -3 29<42.7891 113.638 212.134 282.982> 275 34<249.905 353.041> 624 35<211.595 345.253> 633 29<42.7891 113.638>
VStem: 119.386 87<32.7426 613.422> 426.386 92<388.223 553.605>
LayerCount: 2
Fore
SplineSet
518.386 486 m 0xec
 518.386 364 431 275 300 275 c 0
 287 275 265 281 257 286 c 0
 254 288 239.386 300 239.386 305 c 0
 239.386 309 242.386 312 244.386 313 c 1
 255.386 310 266.386 309 281.386 309 c 0
 361.386 309 426.386 362 426.386 462 c 0
 426.386 561 372.386 624 261.386 624 c 0xec
 249.386 624 215.386 623 211.386 614 c 0
 206.386 602 206.386 569 206.386 539 c 2
 206.386 116 l 2
 206.386 86 206.386 58 211.386 42 c 0
 214.386 31 268.386 26 280.386 26 c 1
 284.386 21 285.386 2 280.386 -3 c 1
 239.386 -1 202.386 2 163.386 2 c 0
 124.386 2 86.3857 -1 45.3857 -3 c 1
 40.3857 2 41.3857 21 45.3857 26 c 1
 57.3857 26 111.386 31 114.386 42 c 0
 119.386 58 119.386 86 119.386 116 c 2
 119.386 543 l 2
 119.386 573 119.386 601 114.386 617 c 0
 111.386 628 57.3857 633 45.3857 633 c 1
 41.3857 638 40.3857 657 45.3857 662 c 1xdc
 86.3857 660 127.386 657 166.386 657 c 0
 205.386 657 249.386 659 308.386 659 c 0
 399.386 659 518.386 602 518.386 486 c 0xec
EndSplineSet
Substitution2: "'sinf' Scientific Inferiors lookup 5-1" P.sinf
Substitution2: "'sups' Superscript lookup 6-1" P.ssup
Substitution2: "'subs' Subscript lookup 1-1" P.subs
Substitution2: "'ordn' Ordinals lookup 0-1" P.ordn
EndChar

StartChar: Q
Encoding: 81 81 48
Width: 747
Flags: HW
HStem: -136 55<579.579 714.391> 630 37<277.613 437.715>
VStem: 49 99<215.615 447.375> 600 99<206.994 443.304>
LayerCount: 2
Fore
SplineSet
373 667 m 0
 549 667 699 527 699 328 c 0
 699 175 599 46 466 4 c 1
 562 -42 582 -81 685 -81 c 0
 725 -81 749 -77 756 -75 c 1
 762.551 -75 771.112 -77.6816 774 -81.9473 c 0
 774.639 -82.8916 775 -83.9131 775 -85 c 1
 720 -114 670 -136 609 -136 c 0
 502 -136 423 -33 293 0 c 0
 154 35 49 161 49 328 c 0
 49 515 197 667 373 667 c 0
358 630 m 0
 208 630 148 484 148 350 c 0
 148 195 234 27 389 27 c 0
 539 27 600 174 600 309 c 0
 600 464 513 630 358 630 c 0
EndSplineSet
Substitution2: "'sinf' Scientific Inferiors lookup 5-1" Q.sinf
Substitution2: "'sups' Superscript lookup 6-1" Q.ssup
Substitution2: "'subs' Subscript lookup 1-1" Q.subs
Substitution2: "'ordn' Ordinals lookup 0-1" Q.ordn
EndChar

StartChar: R
Encoding: 82 82 49
Width: 621
Flags: HW
HStem: -3 29<42.7891 113.638 212.134 282.982 586.951 647.168> 302 31<206.386 289.384> 624 35<211.595 338.725> 633 29<42.7891 113.638>
VStem: 119.386 87<32.7426 302 333 613.422> 416.386 92<415.593 556.308>
LayerCount: 2
Fore
SplineSet
308.386 659 m 4xec
 399.386 659 508.386 600 508.386 486 c 4
 508.386 414 439.386 350 370.386 325 c 5
 423.386 237 467.386 173 533.386 86 c 4
 562.386 48 591.386 30 646.386 26 c 5
 651.386 21 646.386 -1 645.386 -3 c 5
 578.386 -3 533.386 2 513.386 9 c 4
 499.386 14 472.386 22 448.386 53 c 4
 433.386 73 352.386 192 289.386 290 c 4
 283.386 299 273.386 302 259.386 302 c 4
 259.386 302 215.386 302 206.386 302 c 5
 206.386 229 206.386 116 206.386 116 c 5
 206.386 86 206.386 58 211.386 42 c 4
 214.386 31 268.386 26 280.386 26 c 5
 284.386 21 285.386 2 280.386 -3 c 5
 239.386 -1 202.386 2 163.386 2 c 4
 124.386 2 86.3857 -1 45.3857 -3 c 5
 40.3857 2 41.3857 21 45.3857 26 c 5
 57.3857 26 111.386 31 114.386 42 c 4
 119.386 58 119.386 86 119.386 116 c 6
 119.386 543 l 6
 119.386 573 119.386 601 114.386 617 c 4
 111.386 628 57.3857 633 45.3857 633 c 5
 41.3857 638 40.3857 657 45.3857 662 c 5xdc
 86.3857 660 127.386 657 166.386 657 c 4
 205.386 657 249.386 659 308.386 659 c 4xec
416.386 462 m 4
 416.386 551 372.386 624 261.386 624 c 4xec
 249.386 624 215.386 623 211.386 614 c 4
 206.386 602 206.386 569 206.386 539 c 6
 206.386 333 l 5
 206.386 333 239.386 333 260.386 333 c 20
 345.386 333 416.386 385 416.386 462 c 4
EndSplineSet
Substitution2: "'sinf' Scientific Inferiors lookup 5-1" R.sinf
Substitution2: "'sups' Superscript lookup 6-1" R.ssup
Substitution2: "'subs' Subscript lookup 1-1" R.subs
Substitution2: "'ordn' Ordinals lookup 0-1" R.ordn
EndChar

StartChar: S
Encoding: 83 83 50
Width: 502
Flags: HW
HStem: -10 37<172.319 317.85> 629 37<186.66 315.265>
VStem: 49 37<119.655 183.84> 65 80<454.853 570.984> 372 87<89.4127 213.651>
LayerCount: 2
Fore
SplineSet
261 666 m 0xd8
 323 666 346 653 412 638 c 1
 420 586 422 522 424 495 c 0
 424.517 488.019 417 488 414 488 c 0
 410 488 390 488 388 498 c 0
 382 548 333 629 254 629 c 0
 166 629 145 569 145 521 c 0xd8
 145 441 219 408 285 366 c 0
 351 324 459 272 459 173 c 0
 459 63 357 -10 250 -10 c 0
 182 -10 119 9 70 19 c 1
 58 78 49 162 49 174 c 1
 51 178 70 186 77 186 c 0
 82 186 84.8906 182.27 86 177 c 0xe8
 94 139 120 27 252 27 c 0
 314 27 372 68 372 146 c 0
 372 229 308 250 239 290 c 0
 162 335 65 389 65 490 c 0
 65 596 161 666 261 666 c 0xd8
EndSplineSet
Substitution2: "'sinf' Scientific Inferiors lookup 5-1" S.sinf
Substitution2: "'sups' Superscript lookup 6-1" S.ssup
Substitution2: "'subs' Subscript lookup 1-1" S.subs
Substitution2: "'ordn' Ordinals lookup 0-1" S.ordn
EndChar

StartChar: T
Encoding: 84 84 51
Width: 626
Flags: HW
HStem: -3 29<193.404 264.252 362.748 433.596> 624 37<94.4258 270 357 530.638>
VStem: 12 34<499.671 557.649> 270 87<32.7426 624> 579 34<499.671 557.649>
LayerCount: 2
Fore
SplineSet
508 661 m 0
 524 661 556 670 568 676 c 0
 578 681 581 681 587 678 c 1
 594 617 602 559 613 506 c 1
 610 503 602 498 593 499 c 0
 588 499 581 501 579 504 c 1
 565 574 534 624 484 624 c 2
 357 624 l 1
 357 116 l 2
 357 86 357 58 362 42 c 0
 365 31 419 26 431 26 c 1
 435 21 436 2 431 -3 c 1
 390 -1 353 2 314 2 c 0
 275 2 237 -1 196 -3 c 1
 191 2 192 21 196 26 c 1
 208 26 262 31 265 42 c 0
 270 58 270 86 270 116 c 2
 270 624 l 1
 141 624 l 2
 91 624 60 574 46 504 c 1
 44 501 37 499 32 499 c 0
 23 498 15 503 12 506 c 1
 23 559 31 617 38 678 c 1
 44 681 55 678 61 675 c 0
 73 669 101 661 117 661 c 0
 204 661 415 661 508 661 c 0
EndSplineSet
Substitution2: "'sinf' Scientific Inferiors lookup 5-1" T.sinf
Substitution2: "'sups' Superscript lookup 6-1" T.ssup
Substitution2: "'subs' Subscript lookup 1-1" T.subs
Substitution2: "'ordn' Ordinals lookup 0-1" T.ordn
EndChar

StartChar: U
Encoding: 85 85 52
Width: 723
Flags: HW
HStem: -4 58<281.404 476.232> 633 29<26.7891 97.6369 196.134 266.982 485.795 554.648 634.149 708.374>
VStem: 103.386 87<158.243 626.257> 570.386 48<156.61 613.249>
LayerCount: 2
Fore
SplineSet
147.386 657 m 4
 186.386 657 223.386 660 264.386 662 c 5
 269.386 657 268.386 638 264.386 633 c 5
 252.386 633 198.386 628 195.386 617 c 4
 190.386 601 190.386 573 190.386 543 c 6
 190.386 296 l 6
 190.386 212.72 207.198 151.858 239.282 112 c 4
 270.766 72.8877 316.953 54 376.386 54 c 4
 479.386 54 567.386 102 570.386 274 c 6
 570.386 545 l 6
 570.386 581 570.386 598 560.386 614 c 4
 554.386 624 504.386 634 488.386 634 c 5
 483.386 641 484.386 657 486.386 663 c 5
 526.386 661 553.386 658 597.386 658 c 4
 643.386 658 660.386 661 706.386 663 c 5
 709.386 658 711.386 645 706.386 634 c 5
 694.386 634 635.386 626 628.386 614 c 4
 619.386 599 618.386 584 618.386 546 c 6
 618.386 276 l 6
 618.386 76 511.386 -4 355.386 -4 c 4
 283.356 -4 221.41 19.5293 176.962 62 c 4
 130.696 106.205 103.386 170.929 103.386 251 c 6
 103.386 543 l 6
 103.386 573 103.386 601 98.3857 617 c 4
 95.3857 628 41.3857 633 29.3857 633 c 5
 25.3857 638 24.3857 657 29.3857 662 c 5
 70.3857 660 108.386 657 147.386 657 c 4
EndSplineSet
Substitution2: "'sinf' Scientific Inferiors lookup 5-1" U.sinf
Substitution2: "'sups' Superscript lookup 6-1" U.ssup
Substitution2: "'subs' Subscript lookup 1-1" U.subs
Substitution2: "'ordn' Ordinals lookup 0-1" U.ordn
EndChar

StartChar: V
Encoding: 86 86 53
Width: 638
Flags: HW
HStem: -2 21G<301.5 310> 633 29<-7.7524 47.578 181.704 234.288 444.574 498.257 600.396 652.077>
LayerCount: 2
Fore
SplineSet
109.5 657 m 0
 153.5 657 193.5 660 233.5 662 c 1
 235.5 656 235.5 634 231.5 633 c 1
 223.5 633 171.5 628 171.5 600 c 0
 171.5 590.443 176.778 565.907 189.153 532 c 0
 222 442 331 140 334 131.842 c 1
 340 145 435 370 495.5 524 c 16
 504.5 547 513.5 576 513.5 594 c 0
 513.5 626 459.5 633 447.5 633 c 1
 442.5 635 442.5 657 447.5 662 c 1
 484.5 660 516.5 657 553.5 657 c 0
 599.5 657 611.5 660 651.5 662 c 1
 654.5 657 652.5 633 649.5 633 c 1
 641.5 633 602.5 627 585.5 607 c 0
 573.5 593 550.5 544 535.5 506 c 0
 462.5 322 419.5 218 341.5 32 c 0
 330.5 5 316.5 -2 303.5 -2 c 0
 299.5 -2 295.5 10 293.5 14 c 0
 225.5 192 178.5 322 103.5 514 c 0
 88.5 553 74.5 584 57.5 610 c 0
 46.5 626 5.5 633 -6.5 633 c 1
 -8.5 633 -8.5 660 -6.5 662 c 1
 39.5 660 63.5 657 109.5 657 c 0
EndSplineSet
Substitution2: "'sinf' Scientific Inferiors lookup 5-1" V.sinf
Substitution2: "'sups' Superscript lookup 6-1" V.ssup
Substitution2: "'subs' Subscript lookup 1-1" V.subs
Substitution2: "'ordn' Ordinals lookup 0-1" V.ordn
EndChar

StartChar: W
Encoding: 87 87 54
Width: 900
Flags: HW
HStem: -2 21G<257.5 266 619.5 628> 633 29<-5.75244 45.7641 173.704 226.288 698.574 753.71 860 908.077>
LayerCount: 2
Fore
SplineSet
117.5 657 m 0
 161.5 657 185.5 660 225.5 662 c 1
 227.5 656 227.5 634 223.5 633 c 1
 215.5 633 163.5 628 163.5 600 c 1
 163.5 593.495 169.183 570.027 178.714 535 c 0
 201.416 451.571 250.446 294.565 292 153 c 1
 339 308 408 531 437.5 629 c 0
 443.243 648.079 462.5 662 473.5 662 c 0
 477.5 662 480.5 657 485.5 646 c 1
 492.5 624 586 350 653 151 c 1
 696 304 720.5 383 757.5 524 c 0
 763.5 548 769.5 576 769.5 594 c 0
 769.5 626 713.5 633 701.5 633 c 1
 696.5 635 696.5 657 701.5 662 c 1
 738.5 660 772.5 657 809.5 657 c 0
 855.5 657 867.5 660 907.5 662 c 1
 910.5 657 908.5 633 905.5 633 c 1
 897.5 633 861.5 624 841.5 607 c 0
 827.5 595 817.5 572 805.5 531 c 0
 750.5 342 712.5 211 659.5 32 c 0
 654.5 14 634.5 -2 621.5 -2 c 0
 617.5 -2 612.5 10 611.5 14 c 0
 548.5 202 512 307 445 502 c 1
 389 318 350.5 209 297.5 32 c 0
 292.5 14 272.5 -2 259.5 -2 c 0
 255.5 -2 250.5 10 249.5 14 c 0
 191.5 199 150.5 335 89.5 532 c 0
 77.5 572 72.5 595 53.5 613 c 0
 39.5 626 7.5 633 -4.5 633 c 1
 -6.5 633 -6.5 660 -4.5 662 c 1
 41.5 660 71.5 657 117.5 657 c 0
EndSplineSet
Substitution2: "'sinf' Scientific Inferiors lookup 5-1" W.sinf
Substitution2: "'sups' Superscript lookup 6-1" W.ssup
Substitution2: "'subs' Subscript lookup 1-1" W.subs
Substitution2: "'ordn' Ordinals lookup 0-1" W.ordn
EndChar

StartChar: X
Encoding: 88 88 55
Width: 668
Flags: HW
HStem: -3 29<-7.68513 59.0766 159.467 228.648 416.457 467.963 601.511 669.318> 633 29<31.4567 86.9706 234.45 288.43 429.249 493.53 591.89 648.663>
LayerCount: 2
Fore
SplineSet
159.27 657 m 0
 208.27 657 247.27 660 287.27 662 c 1
 289.27 656 290.27 633 285.27 633 c 0
 271.27 633 225.27 627 225.27 601 c 0
 225.27 593 229.27 583 237.27 571 c 2
 354.27 392 l 1
 414.27 472 481.27 564 496.27 592 c 0
 497.27 595 501.27 602 501.27 608 c 0
 501.27 614 488.27 632 432.27 632 c 1
 428.27 633 427.27 654 430.27 661 c 1
 470.27 658 500.27 656 537.27 656 c 0
 589.27 656 623.27 659 647.27 661 c 1
 650.27 656 651.27 638 645.27 632 c 1
 637.27 632 585.27 628 557.27 592 c 0
 481.27 495 447.27 457 375.27 361 c 1
 569.27 66 l 2
 588.27 37 634.27 26 667.27 26 c 1
 671.27 21 669.27 -1 668.27 -3 c 1
 628.27 -1 606.27 2 565.27 2 c 0
 509.27 2 475.27 -1 419.27 -3 c 1
 414.27 2 414.27 26 419.27 26 c 0
 430.27 26 477.27 35 477.27 54 c 0
 477.27 57 474.27 63 472.27 66 c 2
 320.27 300 l 1
 260.27 220 171.27 94 156.27 66 c 0
 155.27 63 151.27 56 151.27 50 c 0
 151.27 44 170.27 26 226.27 26 c 1
 230.27 20 230.27 0 228.27 -3 c 1
 191.27 -1 152.27 2 115.27 2 c 0
 63.2695 2 32.2695 -1 -7.73047 -3 c 1
 -10.7305 3 -7.73047 23 -5.73047 26 c 1
 2.26953 26 67.2695 30 95.2695 66 c 0
 171.27 163 225.27 236 297.27 332 c 1
 258.27 392 156.27 548 156.27 548 c 2
 133.27 584 118.27 601 90.2695 617 c 0
 73.2695 627 46.2695 633 34.2695 633 c 0
 29.2695 633 29.2695 657 34.2695 662 c 1
 83.2695 660 110.27 657 159.27 657 c 0
EndSplineSet
Substitution2: "'sinf' Scientific Inferiors lookup 5-1" X.sinf
Substitution2: "'sups' Superscript lookup 6-1" X.ssup
Substitution2: "'subs' Subscript lookup 1-1" X.subs
Substitution2: "'ordn' Ordinals lookup 0-1" X.ordn
EndChar

StartChar: Y
Encoding: 89 89 56
Width: 598
Flags: HW
HStem: -3 29<184.154 255.002 353.498 424.346> 633 29<-13.0625 42.4514 189.931 243.911 389.478 454.858 541.74 603.225>
VStem: 260.75 87<32.7426 318.719>
LayerCount: 2
Fore
SplineSet
260.75 116 m 6
 260.75 267 l 4
 260.75 274 259 285 253.75 295 c 20
 195.75 400 170.75 442 111.75 548 c 4
 90.75 585 73.75 601 45.75 617 c 4
 28.75 627 1.75 633 -10.25 633 c 4
 -15.25 633 -15.25 657 -10.25 662 c 5
 38.75 660 65.75 657 114.75 657 c 4
 163.75 657 202.75 660 242.75 662 c 5
 244.75 656 245.75 633 240.75 633 c 4
 226.75 633 180.75 627 180.75 601 c 4
 180.75 593 185 584 192.75 571 c 6
 330 335 l 5
 379 423 449.75 561 461.75 592 c 4
 462.75 595 464.75 601 464.75 607 c 4
 464.75 613 447.75 632 391.75 632 c 5
 388.75 632 387.75 658 389.75 661 c 5
 426.75 659 455.75 656 492.75 656 c 4
 544.75 656 562.75 659 602.75 661 c 5
 605 655 603.75 632 600.75 632 c 5
 592.75 632 535.75 632 512.75 592 c 4
 474.75 525 396.75 381 353.75 301 c 12
 348 290 348.75 279 348.75 270 c 4
 348.75 210 347.75 116 347.75 116 c 6
 347.75 86 347.75 58 352.75 42 c 4
 355.75 31 409.75 26 421.75 26 c 5
 425.75 21 426.75 2 421.75 -3 c 5
 380.75 -1 343.75 2 304.75 2 c 4
 265.75 2 227.75 -1 186.75 -3 c 5
 181.75 2 182.75 21 186.75 26 c 5
 198.75 26 252.75 31 255.75 42 c 4
 260.75 58 260.75 86 260.75 116 c 6
EndSplineSet
Substitution2: "'sinf' Scientific Inferiors lookup 5-1" Y.sinf
Substitution2: "'sups' Superscript lookup 6-1" Y.ssup
Substitution2: "'subs' Subscript lookup 1-1" Y.subs
Substitution2: "'ordn' Ordinals lookup 0-1" Y.ordn
EndChar

StartChar: Z
Encoding: 90 90 57
Width: 633
Flags: HW
HStem: 0 37<156.95 487.392> 624 37<153.616 459.743> 649 20G<72.7894 86.2894 519.79 563.79>
VStem: 42.7894 37<488.927 540.301>
LayerCount: 2
Fore
SplineSet
215.79 624 m 2xd0
 147.949 624 101.789 574 79.7891 492 c 1
 77.7891 489 73.7891 488 68.7891 488 c 0
 59.7891 488 45.7891 493 42.7891 496 c 1
 59.7891 542 69.7891 601 75.7891 669 c 1xb0
 96.7891 666 130.79 661 157.79 661 c 0
 246.79 661 351.79 661 351.79 661 c 2xd0
 435.79 661 477.79 665 561.79 671 c 1
 565.79 670 579.79 657 579.79 649 c 1xb0
 577.79 641 156.949 37 156.949 37 c 25
 417.79 37 l 2
 460.604 37 489.928 52.2266 510.949 73.5811 c 0
 539.598 102.681 552.832 143.162 563.79 172 c 0
 564.79 174 572.79 175 577.79 175 c 0
 587.79 175 597.79 170 601.79 166 c 1
 577.79 87 565.949 51 553.949 0 c 1
 553.949 0 245.79 0 52.7891 0 c 0
 41.7891 0 30.9492 8 34.7891 14 c 2
 459.79 624 l 1
 215.79 624 l 2xd0
EndSplineSet
Substitution2: "'sinf' Scientific Inferiors lookup 5-1" Z.sinf
Substitution2: "'sups' Superscript lookup 6-1" Z.ssup
Substitution2: "'subs' Subscript lookup 1-1" Z.subs
Substitution2: "'ordn' Ordinals lookup 0-1" Z.ordn
EndChar

StartChar: bracketleft
Encoding: 91 91 58
Width: 259
Flags: HW
HStem: -144 25<195.153 253.583> 699 25<195.153 253.583>
VStem: 79 48<-98.9827 678.983>
LayerCount: 2
Fore
SplineSet
98 718 m 0
 180 718 251 724 251 724 c 1
 251 724 254 721 254 715 c 0
 254 709 250 701 244 699 c 0
 206 686 127 676 127 676 c 1
 127 -96 l 1
 127 -96 206 -106 244 -119 c 0
 250 -121 254 -129 254 -135 c 0
 254 -141 251 -144 251 -144 c 1
 251 -144 180 -138 98 -138 c 0
 80 -138 79 -116 79 -115 c 2
 79 695 l 2
 79 696 80 718 98 718 c 0
EndSplineSet
Substitution2: "'sinf' Scientific Inferiors lookup 5-1" bracketleft.sinf
Substitution2: "'sups' Superscript lookup 6-1" bracketleft.ssup
Substitution2: "'smcp' Lowercase to Small Capitals lookup 2-1" bracketleft.sc
Substitution2: "'subs' Subscript lookup 1-1" bracketleft.subs
Substitution2: "'ordn' Ordinals lookup 0-1" bracketleft.ordn
EndChar

StartChar: backslash
Encoding: 92 92 59
Width: 401
Flags: HW
VStem: 31 338
LayerCount: 2
Fore
SplineSet
31 750 m 1
 34 755 44 757 51 757 c 0
 62 757 76 749 79 741 c 2
 79 741 369 -11 369 -17 c 1
 368 -21 358 -28 346 -28 c 0
 339 -28 328 -21 325 -14 c 0
 214 275 119 524 31 750 c 1
EndSplineSet
Substitution2: "'sinf' Scientific Inferiors lookup 5-1" backslash.sinf
Substitution2: "'sups' Superscript lookup 6-1" backslash.ssup
Substitution2: "'smcp' Lowercase to Small Capitals lookup 2-1" backslash.sc
Substitution2: "'subs' Subscript lookup 1-1" backslash.subs
Substitution2: "'ordn' Ordinals lookup 0-1" backslash.ordn
EndChar

StartChar: bracketright
Encoding: 93 93 60
Width: 260
Flags: HW
HStem: -144 25<6.41714 64.8474> 699 25<6.41714 64.8474>
VStem: 133 48<-98.9827 678.983>
LayerCount: 2
Fore
SplineSet
162 718 m 0
 180 718 181 696 181 695 c 2
 181 -115 l 2
 181 -116 180 -138 162 -138 c 0
 80 -138 9 -144 9 -144 c 1
 9 -144 6 -141 6 -135 c 0
 6 -129 10 -121 16 -119 c 0
 54 -106 133 -96 133 -96 c 1
 133 676 l 1
 133 676 54 686 16 699 c 0
 10 701 6 709 6 715 c 0
 6 721 9 724 9 724 c 1
 9 724 80 718 162 718 c 0
EndSplineSet
Substitution2: "'sinf' Scientific Inferiors lookup 5-1" bracketright.sinf
Substitution2: "'sups' Superscript lookup 6-1" bracketright.ssup
Substitution2: "'smcp' Lowercase to Small Capitals lookup 2-1" bracketright.sc
Substitution2: "'subs' Subscript lookup 1-1" bracketright.subs
Substitution2: "'ordn' Ordinals lookup 0-1" bracketright.ordn
EndChar

StartChar: asciicircum
Encoding: 94 94 61
Width: 390
Flags: HW
HStem: 423 222
VStem: 61 250
LayerCount: 2
Fore
SplineSet
186 645 m 0
 191 645 198 640 202 632 c 0
 242 553 268 514 311 439 c 1
 311 429 302 423 296 423 c 1
 250 471 186 552 186 552 c 25
 186 552 123 471 77 423 c 1
 71 423 61 429 61 439 c 1
 104 514 131 553 171 632 c 0
 175 640 181 645 186 645 c 0
EndSplineSet
Substitution2: "'smcp' Lowercase to Small Capitals lookup 2-1" asciicircum.sc
EndChar

StartChar: underscore
Encoding: 95 95 62
Width: 505
Flags: HW
HStem: -43 56<17.9907 476.32>
LayerCount: 2
Fore
SplineSet
14 -33 m 1
 14 -33 19 13 29 13 c 2
 478 13 l 2
 480 13 482 12 482 8 c 0
 482 -1 478 -15 472 -37 c 0
 470 -43 466 -43 466 -43 c 1
 21 -43 l 1
 21 -43 14 -43 14 -33 c 1
EndSplineSet
EndChar

StartChar: grave
Encoding: 96 96 63
Width: 342
Flags: HW
HStem: 527 160
VStem: 107 168
LayerCount: 2
Fore
SplineSet
107 663 m 0
 107 668 113 687 148 687 c 0
 162 687 177 683 182 678 c 0
 219 635 275 545 275 540 c 0
 275 534 270 527 263 527 c 0
 253 527 107 624 107 663 c 0
EndSplineSet
EndChar

StartChar: a
Encoding: 97 97 64
Width: 431
Flags: HW
HStem: -8 54<138.481 211.996 323.5 388.237> 398 38<158.777 269.5>
VStem: 37 83<64.4927 166.568> 52 81<294.824 353.758> 274 76<67.9015 223 245.918 361.958>
LayerCount: 2
Fore
SplineSet
187 46 m 0xe8
 222 46 274 77 274 87 c 2
 274 223 l 17
 247 215 199 201 181 194 c 0
 145 180 120 154 120 116 c 0
 120 79 149 46 187 46 c 0xe8
241 436 m 0
 298 436 350 376 350 299 c 2
 350 93 l 2
 350 66 358 46 381 46 c 0
 399 46 411 57 414 59 c 1
 417 59 418 54 418 51 c 0
 418 45 416 37 413 32 c 1
 401 21 359 -6 338 -6 c 0
 309 -6 283 28 277 59 c 1
 265 47 189 -8 154 -8 c 0
 88 -8 37 42 37 107 c 0xe8
 37 148 65 179 87 187 c 0
 143 207 233 237 262 250 c 0
 272 254 274 257 274 275 c 2
 274 302 l 2
 274 347 237 398 188 398 c 0
 153 398 140 375 133 336 c 0
 127 302 111 288 86 288 c 0
 65 288 52 310 52 330 c 0xd8
 52 334 55 349 59 354 c 1
 90 383 168 436 241 436 c 0
EndSplineSet
Substitution2: "'sinf' Scientific Inferiors lookup 5-1" a.sinf
Substitution2: "'sups' Superscript lookup 6-1" a.ssup
Substitution2: "'smcp' Lowercase to Small Capitals lookup 2-1" a.sc
Substitution2: "'subs' Subscript lookup 1-1" a.subs
Substitution2: "'ordn' Ordinals lookup 0-1" a.ordn
EndChar

StartChar: b
Encoding: 98 98 65
Width: 498
Flags: HW
HStem: -7 34<183.328 294.138> 379 5<154.393 227.393> 628 26<4.29155 62.2211> 674 20G<127.393 150.893>
VStem: 71.393 77<53.1875 351.859 383.777 621.593> 374.393 84<134.316 299.421>
LayerCount: 2
Fore
SplineSet
211.394 -7 m 0
 196.394 -7 158.394 2 137.394 8 c 0
 115.394 14 95.3926 22 72.3926 14 c 1
 67.3926 14 59.3926 31 59.3926 36 c 1
 68.3926 56 71.3926 90 71.3926 110 c 2
 71.3926 558 l 2
 71.3926 571 71.3926 598 66.3926 610 c 0
 60.3926 624 33.3926 628 5.39258 628 c 1
 4.39258 628 2.39258 653 6.39258 654 c 1
 56.3926 659 106.394 675 148.394 694 c 1
 153.394 694 159.394 685 159.394 678 c 1
 159.394 678 148.394 646 148.394 591 c 2
 148.394 394 l 2
 148.394 389 148.394 379 154.394 384 c 0
 169.394 395 237.394 438 275.394 438 c 0
 395.394 438 458.394 324 458.394 233 c 0
 458.394 102 353.394 -7 211.394 -7 c 0
227.394 379 m 0
 201.394 379 162.394 361 153.394 352 c 0
 150.394 349 148.394 346 148.394 341 c 2
 148.394 98 l 2
 148.394 55 197.394 27 241.394 27 c 0
 313.394 27 374.394 113 374.394 194 c 0
 374.394 310 316.394 379 227.394 379 c 0
EndSplineSet
Substitution2: "'sinf' Scientific Inferiors lookup 5-1" b.sinf
Substitution2: "'sups' Superscript lookup 6-1" b.ssup
Substitution2: "'smcp' Lowercase to Small Capitals lookup 2-1" b.sc
Substitution2: "'subs' Subscript lookup 1-1" b.subs
Substitution2: "'ordn' Ordinals lookup 0-1" b.ordn
EndChar

StartChar: c
Encoding: 99 99 66
Width: 423
Flags: HW
HStem: -8 66<191.945 321.563> 394 44<193.28 290.075>
VStem: 39 78<132.251 288.818>
LayerCount: 2
Fore
SplineSet
382 386 m 0
 382 350 361 338 344 338 c 1
 322 338 303 364 286 375 c 0
 265 389 255 394 229 394 c 0
 176 394 117 332 117 227 c 0
 117 110 189 58 279 58 c 0
 334 58 372 94 385 109 c 1
 386 109 393 103 393 95 c 0
 393 90 390 82 387 77 c 0
 369 48 319 -8 241 -8 c 0
 120 -8 39 90 39 194 c 0
 39 340 178 438 282 438 c 0
 317 438 348 430 372 414 c 1
 376 410 382 396 382 386 c 0
EndSplineSet
Substitution2: "'sinf' Scientific Inferiors lookup 5-1" c.sinf
Substitution2: "'sups' Superscript lookup 6-1" c.ssup
Substitution2: "'smcp' Lowercase to Small Capitals lookup 2-1" c.sc
Substitution2: "'subs' Subscript lookup 1-1" c.subs
Substitution2: "'ordn' Ordinals lookup 0-1" c.ordn
EndChar

StartChar: d
Encoding: 100 100 67
Width: 515
Flags: HW
HStem: -8 62<192.397 289.897> 20 27<438.72 496.784> 396 42<196.789 327.598> 628 26<283.899 341.828> 674 20G<407 430.5>
VStem: 39 84<130.201 291.813> 351 77<70.6579 374.572 428.007 621.593>
LayerCount: 2
Fore
SplineSet
277 438 m 0xbe
 298 438 336 432 346 428 c 1
 350 428 351 437 351 449 c 2
 351 558 l 2
 351 572 351 598 346 610 c 0
 340 624 313 628 285 628 c 1
 284 628 282 653 286 654 c 1
 336 659 386 675 428 694 c 1
 433 694 439 685 439 678 c 1
 439 678 428 646 428 591 c 2
 428 163 l 2
 428 124 429 79 435 65 c 0
 443 47 491 48 494 47 c 0
 496 46 497 38 497 35 c 0
 497 33 494 20 489 20 c 0x7e
 437 17 360 -8 359 -8 c 0
 353 -8 351 4 351 11 c 2
 351 46 l 2
 351 51 350 54 348 52 c 0
 333 36 263 -8 215 -8 c 0
 124 -8 39 84 39 206 c 0
 39 337 187 438 277 438 c 0xbe
245 396 m 0
 169 396 123 314 123 230 c 0
 123 136 173 54 264 54 c 0xbe
 309 54 351 78 351 94 c 2
 351 347 l 2
 351 370 301 396 245 396 c 0
EndSplineSet
Substitution2: "'sinf' Scientific Inferiors lookup 5-1" d.sinf
Substitution2: "'sups' Superscript lookup 6-1" d.ssup
Substitution2: "'smcp' Lowercase to Small Capitals lookup 2-1" d.sc
Substitution2: "'subs' Subscript lookup 1-1" d.subs
Substitution2: "'ordn' Ordinals lookup 0-1" d.ordn
EndChar

StartChar: e
Encoding: 101 101 68
Width: 430
Flags: HW
HStem: -8 64<192.798 321.098> 248 37<116 301.487> 402 36<172.002 264.878>
VStem: 40 71<142.672 248> 302 85<285.847 368.285>
LayerCount: 2
Fore
SplineSet
116 285 m 1
 125 285 269 285 279 285 c 0
 291 285 301 290 302 308 c 0
 303 332 281 402 220 402 c 0
 136 402 114 285 116 285 c 1
111 248 m 1
 108 120 186 56 274 56 c 0
 329 56 371 94 384 109 c 1
 385 109 392 103 392 95 c 0
 392 90 389 82 386 77 c 0
 368 48 318 -8 240 -8 c 0
 122 -8 40 82 40 200 c 0
 40 334 149 438 237 438 c 0
 357 438 387 342 387 302 c 0
 387 273 382 256 363 255 c 0
 332 253 123 248 111 248 c 1
EndSplineSet
Substitution2: "'sinf' Scientific Inferiors lookup 5-1" e.sinf
Substitution2: "'sups' Superscript lookup 6-1" e.ssup
Substitution2: "'smcp' Lowercase to Small Capitals lookup 2-1" e.sc
Substitution2: "'subs' Subscript lookup 1-1" e.subs
Substitution2: "'ordn' Ordinals lookup 0-1" e.ordn
EndChar

StartChar: f
Encoding: 102 102 69
Width: 308
Flags: HW
HStem: -3 29<25.7891 90.6752 179.121 247.982> 391 41<41.3483 96.3853 173.386 294.761> 637 60<215.495 300.805>
VStem: 96.3853 77<32.7426 391 432 545.43>
LayerCount: 2
Fore
SplineSet
269.386 697 m 0
 299.386 697 301.386 695 316.386 685 c 1
 320.386 681 326.386 667 326.386 657 c 0
 326.386 621 299.386 617 286.386 617 c 0
 276.386 617 268.386 622 257.386 628 c 0
 246.386 634 241.386 637 228.386 637 c 0
 197.386 637 172.386 605 173.386 543 c 2
 173.386 432 l 1
 291.386 432 l 2
 296.386 432 296.386 427 296.386 421 c 0
 296.386 412 291.386 400 282.386 391 c 1
 173.386 391 l 1
 173.386 116 l 2
 173.386 86 173.386 58 178.386 42 c 0
 181.386 31 233.386 26 245.386 26 c 1
 249.386 21 250.386 2 245.386 -3 c 1
 204.386 -1 173.386 2 134.386 2 c 0
 95.3857 2 69.3857 -1 28.3857 -3 c 1
 23.3857 2 24.3857 21 28.3857 26 c 1
 40.3857 26 88.3857 31 91.3857 42 c 0
 96.3857 58 96.3857 86 96.3857 116 c 2
 96.3857 391 l 1
 38.3857 391 l 2
 35.3857 391 33.3857 397 33.3857 400 c 0
 33.3857 404 58.3857 431 59.3857 432 c 1
 75.3857 432 85.3857 432 96.3857 432 c 1
 96.3857 443 96.3857 438 96.3857 438 c 2
 96.3857 583 208.386 697 269.386 697 c 0
EndSplineSet
Substitution2: "'sinf' Scientific Inferiors lookup 5-1" f.sinf
Substitution2: "'sups' Superscript lookup 6-1" f.ssup
Substitution2: "'smcp' Lowercase to Small Capitals lookup 2-1" f.sc
Substitution2: "'subs' Subscript lookup 1-1" f.subs
Substitution2: "'ordn' Ordinals lookup 0-1" f.ordn
EndChar

StartChar: g
Encoding: 103 103 70
Width: 466
Flags: HW
HStem: -227 39<157.618 295.19> -4 71<162.372 348.141> 137 30<177.303 264.226> 374 51<388.868 443.481> 409 30<171.516 260.162>
VStem: 23 79<-141.317 -60.5231> 50 77<74.2375 115.659 218.047 361.11> 308 77<216.006 366.022> 387 69<-102.937 -10>
LayerCount: 2
Fore
SplineSet
215 409 m 27xeb80
 158 409 127 349 127 292 c 27
 127 231 162 167 223 167 c 27
 278 167 308 226 308 281 c 27
 308 343 277 409 215 409 c 27xeb80
255 -4 m 0
 237 -4 169 -5 162 -9 c 0
 139 -22 102 -50 102 -76 c 0xe580
 102 -141 151 -188 236 -188 c 0
 305 -188 387 -136 387 -81 c 0
 387 -52 350 -4 255 -4 c 0
301 67 m 0
 380 67 456 18 456 -38 c 0
 456 -120 335 -226 196 -227 c 0
 115 -228 23 -187 23 -105 c 0xf580
 23 -61 95 -18 129 -1 c 1
 94 10 47 42 47 92 c 1
 64 112 115 149 133 160 c 1
 84 187 50 239 50 288 c 0
 50 367 123 439 219 439 c 0xeb80
 262 439 292 424 310 417 c 0
 329 410 324 412 333 410 c 1
 440 425 l 1
 447 423 450 419 450 415 c 0
 450 407 437 380 427 374 c 1xf380
 402 375 361 378 361 378 c 2
 358 378 357 377 357 375 c 1
 362 370 385 330 385 284 c 0
 385 214 312 137 216 137 c 0
 199 137 170 142 160 146 c 1
 142 136 123 118 123 102 c 0
 123 92 143 67 183 67 c 0
 249 67 257 67 301 67 c 0
EndSplineSet
Substitution2: "'sinf' Scientific Inferiors lookup 5-1" g.sinf
Substitution2: "'sups' Superscript lookup 6-1" g.ssup
Substitution2: "'smcp' Lowercase to Small Capitals lookup 2-1" g.sc
Substitution2: "'subs' Subscript lookup 1-1" g.subs
Substitution2: "'ordn' Ordinals lookup 0-1" g.ordn
EndChar

StartChar: h
Encoding: 104 104 71
Width: 516
Flags: HW
HStem: -3 29<18.7891 83.6752 172.096 236.982 288.79 353.676 442.096 506.982> 380 58<241.147 327.57> 628 26<22.284 80.2135> 674 20G<145.386 168.886>
VStem: 89.3853 77.0003<32.4189 347.537 363.001 621.593> 359.386 77<32.4189 346.845>
LayerCount: 2
Fore
SplineSet
307.386 438 m 0
 415.386 438 436.386 371 436.386 226 c 2
 436.386 116 l 2
 436.386 86 436.386 58 441.386 42 c 0
 444.386 31 492.386 26 504.386 26 c 1
 508.386 21 509.386 2 504.386 -3 c 1
 463.386 -1 436.386 2 397.386 2 c 0
 358.386 2 332.386 -1 291.386 -3 c 1
 286.386 2 287.386 21 291.386 26 c 1
 303.386 26 351.386 31 354.386 42 c 0
 359.386 58 359.386 86 359.386 116 c 2
 359.386 216 l 2
 359.386 340 339.386 380 261.386 380 c 0
 224.386 380 166.386 334 166.386 325 c 2
 166.386 116 l 2
 166.386 86 166.386 58 171.386 42 c 0
 174.386 31 222.386 26 234.386 26 c 1
 238.386 21 239.386 2 234.386 -3 c 1
 193.386 -1 166.386 2 127.386 2 c 0
 88.3857 2 62.3857 -1 21.3857 -3 c 1
 16.3857 2 17.3857 21 21.3857 26 c 1
 33.3857 26 81.3857 31 84.3857 42 c 0
 89.3857 58 89.3857 86 89.3857 116 c 2
 89.3857 558 l 2
 89.3857 571 89.3857 598 84.3857 610 c 0
 78.3857 624 51.3857 628 23.3857 628 c 1
 22.3857 628 20.3857 653 24.3857 654 c 1
 74.3857 659 124.386 675 166.386 694 c 1
 171.386 694 177.386 685 177.386 678 c 1
 177.386 678 166.386 646 166.386 591 c 2
 166.386 591 166.386 373 166.386 365 c 0
 166.386 364 167.386 363 169.386 363 c 0
 170.386 363 171.386 364 172.386 365 c 0
 192.386 387 259.386 438 307.386 438 c 0
EndSplineSet
Substitution2: "'sinf' Scientific Inferiors lookup 5-1" h.sinf
Substitution2: "'sups' Superscript lookup 6-1" h.ssup
Substitution2: "'smcp' Lowercase to Small Capitals lookup 2-1" h.sc
Substitution2: "'subs' Subscript lookup 1-1" h.subs
Substitution2: "'ordn' Ordinals lookup 0-1" h.ordn
EndChar

StartChar: i
Encoding: 105 105 72
Width: 270
Flags: HW
HStem: -3 29<33.7131 98.5992 187.02 251.906> 368 26<32.4906 93.7581> 416 20G<157.31 179.81> 543 100<93.747 176.872>
VStem: 85.3094 100<551.438 634.562> 104.31 77<32.4189 361.708>
LayerCount: 2
Fore
SplineSet
181.31 325 m 4xf4
 181.31 116 l 6
 181.31 86 181.31 58 186.31 42 c 4
 189.31 31 237.31 26 249.31 26 c 5
 253.31 21 254.31 2 249.31 -3 c 5
 208.31 -1 181.31 2 142.31 2 c 4
 103.31 2 77.3096 -1 36.3096 -3 c 5
 31.3096 2 32.3096 21 36.3096 26 c 5
 48.3096 26 96.3096 31 99.3096 42 c 4
 104.31 58 104.31 86 104.31 116 c 6
 104.31 298 l 6
 104.31 311 104.31 338 99.3096 350 c 4
 92.3096 367 41.3096 368 34.3096 368 c 5
 32.3096 370 30.3096 389 34.3096 394 c 5
 85.3096 401 137.31 415 177.31 436 c 5
 182.31 436 188.31 425 188.31 420 c 5
 187.31 413 181.31 368 181.31 358 c 6
 181.31 325 l 4xf4
85.3096 593 m 0xf8
 85.3096 621 107.31 643 135.31 643 c 0
 163.31 643 185.31 621 185.31 593 c 0
 185.31 565 163.31 543 135.31 543 c 0
 107.31 543 85.3096 565 85.3096 593 c 0xf8
EndSplineSet
Substitution2: "'sinf' Scientific Inferiors lookup 5-1" i.sinf
Substitution2: "'sups' Superscript lookup 6-1" i.ssup
Substitution2: "'smcp' Lowercase to Small Capitals lookup 2-1" i.sc
Substitution2: "'subs' Subscript lookup 1-1" i.subs
Substitution2: "'ordn' Ordinals lookup 0-1" i.ordn
EndChar

StartChar: j
Encoding: 106 106 73
Width: 239
Flags: HW
HStem: 368 26<19.9312 81.1985> 416 20G<144.75 167.25> 543 100<74.1875 157.312>
VStem: 65.75 100<551.438 634.562> 91.75 77<-68.5639 361.708>
LayerCount: 2
Fore
SplineSet
91.75 45 m 2xe8
 91.75 298 l 2
 91.75 311 91.75 338 86.75 350 c 0
 79.75 367 28.75 368 21.75 368 c 1
 19.75 370 17.75 389 21.75 394 c 1
 72.75 401 124.75 415 164.75 436 c 1
 169.75 436 175.75 425 175.75 420 c 1
 174.75 413 168.75 371 168.75 358 c 2
 168.75 324 l 0
 168.75 68 l 1
 168.75 -124 63.75 -203 -4.25 -231 c 1
 -9.25 -228 -15.25 -221 -17.25 -216 c 0
 -18.25 -214 -18.25 -210 -17.25 -209 c 1
 39.75 -168 91.75 -121 91.75 45 c 2xe8
65.75 593 m 0xf0
 65.75 621 87.75 643 115.75 643 c 0
 143.75 643 165.75 621 165.75 593 c 0
 165.75 565 143.75 543 115.75 543 c 0
 87.75 543 65.75 565 65.75 593 c 0xf0
EndSplineSet
Substitution2: "'sinf' Scientific Inferiors lookup 5-1" j.sinf
Substitution2: "'sups' Superscript lookup 6-1" j.ssup
Substitution2: "'smcp' Lowercase to Small Capitals lookup 2-1" j.sc
Substitution2: "'subs' Subscript lookup 1-1" j.subs
Substitution2: "'ordn' Ordinals lookup 0-1" j.ordn
EndChar

StartChar: k
Encoding: 107 107 74
Width: 518
Flags: HW
HStem: -3 29<18.7891 83.6752 172.096 236.982 441.885 512.891> 396 29<290.574 339.946 417.669 480.451> 628 26<22.284 80.2135> 674 20G<145.386 168.886>
VStem: 89.3853 77.0003<32.4189 204 235 621.593>
LayerCount: 2
Fore
SplineSet
166.386 116 m 2
 166.386 86 166.386 58 171.386 42 c 0
 174.386 31 222.386 26 234.386 26 c 1
 238.386 21 239.386 2 234.386 -3 c 1
 193.386 -1 166.386 2 127.386 2 c 0
 88.3857 2 62.3857 -1 21.3857 -3 c 1
 16.3857 2 17.3857 21 21.3857 26 c 1
 33.3857 26 81.3857 31 84.3857 42 c 0
 89.3857 58 89.3857 86 89.3857 116 c 2
 89.3857 558 l 2
 89.3857 572 89.3857 598 84.3857 610 c 0
 78.3857 624 51.3857 628 23.3857 628 c 1
 22.3857 628 20.3857 653 24.3857 654 c 1
 74.3857 659 124.386 675 166.386 694 c 1
 171.386 694 177.386 685 177.386 678 c 1
 177.386 678 166.386 646 166.386 591 c 2
 166.386 235 l 1
 183.386 241 214.386 267 248.386 296 c 0
 300.386 340 340.386 369 340.386 379 c 0
 340.386 394 301.386 395 292.386 396 c 1
 287.386 403 289.386 423 294.386 425 c 1
 323.386 422 358.386 420 390.386 420 c 0
 424.386 420 456.386 422 478.386 425 c 1
 482.386 419 481.386 400 478.386 396 c 1
 464.386 396 422.386 388 401.386 373 c 0
 390.386 365 298.386 299 239.386 249 c 1
 314.386 168 395.386 73 419.386 53 c 0
 445.386 32 485.386 25 511.386 26 c 1
 513.386 23 515.386 7 512.386 2 c 1
 505.386 -1 474.386 -4 447.386 -4 c 0
 388.386 -4 339.386 24 324.386 40 c 2
 324.386 40 238.386 133 181.386 195 c 0
 177.386 200 166.386 204 166.386 204 c 1
 166.386 116 l 2
EndSplineSet
Substitution2: "'sinf' Scientific Inferiors lookup 5-1" k.sinf
Substitution2: "'sups' Superscript lookup 6-1" k.ssup
Substitution2: "'smcp' Lowercase to Small Capitals lookup 2-1" k.sc
Substitution2: "'subs' Subscript lookup 1-1" k.subs
Substitution2: "'ordn' Ordinals lookup 0-1" k.ordn
EndChar

StartChar: l
Encoding: 108 108 75
Width: 255
Flags: HW
HStem: -3 29<18.7891 83.6752 172.096 236.982> 628 26<22.284 80.2135> 674 20G<145.386 168.886>
VStem: 89.3853 77.0003<32.4189 621.593>
LayerCount: 2
Fore
SplineSet
89.3857 558 m 6
 89.3857 572 89.3857 598 84.3857 610 c 4
 78.3857 624 51.3857 628 23.3857 628 c 5
 22.3857 628 20.3857 653 24.3857 654 c 5
 74.3857 659 124.386 675 166.386 694 c 5
 171.386 694 177.386 685 177.386 678 c 5
 177.386 678 166.386 646 166.386 591 c 6
 166.386 116 l 2
 166.386 86 166.386 58 171.386 42 c 0
 174.386 31 222.386 26 234.386 26 c 1
 238.386 21 239.386 2 234.386 -3 c 1
 193.386 -1 166.386 2 127.386 2 c 0
 88.3857 2 62.3857 -1 21.3857 -3 c 1
 16.3857 2 17.3857 21 21.3857 26 c 1
 33.3857 26 81.3857 31 84.3857 42 c 0
 89.3857 58 89.3857 86 89.3857 116 c 2
 89.3857 558 l 6
EndSplineSet
Substitution2: "'sinf' Scientific Inferiors lookup 5-1" l.sinf
Substitution2: "'sups' Superscript lookup 6-1" l.ssup
Substitution2: "'smcp' Lowercase to Small Capitals lookup 2-1" l.sc
Substitution2: "'subs' Subscript lookup 1-1" l.subs
Substitution2: "'ordn' Ordinals lookup 0-1" l.ordn
EndChar

StartChar: m
Encoding: 109 109 76
Width: 790
Flags: HW
HStem: -3 29<33.7131 98.5992 187.02 251.906 297.714 362.6 451.02 515.906 561.714 626.6 715.02 779.906> 368 26<32.4906 93.7581> 380 58<249.024 337.707 512.858 600.7>
VStem: 104.31 77<32.4189 351.547> 368.31 77<32.4189 347.073> 632.31 77<32.4189 348.119>
CounterMasks: 1 1c
LayerCount: 2
Fore
SplineSet
319.31 438 m 0xbc
 378.31 438 417.31 415 433.31 355 c 1
 477.31 395 532.31 438 580.31 438 c 0
 688.31 438 709.31 371 709.31 226 c 2
 709.31 116 l 2
 709.31 86 709.31 58 714.31 42 c 0
 717.31 31 765.31 26 777.31 26 c 1
 781.31 21 782.31 2 777.31 -3 c 1
 736.31 -1 709.31 2 670.31 2 c 0
 631.31 2 605.31 -1 564.31 -3 c 1
 559.31 2 560.31 21 564.31 26 c 1
 576.31 26 624.31 31 627.31 42 c 0
 632.31 58 632.31 86 632.31 116 c 2
 632.31 223 l 2
 632.31 322 619.31 380 538.31 380 c 0
 489.31 380 440.31 330 440.31 323 c 0
 440.31 322 441.31 312 441.31 310 c 0
 444.31 291 445.31 257 445.31 239 c 2
 445.31 116 l 2
 445.31 86 445.31 58 450.31 42 c 0
 453.31 31 501.31 26 513.31 26 c 1
 517.31 21 518.31 2 513.31 -3 c 1
 472.31 -1 445.31 2 406.31 2 c 0
 367.31 2 341.31 -1 300.31 -3 c 1
 295.31 2 296.31 21 300.31 26 c 1
 312.31 26 360.31 31 363.31 42 c 0
 368.31 58 368.31 86 368.31 116 c 2
 368.31 218 l 2
 368.31 340 346.31 380 274.31 380 c 0xbc
 229.31 380 181.31 338 181.31 325 c 2
 181.31 116 l 2
 181.31 86 181.31 58 186.31 42 c 0
 189.31 31 237.31 26 249.31 26 c 1
 253.31 21 254.31 2 249.31 -3 c 1
 208.31 -1 181.31 2 142.31 2 c 0
 103.31 2 77.3096 -1 36.3096 -3 c 1
 31.3096 2 32.3096 21 36.3096 26 c 1
 48.3096 26 96.3096 31 99.3096 42 c 0
 104.31 58 104.31 86 104.31 116 c 2
 104.31 298 l 2
 104.31 311 104.31 338 99.3096 350 c 0
 92.3096 367 41.3096 368 34.3096 368 c 1
 32.3096 370 30.3096 389 34.3096 394 c 1
 85.3096 401 137.31 415 177.31 436 c 1
 182.31 436 188.31 425 188.31 420 c 1
 187.31 413 182.31 380 182.31 372 c 0
 182.31 371 182.31 368 184.31 368 c 0xdc
 185.31 368 186.31 369 187.31 370 c 0
 212.31 391 265.31 438 319.31 438 c 0xbc
EndSplineSet
Substitution2: "'sinf' Scientific Inferiors lookup 5-1" m.sinf
Substitution2: "'sups' Superscript lookup 6-1" m.ssup
Substitution2: "'smcp' Lowercase to Small Capitals lookup 2-1" m.sc
Substitution2: "'subs' Subscript lookup 1-1" m.subs
Substitution2: "'ordn' Ordinals lookup 0-1" m.ordn
EndChar

StartChar: n
Encoding: 110 110 77
Width: 532
Flags: HW
HStem: -3 29<33.7131 98.5992 187.02 251.906 303.714 368.6 457.02 521.906> 368 26<32.4906 93.7581> 380 58<255.663 342.494>
VStem: 104.31 77<32.4189 347.537> 374.31 77<32.4189 346.845>
LayerCount: 2
Fore
SplineSet
322.31 438 m 0xb8
 430.31 438 451.31 371 451.31 226 c 2
 451.31 116 l 2
 451.31 86 451.31 58 456.31 42 c 0
 459.31 31 507.31 26 519.31 26 c 1
 523.31 21 524.31 2 519.31 -3 c 1
 478.31 -1 451.31 2 412.31 2 c 0
 373.31 2 347.31 -1 306.31 -3 c 1
 301.31 2 302.31 21 306.31 26 c 1
 318.31 26 366.31 31 369.31 42 c 0
 374.31 58 374.31 86 374.31 116 c 2
 374.31 216 l 2
 374.31 340 354.31 380 276.31 380 c 0xb8
 239.31 380 181.31 334 181.31 325 c 2
 181.31 116 l 2
 181.31 86 181.31 58 186.31 42 c 0
 189.31 31 237.31 26 249.31 26 c 1
 253.31 21 254.31 2 249.31 -3 c 1
 208.31 -1 181.31 2 142.31 2 c 0
 103.31 2 77.3096 -1 36.3096 -3 c 1
 31.3096 2 32.3096 21 36.3096 26 c 1
 48.3096 26 96.3096 31 99.3096 42 c 0
 104.31 58 104.31 86 104.31 116 c 2
 104.31 298 l 2
 104.31 311 104.31 338 99.3096 350 c 0
 92.3096 367 41.3096 368 34.3096 368 c 1
 32.3096 370 30.3096 389 34.3096 394 c 1xd8
 85.3096 401 137.31 415 177.31 436 c 1
 182.31 436 188.31 425 188.31 420 c 1
 187.31 413 182.31 375 182.31 367 c 0
 182.31 366 182.31 363 184.31 363 c 0
 185.31 363 186.31 364 187.31 365 c 0
 207.31 387 274.31 438 322.31 438 c 0xb8
EndSplineSet
Substitution2: "'sinf' Scientific Inferiors lookup 5-1" n.sinf
Substitution2: "'sups' Superscript lookup 6-1" n.ssup
Substitution2: "'smcp' Lowercase to Small Capitals lookup 2-1" n.sc
Substitution2: "'subs' Subscript lookup 1-1" n.subs
Substitution2: "'ordn' Ordinals lookup 0-1" n.ordn
EndChar

StartChar: o
Encoding: 111 111 78
Width: 509
Flags: HW
HStem: -7 33<213.699 320.24> 406 33<189.214 295.584>
VStem: 41 86<120.834 313.837> 382 86<116.337 309.213>
LayerCount: 2
Fore
SplineSet
243 406 m 0
 158 406 127 319 127 233 c 0
 127 136 176 26 266 26 c 0
 351 26 382 113 382 198 c 0
 382 295 332 406 243 406 c 0
254 439 m 0
 386 439 468 346 468 221 c 0
 468 92 377 -7 256 -7 c 0
 124 -7 41 88 41 213 c 0
 41 342 133 439 254 439 c 0
EndSplineSet
Substitution2: "'sinf' Scientific Inferiors lookup 5-1" o.sinf
Substitution2: "'sups' Superscript lookup 6-1" o.ssup
Substitution2: "'smcp' Lowercase to Small Capitals lookup 2-1" o.sc
Substitution2: "'subs' Subscript lookup 1-1" o.subs
Substitution2: "'ordn' Ordinals lookup 0-1" o.ordn
EndChar

StartChar: p
Encoding: 112 112 79
Width: 510
Flags: HW
HStem: -226 29<15.713 80.5992 169.02 233.906> -8 35<196.481 313.031> 368 26<14.4906 75.7579> 379 59<221.09 317.28>
VStem: 86.3094 77<-190.581 2.99634 52.6571 361.677> 387.31 84<139.167 301.166>
LayerCount: 2
Fore
SplineSet
290.31 438 m 4xdc
 414.31 438 471.31 318 471.31 232 c 4
 471.31 103 350.31 -8 237.31 -8 c 4
 211.31 -8 183.31 -2 167.31 3 c 5
 167.31 3 163.31 -2 163.31 -10 c 6
 163.31 -107 l 6
 163.31 -137 163.31 -165 168.31 -181 c 0
 171.31 -192 219.31 -197 231.31 -197 c 1
 235.31 -202 236.31 -221 231.31 -226 c 1
 190.31 -224 163.31 -221 124.31 -221 c 0
 85.3096 -221 59.3096 -224 18.3096 -226 c 1
 13.3096 -221 14.3096 -202 18.3096 -197 c 1
 30.3096 -197 78.3096 -192 81.3096 -181 c 0
 86.3096 -165 86.3096 -137 86.3096 -107 c 2
 86.3096 298 l 2
 86.3096 311 86.3096 338 81.3096 350 c 0
 74.3096 367 23.3096 368 16.3096 368 c 1
 14.3096 370 12.3096 389 16.3096 394 c 1xec
 67.3096 401 119.31 415 159.31 436 c 1
 164.31 436 170.31 425 170.31 420 c 1
 169.31 413 163.31 391 163.31 383 c 4
 163.31 382 163.31 379 165.31 379 c 4
 166.31 379 167.31 380 168.31 381 c 4
 193.31 402 250.31 438 290.31 438 c 4xdc
247.31 379 m 4xdc
 206.31 379 163.31 354 163.31 340 c 6
 163.31 100 l 6
 163.31 48 221.31 27 256.31 27 c 4
 339.31 27 387.31 114 387.31 195 c 4
 387.31 314 323.31 379 247.31 379 c 4xdc
EndSplineSet
Substitution2: "'sinf' Scientific Inferiors lookup 5-1" p.sinf
Substitution2: "'sups' Superscript lookup 6-1" p.ssup
Substitution2: "'smcp' Lowercase to Small Capitals lookup 2-1" p.sc
Substitution2: "'subs' Subscript lookup 1-1" p.subs
Substitution2: "'ordn' Ordinals lookup 0-1" p.ordn
EndChar

StartChar: q
Encoding: 113 113 80
Width: 497
Flags: HW
HStem: -227 29<278.404 343.29 431.71 496.596> -7 60<194.146 287.669> 402 36<206.474 316.856>
VStem: 39 84<129.217 289.501> 349 77<-191.581 50.178 68.9193 376.812>
LayerCount: 2
Fore
SplineSet
256 402 m 0
 162 402 123 296 123 235 c 0
 123 117 186 53 269 53 c 0
 309 53 349 78 349 93 c 2
 349 332 l 2
 349 375 300 402 256 402 c 0
286 438 m 0
 316 438 372 413 405 413 c 0
 411 413 419 414 425 416 c 1
 431 416 438 399 438 394 c 1
 429 374 426 340 426 320 c 2
 426 -108 l 2
 426 -138 426 -166 431 -182 c 0
 434 -193 482 -198 494 -198 c 1
 498 -203 499 -222 494 -227 c 1
 453 -225 426 -222 387 -222 c 0
 348 -222 322 -225 281 -227 c 1
 276 -222 277 -203 281 -198 c 1
 293 -198 341 -193 344 -182 c 0
 349 -166 349 -138 349 -108 c 2
 349 40 l 2
 349 45 347 54 342 50 c 0
 327 37 260 -7 217 -7 c 0
 102 -7 39 110 39 199 c 0
 39 336 179 438 286 438 c 0
EndSplineSet
Substitution2: "'sinf' Scientific Inferiors lookup 5-1" q.sinf
Substitution2: "'sups' Superscript lookup 6-1" q.ssup
Substitution2: "'smcp' Lowercase to Small Capitals lookup 2-1" q.sc
Substitution2: "'subs' Subscript lookup 1-1" q.subs
Substitution2: "'ordn' Ordinals lookup 0-1" q.ordn
EndChar

StartChar: r
Encoding: 114 114 81
Width: 383
Flags: HW
HStem: -3 29<33.7131 98.5992 187.167 274.906> 360 77<252.358 312.934> 368 26<32.4906 93.7581>
VStem: 104.31 77<33.7634 321.777 329.94 361.708>
LayerCount: 2
Fore
SplineSet
303.31 437 m 0xd0
 329.31 437 355.31 424 364.31 408 c 1
 366.31 402 368.31 392 368.31 381 c 0
 368.31 344 345.31 329 335.31 329 c 0
 321.31 329 309.31 341 298.31 348 c 0
 289.31 354 279.31 360 261.31 360 c 0xd0
 218.31 360 181.31 293 181.31 270 c 2
 181.31 116 l 2
 181.31 86 181.31 58 186.31 42 c 0
 189.31 31 260.31 26 272.31 26 c 1
 276.31 21 277.31 2 272.31 -3 c 1
 231.31 -1 187.31 2 148.31 2 c 0
 109.31 2 77.3096 -1 36.3096 -3 c 1
 31.3096 2 32.3096 21 36.3096 26 c 1
 48.3096 26 96.3096 31 99.3096 42 c 0
 104.31 58 104.31 86 104.31 116 c 2
 104.31 298 l 2
 104.31 311 104.31 338 99.3096 350 c 0
 92.3096 367 41.3096 368 34.3096 368 c 1
 32.3096 370 30.3096 389 34.3096 394 c 1xb0
 85.3096 401 137.31 415 177.31 436 c 1
 182.31 436 188.31 425 188.31 420 c 1
 187.31 413 181.31 343 181.31 332 c 0
 181.31 328 184.721 328.714 185.31 330 c 0
 205 373 258.31 437 303.31 437 c 0xd0
EndSplineSet
Substitution2: "'sinf' Scientific Inferiors lookup 5-1" r.sinf
Substitution2: "'sups' Superscript lookup 6-1" r.ssup
Substitution2: "'smcp' Lowercase to Small Capitals lookup 2-1" r.sc
Substitution2: "'subs' Subscript lookup 1-1" r.subs
Substitution2: "'ordn' Ordinals lookup 0-1" r.ordn
EndChar

StartChar: s
Encoding: 115 115 82
Width: 369
Flags: HW
HStem: -11 32<127.723 223.223> 406 31<147.772 235.89>
VStem: 41 27<85.9752 117.421> 50 77<291.129 381.207> 248 81<55.287 144.678> 282 27<309.164 347.416>
LayerCount: 2
Fore
SplineSet
195 437 m 0xd8
 234 437 253 429 297 424 c 1
 304 393 308 350 309 314 c 0
 309 310 304 309 299 309 c 0
 294 309 287 310 282 314 c 1
 272 351 241 406 198 406 c 0
 150 406 127 379 127 343 c 0xd4
 127 291 169 276 214 249 c 0
 259 222 329 190 329 127 c 0
 329 46 256 -11 175 -11 c 0
 129 -11 102 0 58 8 c 1
 50 29 41 86 41 112 c 1
 45 115 54 118 59 118 c 0
 62 118 65 118 68 116 c 1xe8
 80 74 123 21 176 21 c 0
 217 21 248 47 248 93 c 0
 248 154 184 174 126 208 c 0
 86 231 50 262 50 315 c 0
 50 389 121 437 195 437 c 0xd8
EndSplineSet
Substitution2: "'sinf' Scientific Inferiors lookup 5-1" s.sinf
Substitution2: "'sups' Superscript lookup 6-1" s.ssup
Substitution2: "'smcp' Lowercase to Small Capitals lookup 2-1" s.sc
Substitution2: "'subs' Subscript lookup 1-1" s.subs
Substitution2: "'ordn' Ordinals lookup 0-1" s.ordn
EndChar

StartChar: t
Encoding: 116 116 83
Width: 311
Flags: HW
HStem: -7 54<176.456 252.292> 391 41<27.9629 83 160 292.375>
VStem: 83 77<62.1149 391 432 519.684>
LayerCount: 2
Fore
SplineSet
160 432 m 1
 289 432 l 2
 294 432 294 427 294 421 c 0
 294 412 289 400 280 391 c 1
 160 391 l 1
 160 129 l 2
 160 76 182 47 226 47 c 0
 256 47 284 65 291 70 c 1
 293 69 294 66 294 63 c 0
 294 57 291 49 290 48 c 0
 276 32 236 -7 187 -7 c 0
 136 -7 83 15 83 101 c 2
 83 391 l 1
 25 391 l 2
 22 391 20 397 20 400 c 0
 20 404 45 431 46 432 c 1
 62 432 72 432 83 432 c 1
 83 443 83 487 83 495 c 1
 102 517 142 559 144 562 c 1
 149 567 160 567 160 563 c 2
 160 432 l 1
EndSplineSet
Substitution2: "'sinf' Scientific Inferiors lookup 5-1" t.sinf
Substitution2: "'sups' Superscript lookup 6-1" t.ssup
Substitution2: "'smcp' Lowercase to Small Capitals lookup 2-1" t.sc
Substitution2: "'subs' Subscript lookup 1-1" t.subs
Substitution2: "'ordn' Ordinals lookup 0-1" t.ordn
EndChar

StartChar: u
Encoding: 117 117 84
Width: 515
Flags: HW
HStem: -7 56<195.595 285.904> 20 27<437.359 495.219> 390 26<14.4371 66.0592 283.438 335.06> 416 20G<135.639 156.139 404.639 425.139>
VStem: 80.6383 77.0003<92.1211 382.167> 349.639 77<73.0835 382.167>
LayerCount: 2
Fore
SplineSet
349.639 316 m 6x9c
 349.639 329 349.639 355 341.639 370 c 4
 331.639 388 298.639 390 285.639 390 c 5
 282.639 393 281.639 411 285.639 416 c 5xac
 336.639 418 386.639 425 422.639 436 c 5
 427.639 436 433.639 421 433.639 416 c 5
 429.639 408 426.639 380 426.639 351 c 6
 426.639 305 l 4
 426.639 141 l 6
 426.639 130 427.639 93 433.639 65 c 4
 438.639 46 489.639 48 492.639 47 c 4
 494.639 46 495.639 39 495.639 36 c 4
 495.639 34 492.639 20 487.639 20 c 4x5c
 435.639 17 358.639 -8 357.639 -8 c 4
 352.639 -8 349.639 1 349.639 8 c 6
 349.639 54 l 6
 349.639 59 347.639 59 347.639 59 c 5
 319.639 29 256.639 -7 205.639 -7 c 4
 99.6387 -7 80.6387 108 80.6387 192 c 6
 80.6387 316 l 6
 80.6387 329 80.6387 355 72.6387 370 c 4
 62.6387 388 29.6387 390 16.6387 390 c 5
 13.6387 393 12.6387 411 16.6387 416 c 5xac
 67.6387 418 117.639 425 153.639 436 c 5
 158.639 436 164.639 421 164.639 416 c 5
 160.639 408 157.639 380 157.639 351 c 6
 157.639 308 l 4
 157.639 204 l 6
 157.639 98 187.639 49 257.639 49 c 4
 301.639 49 349.639 80 349.639 104 c 6
 349.639 316 l 6x9c
EndSplineSet
Substitution2: "'sinf' Scientific Inferiors lookup 5-1" u.sinf
Substitution2: "'sups' Superscript lookup 6-1" u.ssup
Substitution2: "'smcp' Lowercase to Small Capitals lookup 2-1" u.sc
Substitution2: "'subs' Subscript lookup 1-1" u.subs
Substitution2: "'ordn' Ordinals lookup 0-1" u.ordn
EndChar

StartChar: v
Encoding: 118 118 85
Width: 473
Flags: HW
HStem: -11 21G<227.31 232.31> 401 29<0.617511 53.2603 149.783 202.197 294.497 347.37 422.467 471.956>
LayerCount: 2
Fore
SplineSet
102.31 425 m 0
 140.31 425 162.31 428 202.31 430 c 1
 204.31 424 203.31 401 198.31 401 c 1
 191.31 401 149.31 399 149.31 384 c 0
 149.31 383 149.31 382 150.31 380 c 0
 260.31 110 l 1
 260.31 110 311.31 243 349.31 337 c 0
 354.31 349 355.31 362 355.31 369 c 0
 355.31 389 331.31 401 297.31 401 c 1
 292.31 401 292.31 425 297.31 430 c 1
 328.31 428 337.31 425 378.31 425 c 0
 416.31 425 431.31 428 471.31 430 c 1
 475.31 424 472.31 401 468.31 401 c 1
 460.31 401 417.31 395 405.31 367 c 0
 346.31 226 313.31 148 255.31 6 c 0
 252.31 -2 235.31 -11 229.31 -11 c 0
 225.31 -11 221.31 -9 220.31 -7 c 0
 155.31 147 112.31 268 57.3096 381 c 0
 47.3096 402 14.3096 401 2.30957 401 c 1
 0.30957 406 -1.69043 420 2.30957 430 c 1
 43.3096 428 61.3096 425 102.31 425 c 0
EndSplineSet
Substitution2: "'sinf' Scientific Inferiors lookup 5-1" v.sinf
Substitution2: "'sups' Superscript lookup 6-1" v.ssup
Substitution2: "'smcp' Lowercase to Small Capitals lookup 2-1" v.sc
Substitution2: "'subs' Subscript lookup 1-1" v.subs
Substitution2: "'ordn' Ordinals lookup 0-1" v.ordn
EndChar

StartChar: w
Encoding: 119 119 86
Width: 721
Flags: HW
HStem: -11 21G<225.25 232.75 480.25 486.25> 401 29<0.49438 51.1544 152.036 201.966 267.324 310.307 419.603 466.557 538.479 593.604 668.728 720.507>
VStem: 338.25 76<305.432 379.109>
LayerCount: 2
Fore
SplineSet
101.25 425 m 0
 139.25 425 161.25 428 201.25 430 c 1
 203.25 424 203.25 403 199.25 401 c 1
 191.25 401 149.25 399 149.25 378 c 0
 149.25 376.53 150.882 371.53 154.12 363 c 0
 166.294 330.922 201.163 248.922 257.25 117 c 1
 308.25 246 338.25 318 338.25 327 c 0
 338.25 334 327.25 363 314.25 382 c 0
 303.25 398 282.25 401 270.25 401 c 1
 265.25 404 265.25 425 270.25 430 c 1
 311.25 428 320.25 425 361.25 425 c 0
 399.25 425 425.25 428 465.25 430 c 1
 467.25 424 468.25 405 464.25 401 c 1
 433.25 401 414.25 393 414.25 369 c 0
 414.25 366 415.013 363.264 416.584 358 c 0
 424.53 331.376 453.145 261.938 508.25 120 c 1
 547.473 217.272 581 302 595.617 344 c 0
 599.574 355.369 601.25 363.689 601.25 368 c 0
 601.25 397 564.25 399 541.25 401 c 1
 537.25 404 536.25 425 541.25 430 c 1
 582.25 428 587.25 425 628.25 425 c 0
 666.25 425 680.25 428 720.25 430 c 1
 721.25 427 723.25 406 717.25 401 c 1
 709.25 401 661.25 395 649.25 365 c 0
 594.25 226 562.25 145 504.25 6 c 0
 501.25 -2 489.25 -11 483.25 -11 c 0
 477.25 -11 472.25 -9 471.25 -7 c 2
 360.25 282 l 1
 252.25 8 l 2
 251.25 5 238.25 -11 227.25 -11 c 0
 223.25 -11 219.25 -9 218.25 -7 c 0
 156.25 148 122.25 230 56.25 379 c 0
 47.25 400 14.25 401 2.25 401 c 1
 -0.75 407 -0.75 424 2.25 430 c 1
 43.25 428 60.25 425 101.25 425 c 0
EndSplineSet
Substitution2: "'sinf' Scientific Inferiors lookup 5-1" w.sinf
Substitution2: "'sups' Superscript lookup 6-1" w.ssup
Substitution2: "'smcp' Lowercase to Small Capitals lookup 2-1" w.sc
Substitution2: "'subs' Subscript lookup 1-1" w.subs
Substitution2: "'ordn' Ordinals lookup 0-1" w.ordn
EndChar

StartChar: x
Encoding: 120 120 87
Width: 476
Flags: HW
HStem: -3 29<10.9236 76.312 148.227 202.165 260.674 304.091 413.065 468.815> 401 29<22.3205 82.2596 182.313 224.675 266.501 322.799 380.283 449.041>
LayerCount: 2
Fore
SplineSet
123.04 425 m 0
 164.04 425 202 428 224.04 430 c 1
 225.04 426 227 407 222.04 401 c 1
 206.04 401 182.04 399 182.04 384 c 0
 182.04 381 184.04 377 187.04 372 c 2
 253.04 267 l 1
 280.041 309 324.041 362 324.041 382 c 0
 324.041 402 274 400 268.041 401 c 1
 266.041 402 265.041 426 268.041 430 c 1
 309.041 428 328.041 425 369.041 425 c 0
 405.041 425 435 428 449.041 430 c 1
 450.041 425 450.041 401 448.041 401 c 1
 429 400 384.041 396 371.041 379 c 0
 335.041 329 280.041 251 271.041 240 c 1
 281.041 225 391.041 62 391.041 62 c 2
 411.041 33 439.041 26 468.041 26 c 1
 470.041 26 470.041 1 467.041 -3 c 1
 430.041 -1 410.041 2 373.041 2 c 0
 330.041 2 305.041 -1 262.041 -3 c 1
 259.041 4 260.041 26 263.041 26 c 1
 277.041 27 305.041 32 305.041 44 c 0
 305.041 46 304.041 48 303.041 50 c 2
 303.041 50 251.04 135 224.04 175 c 1
 205.04 146 180.04 111 152.04 67 c 0
 147.04 59 146.04 53 146.04 48 c 0
 146.04 29 178.04 28 201.04 26 c 1
 203.04 26 204.04 2 200.04 -3 c 1
 161.04 -1 144.04 2 105.04 2 c 0
 67.04 2 49.04 -1 11.04 -3 c 1
 9.04004 5 10.04 21 13.04 26 c 1
 45.04 31 85.04 34 108.04 65 c 2
 108.04 65 201.04 199 206.04 206 c 1
 198.04 218 90.04 379 90.04 379 c 2
 78.7529 395.834 43.04 401 23.04 401 c 1
 21.04 401 21 424 24.04 430 c 1
 57 427 84.04 425 123.04 425 c 0
EndSplineSet
Substitution2: "'sinf' Scientific Inferiors lookup 5-1" x.sinf
Substitution2: "'sups' Superscript lookup 6-1" x.ssup
Substitution2: "'smcp' Lowercase to Small Capitals lookup 2-1" x.sc
Substitution2: "'subs' Subscript lookup 1-1" x.subs
Substitution2: "'ordn' Ordinals lookup 0-1" x.ordn
EndChar

StartChar: y
Encoding: 121 121 88
Width: 469
Flags: HW
HStem: -228 72<44.4989 126.864> 401 29<0.247559 52.4509 148.973 201.387 289.688 342.561 417.657 467.147>
LayerCount: 2
Fore
SplineSet
101.5 425 m 0
 139.5 425 184.5 428 201.5 430 c 1
 203.5 424 202.5 401 197.5 401 c 1
 190.5 401 148.5 399 148.5 384 c 0
 148.5 383 148.5 382 149.5 380 c 0
 255.5 110 l 1
 255.5 110 306.5 243 344.5 337 c 0
 349.5 349 350.5 362 350.5 369 c 0
 350.5 389 326.5 401 292.5 401 c 1
 287.5 401 287.5 425 292.5 430 c 1
 307.5 428 341.5 425 382.5 425 c 0
 420.5 425 446.5 428 466.5 430 c 1
 470.5 424 467.5 401 463.5 401 c 1
 455.5 401 412.5 395 400.5 367 c 0
 341.5 226 308.5 148 250.5 6 c 0
 225.5 -55 199.5 -120 168.5 -169 c 0
 152.5 -194 115.5 -228 86.5 -228 c 0
 67.5 -228 40.5 -221 40.5 -185 c 0
 40.5 -173 47.5 -162 52.5 -156 c 1
 99.5 -156 134.5 -136 165.5 -99 c 0
 182.5 -79 210.5 -9 213.5 2 c 1
 157.5 145 115.5 253 56.5 381 c 0
 46.5 402 13.5 401 1.5 401 c 1
 -0.5 401 -0.5 428 1.5 430 c 1
 20.5 428 60.5 425 101.5 425 c 0
EndSplineSet
Substitution2: "'sinf' Scientific Inferiors lookup 5-1" y.sinf
Substitution2: "'sups' Superscript lookup 6-1" y.ssup
Substitution2: "'smcp' Lowercase to Small Capitals lookup 2-1" y.sc
Substitution2: "'subs' Subscript lookup 1-1" y.subs
Substitution2: "'ordn' Ordinals lookup 0-1" y.ordn
EndChar

StartChar: z
Encoding: 122 122 89
Width: 447
Flags: HW
HStem: 0 35<136 334.447> 397 34<106.374 290.509> 419 20G<57.5 148 377.5 400.5>
VStem: 386 33<89.5612 128.954>
LayerCount: 2
Fore
SplineSet
148 431 m 2xd0
 276 431 l 2xd0
 330 431 357 434 398 439 c 1xb0
 403 431 401 420 401 415 c 1
 401 415 136 38 136 35 c 1
 141 35 276 35 276 35 c 2
 337 35 374 82 386 125 c 0
 387 130 389 131 393 131 c 0
 401 131 414 125 419 119 c 1
 419 119 389 46 374 0 c 1
 316 0 180 0 49 0 c 1
 42 2 34 12 34 20 c 0
 34 21 34 26 35 27 c 2
 292 396 l 1
 152 397 l 2xd0
 95 397 84 345 76 327 c 0
 74 323 64 318 54 318 c 0
 48 318 43 319 43 321 c 1
 47 336 56 386 59 439 c 1xb0
 59 439 112 431 148 431 c 2xd0
EndSplineSet
Substitution2: "'sinf' Scientific Inferiors lookup 5-1" z.sinf
Substitution2: "'sups' Superscript lookup 6-1" z.ssup
Substitution2: "'smcp' Lowercase to Small Capitals lookup 2-1" z.sc
Substitution2: "'subs' Subscript lookup 1-1" z.subs
Substitution2: "'ordn' Ordinals lookup 0-1" z.ordn
EndChar

StartChar: braceleft
Encoding: 123 123 90
Width: 222
Flags: HW
VStem: 58.25 44<-56.6142 70.4159 505.584 632.614> 104.25 46<119.735 242.755 333.245 456.265>
LayerCount: 2
Fore
SplineSet
104.25 383 m 0
 104.25 409 92.25 433 81.25 458 c 0
 69.25 484 58.25 510 58.25 541 c 0
 58.25 638 122.25 703 165.25 720 c 1
 173.25 720 181.25 710 181.25 701 c 1
 154.25 688 102.25 640 102.25 589 c 0
 102.25 551 115.25 526 127.25 498 c 0
 139.25 473 150.25 445 150.25 405 c 0
 150.25 340 103.25 298 77.25 288 c 1
 103.25 278 150.25 236 150.25 171 c 0
 150.25 131 139.25 103 127.25 78 c 0
 115.25 50 102.25 25 102.25 -13 c 0
 102.25 -64 154.25 -112 181.25 -125 c 1
 181.25 -134 173.25 -144 165.25 -144 c 1
 122.25 -127 58.25 -62 58.25 35 c 0
 58.25 66 69.25 92 81.25 118 c 0
 92.25 143 104.25 167 104.25 193 c 0
 104.25 246 67.25 267 28.25 277 c 1
 26.75 279.5 26 283.75 26 288 c 0
 26 292.25 26.75 296.5 28.25 299 c 1
 67.25 309 104.25 330 104.25 383 c 0
EndSplineSet
Substitution2: "'sinf' Scientific Inferiors lookup 5-1" braceleft.sinf
Substitution2: "'sups' Superscript lookup 6-1" braceleft.ssup
Substitution2: "'smcp' Lowercase to Small Capitals lookup 2-1" braceleft.sc
Substitution2: "'subs' Subscript lookup 1-1" braceleft.subs
Substitution2: "'ordn' Ordinals lookup 0-1" braceleft.ordn
EndChar

StartChar: bar
Encoding: 124 124 91
Width: 205
Flags: HW
VStem: 77.2645 51<-117.404 764.903>
LayerCount: 2
Fore
SplineSet
128.265 -106 m 2
 128.265 -114 84.2646 -123 82.2646 -123 c 0
 75.2646 -123 77.2646 -119 77.2646 -115 c 2
 77.2646 757 l 1
 77.2646 757 76.2646 763 82.2646 765 c 0
 99.2646 770 116.265 772 119.265 772 c 0
 128.265 772 127.265 766 127.265 766 c 1
 128.265 -106 l 2
EndSplineSet
Substitution2: "'sinf' Scientific Inferiors lookup 5-1" bar.sinf
Substitution2: "'sups' Superscript lookup 6-1" bar.ssup
Substitution2: "'smcp' Lowercase to Small Capitals lookup 2-1" bar.sc
Substitution2: "'subs' Subscript lookup 1-1" bar.subs
Substitution2: "'ordn' Ordinals lookup 0-1" bar.ordn
EndChar

StartChar: braceright
Encoding: 125 125 92
Width: 223
Flags: HW
VStem: 72 46<119.735 242.755 333.245 456.265> 120 44<-56.6142 70.4159 505.584 632.614>
LayerCount: 2
Fore
SplineSet
57 720 m 1
 100 703 164 638 164 541 c 0
 164 510 153 484 141 458 c 0
 130 433 118 409 118 383 c 0
 118 330 155 309 194 299 c 1
 195.382 296.696 196 292 196 288 c 0
 196 283.426 195.618 279.696 194 277 c 1
 155 267 118 246 118 193 c 0
 118 167 130 143 141 118 c 0
 153 92 164 66 164 35 c 0
 164 -62 100 -127 57 -144 c 1
 49 -144 41 -134 41 -125 c 1
 68 -112 120 -64 120 -13 c 0
 120 25 107 50 95 78 c 0
 83 103 72 131 72 171 c 0
 72 236 119 278 145 288 c 1
 119 298 72 340 72 405 c 0
 72 445 83 473 95 498 c 0
 107 526 120 551 120 589 c 0
 120 640 68 688 41 701 c 1
 41 710 49 720 57 720 c 1
EndSplineSet
Substitution2: "'sinf' Scientific Inferiors lookup 5-1" braceright.sinf
Substitution2: "'sups' Superscript lookup 6-1" braceright.ssup
Substitution2: "'smcp' Lowercase to Small Capitals lookup 2-1" braceright.sc
Substitution2: "'subs' Subscript lookup 1-1" braceright.subs
Substitution2: "'ordn' Ordinals lookup 0-1" braceright.ordn
EndChar

StartChar: asciitilde
Encoding: 126 126 93
Width: 570
Flags: HW
HStem: 250 51<314.795 473.297> 303 51<106.163 260.768>
LayerCount: 2
Fore
SplineSet
271 277 m 0
 236 290 201 303 156 303 c 0
 117 303 89 281 65 259 c 1
 59 262 56 268 56 276 c 0
 56 313 133 354 186 354 c 0
 233 354 269 340 305 327 c 0
 340 314 375 301 422 301 c 0
 461 301 483 322 512 345 c 1
 518 342 521 336 521 328 c 0
 521 295 455 250 393 250 c 0
 344 250 308 263 271 277 c 0
EndSplineSet
Substitution2: "'sinf' Scientific Inferiors lookup 5-1" asciitilde.sinf
Substitution2: "'sups' Superscript lookup 6-1" asciitilde.ssup
Substitution2: "'smcp' Lowercase to Small Capitals lookup 2-1" asciitilde.sc
Substitution2: "'subs' Subscript lookup 1-1" asciitilde.subs
Substitution2: "'ordn' Ordinals lookup 0-1" asciitilde.ordn
EndChar

StartChar: exclamdown
Encoding: 161 161 95
Width: 215
Flags: HW
HStem: 320 110<64.4629 150.77>
VStem: 53 110<331.463 417.77> 59 94<-213.2 91.9102>
LayerCount: 2
Fore
SplineSet
53 374 m 0xc0
 53 404 77 430 107 430 c 0
 137 430 163 404 163 374 c 0
 163 344 137 320 107 320 c 0
 77 320 53 344 53 374 c 0xc0
103 -223 m 0
 72 -223 59 -191 59 -165 c 0
 59 -137 72 -3 93 247 c 1
 97 255 100 259 109 260 c 1
 114 258 120 255 123 249 c 1
 137 88 153 -114 153 -165 c 0xa0
 153 -193 135 -223 103 -223 c 0
EndSplineSet
Substitution2: "'smcp' Lowercase to Small Capitals lookup 2-1" exclamdown.sc
EndChar

StartChar: cent
Encoding: 162 162 96
Width: 446
Flags: HW
HStem: -8 66<231.481 327.563> 394 44<199.28 296.075>
VStem: 45 78<132.251 288.818> 189 28<-43.416 -0.869301> 272 28<427.956 470.975>
LayerCount: 2
Fore
SplineSet
272 472 m 17
 280 472 300 473 300 466 c 1
 217 -45 l 1
 208 -45 189 -45 189 -38 c 9
 272 472 l 17
388 388 m 0
 388 348 367 338 350 338 c 1
 328 338 309 364 292 375 c 0
 271 389 261 394 235 394 c 0
 182 394 123 332 123 227 c 0
 123 110 195 58 285 58 c 0
 340 58 378 94 391 109 c 1
 392 109 399 103 399 95 c 0
 399 90 396 82 393 77 c 0
 375 48 325 -8 247 -8 c 0
 125 -8 45 90 45 194 c 0
 45 340 184 438 288 438 c 0
 323 438 354 430 378 414 c 1
 382 410 388 393 388 388 c 0
EndSplineSet
Substitution2: "'smcp' Lowercase to Small Capitals lookup 2-1" cent.sc
EndChar

StartChar: sterling
Encoding: 163 163 97
Width: 477
Flags: HW
HStem: -8 66<237.736 360.199> 49 56<99.375 178.889> 306 36<67.469 378.738> 590 46<236.671 331.5>
VStem: 125 77<344.61 509.144> 148 75<188.868 347.673> 427 13<127.679 134.817>
LayerCount: 2
Fore
SplineSet
314 636 m 0x7a
 349 636 362 628 386 612 c 1
 390 608 396 594 396 584 c 0
 396 548 375 536 358 536 c 1
 336 536 320 559 305 573 c 0
 290 587 283 590 270 590 c 0
 218 590 202 528 202 459 c 0x7a
 202 385 223 328 223 272 c 0
 223 197 159 120 134 97 c 1
 148 104 158 105 169 105 c 0x76
 224 105 238 58 327 58 c 0
 382 58 418 121 427 139 c 1
 428 139 440 131 440 123 c 0
 440 119 439 114 437 108 c 0
 426 76 369 -8 291 -8 c 0xb6
 206 -8 168 49 116 49 c 0
 85 49 77 10 60 -6 c 1
 52 -6 44 7 44 16 c 0
 44 45 79 79 94 94 c 0
 122 122 148 182 148 231 c 0x76
 148 252 126 367 125 399 c 0
 121 535 220 636 314 636 c 0x7a
78 342 m 1
 94 342 370 342 381 342 c 1
 395 331 378 310 372 306 c 1
 55 306 l 17
 49 312 69 342 78 342 c 1
EndSplineSet
Substitution2: "'smcp' Lowercase to Small Capitals lookup 2-1" sterling.sc
EndChar

StartChar: currency
Encoding: 164 164 98
Width: 574
Flags: HW
HStem: 120 32<245.525 340.572> 463 33<230.384 325.636>
VStem: 102 73<224.803 397.542> 395 72<218.015 391.134>
LayerCount: 2
Fore
SplineSet
294 152 m 0
 355 152 395 219 395 294 c 0
 395 386 340 463 277 463 c 0
 216 463 175 394 175 319 c 0
 175 227 231 152 294 152 c 0
398 455 m 1
 457 510 l 2
 465 518 491 490 498 466 c 1
 438 410 l 1
 456 380 467 344 467 307 c 0
 467 267 455 230 434 199 c 1
 488 141 l 2
 496 133 468 107 444 100 c 1
 392 155 l 1
 362 133 326 120 286 120 c 0
 243 120 203 135 172 160 c 1
 119 110 l 2
 111 102 85 130 78 154 c 1
 132 205 l 1
 113 235 102 270 102 307 c 0
 102 351 116 391 140 423 c 1
 88 479 l 2
 80 487 108 513 132 520 c 1
 184 465 l 1
 213 485 248 496 286 496 c 0
 329 496 367 481 398 455 c 1
EndSplineSet
EndChar

StartChar: yen
Encoding: 165 165 99
Width: 672
Flags: HW
HStem: -3 29<224.154 295.002 393.498 464.346> 138 37<213.43 481.681> 218 37<213.43 481.681> 611 29<26.9375 82.4514 229.931 283.911 429.478 494.858 581.74 643.225>
VStem: 300.75 87<32.7426 296.719>
LayerCount: 2
Fore
SplineSet
222.75 175 m 1
 238.75 175 473.75 175 484.75 175 c 1
 498.75 164 480.75 142 474.75 138 c 1
 202.75 138 l 17
 196.75 144 213.75 175 222.75 175 c 1
222.75 255 m 1
 238.75 255 473.75 255 484.75 255 c 1
 498.75 244 480.75 222 474.75 218 c 1
 202.75 218 l 17
 196.75 224 213.75 255 222.75 255 c 1
300.75 116 m 2
 300.75 245 l 0
 300.75 252 298.75 263 293.75 273 c 16
 235.75 378 210.75 420 151.75 526 c 0
 130.75 563 113.75 579 85.75 595 c 0
 68.75 605 41.75 611 29.75 611 c 0
 24.75 611 24.75 635 29.75 640 c 1
 78.75 638 105.75 635 154.75 635 c 0
 203.75 635 242.75 638 282.75 640 c 1
 284.75 634 285.75 611 280.75 611 c 0
 266.75 611 220.75 605 220.75 579 c 0
 220.75 571 225 562 232.75 549 c 2
 370 313 l 1
 419 401 489.75 539 501.75 570 c 0
 502.75 573 504.75 579 504.75 585 c 0
 504.75 591 487.75 610 431.75 610 c 1
 428.75 610 427.75 636 429.75 639 c 1
 466.75 637 495.75 634 532.75 634 c 0
 584.75 634 602.75 637 642.75 639 c 1
 645 633 643.75 610 640.75 610 c 1
 632.75 610 575.75 610 552.75 570 c 0
 514.75 503 436.75 359 393.75 279 c 8
 387.75 268 388.75 257 388.75 248 c 0
 388.75 188 387.75 116 387.75 116 c 2
 387.75 86 387.75 58 392.75 42 c 0
 395.75 31 449.75 26 461.75 26 c 1
 465.75 21 466.75 2 461.75 -3 c 1
 420.75 -1 383.75 2 344.75 2 c 0
 305.75 2 267.75 -1 226.75 -3 c 1
 221.75 2 222.75 21 226.75 26 c 1
 238.75 26 292.75 31 295.75 42 c 0
 300.75 58 300.75 86 300.75 116 c 2
EndSplineSet
Substitution2: "'smcp' Lowercase to Small Capitals lookup 2-1" yen.sc
EndChar

StartChar: brokenbar
Encoding: 166 166 100
Width: 214
Flags: HW
VStem: 82.2645 51.0004<-118.458 256.903 389.542 764.903>
LayerCount: 2
Fore
SplineSet
133.265 400 m 2
 133 392 89.2646 385 87.2646 385 c 0
 80.2646 385 82.2646 389 82.2646 393 c 2
 82.2646 757 l 1
 82.2646 757 81.2646 763 87.2646 765 c 0
 104.265 770 122.265 770 125.265 770 c 0
 134.265 770 133.265 764 133.265 764 c 1
 133.265 400 l 2
82.2646 -115 m 2
 82.2646 249 l 1
 82.2646 249 81.2646 255 87.2646 257 c 0
 104.265 262 122.265 262 125.265 262 c 0
 134.265 262 133.265 256 133.265 256 c 1
 133.265 -108 l 2
 133 -116 89.2646 -123 87.2646 -123 c 0
 80.2646 -123 82.2646 -119 82.2646 -115 c 2
EndSplineSet
Substitution2: "'sinf' Scientific Inferiors lookup 5-1" brokenbar.sinf
Substitution2: "'sups' Superscript lookup 6-1" brokenbar.ssup
Substitution2: "'smcp' Lowercase to Small Capitals lookup 2-1" brokenbar.sc
Substitution2: "'subs' Subscript lookup 1-1" brokenbar.subs
Substitution2: "'ordn' Ordinals lookup 0-1" brokenbar.ordn
EndChar

StartChar: section
Encoding: 167 167 101
Width: 441
Flags: HW
HStem: -78 50<112.723 238.609> 603 50<203.391 329.277>
VStem: 38 54<353.266 469.951> 120 46<493.45 550.473> 276 46<24.5271 81.55> 350 54<105.049 221.734>
LayerCount: 2
Fore
SplineSet
304 653 m 0
 318 653 331 651 345 645 c 1
 350 635 351 625 351 619 c 0
 351 605 331 583 315 583 c 0
 298 583 289 590 279 595 c 0
 271 599 262 603 247 603 c 0
 216 603 166 587 166 549 c 0
 166 503 241 426 288 383 c 0
 340 335 404 265 404 179 c 0
 404 105 308 -9 270 -35 c 9
 272 -23 270 -14 276 -3 c 24
 286 14 310 33 310 33 c 0
 332 71 350 91 350 135 c 0
 350 218 292 285 238 335 c 0
 190 379 120 435 120 507 c 0
 120 587 192 653 304 653 c 0
138 -78 m 0
 124 -78 111 -76 97 -70 c 1
 92 -60 91 -50 91 -44 c 0
 91 -30 111 -8 127 -8 c 0
 144 -8 153 -15 163 -20 c 0
 171 -24 180 -28 195 -28 c 0
 226 -28 276 -12 276 26 c 0
 276 72 201 149 154 192 c 0
 102 240 38 310 38 396 c 0
 38 470 134 584 172 610 c 9
 170 598 172 589 166 578 c 24
 156 561 132 542 132 542 c 0
 110 504 92 484 92 440 c 0
 92 357 150 290 204 240 c 0
 252 196 322 140 322 68 c 0
 322 -12 250 -78 138 -78 c 0
EndSplineSet
Substitution2: "'sinf' Scientific Inferiors lookup 5-1" section.sinf
Substitution2: "'sups' Superscript lookup 6-1" section.ssup
Substitution2: "'smcp' Lowercase to Small Capitals lookup 2-1" section.sc
Substitution2: "'subs' Subscript lookup 1-1" section.subs
Substitution2: "'ordn' Ordinals lookup 0-1" section.ordn
EndChar

StartChar: dieresis
Encoding: 168 168 102
Width: 337
Flags: HW
HStem: 468 98<37.0176 119.299 220.018 302.299>
VStem: 28 100<476.719 556.943> 211 100<476.719 556.943>
LayerCount: 2
Fore
SplineSet
262 566 m 27
 289 566 311 543 311 516 c 27
 311 489 288 468 261 468 c 27
 234 468 211 490 211 517 c 27
 211 544 235 566 262 566 c 27
79 566 m 27
 106 566 128 543 128 516 c 27
 128 489 105 468 78 468 c 27
 51 468 28 490 28 517 c 27
 28 544 52 566 79 566 c 27
EndSplineSet
EndChar

StartChar: copyright
Encoding: 169 169 103
Width: 659
Flags: HW
HStem: 69 31<247.455 411.652> 195 32<296.319 416.675> 449 34<289.437 404.899> 584 31<247.455 411.652>
VStem: 56 33<256.704 427.296> 187 57<271.691 409.392> 572 31<259.894 424.106>
LayerCount: 2
Fore
SplineSet
456 276 m 5
 456 273 443 217 436 214 c 4
 404 201 372 195 330 195 c 4
 249 195 187 257 187 336 c 4
 187 416 245 483 328 483 c 4
 358 483 406 477 440 464 c 5
 440 464 456 407 456 403 c 4
 456 398 447 394 440 394 c 4
 437 394 435 395 433 396 c 5
 430 409 411 449 340 449 c 4
 286 449 244 400 244 345 c 4
 244 264 303 227 349 227 c 4
 379 227 408 234 421 246 c 4
 433 257 434 279 436 279 c 4
 439 279 455 278 456 276 c 5
89 342 m 4
 89 209 197 100 330 100 c 4
 463 100 572 209 572 342 c 4
 572 475 463 584 330 584 c 4
 197 584 89 475 89 342 c 4
56 342 m 4
 56 493 178 615 329 615 c 4
 480 615 603 493 603 342 c 4
 603 191 480 69 329 69 c 4
 178 69 56 191 56 342 c 4
EndSplineSet
Substitution2: "'smcp' Lowercase to Small Capitals lookup 2-1" copyright.sc
EndChar

StartChar: ordfeminine
Encoding: 170 170 104
Width: 345
Flags: HW
HStem: 249 37<115.046 173.137 245 294.603> 526 30<126.074 190.272>
VStem: 47 57<293.972 374.217> 57 56<455.248 499.854> 211 53<299.663 405 422.392 513.145>
LayerCount: 2
Fore
SplineSet
151 286 m 0xe8
 175 286 211 313 211 320 c 2
 211 405 l 17
 192 399 159 390 147 385 c 0
 122 375 104 361 104 335 c 0
 104 309 125 286 151 286 c 0xe8
188 556 m 0
 227 556 264 515 264 462 c 2
 264 319 l 2
 264 300 269 286 285 286 c 0
 297 286 306 294 308 295 c 1
 310 295 311 292 311 290 c 0
 311 286 309 280 307 277 c 1
 299 269 270 250 255 250 c 0
 235 250 217 274 213 295 c 1
 205 287 152 249 128 249 c 0
 82 249 47 284 47 329 c 0xe8
 47 357 67 378 82 384 c 0
 121 398 183 419 203 428 c 0
 210 431 211 433 211 445 c 2
 211 464 l 2
 211 495 190 526 152 526 c 0
 128 526 118 514 113 487 c 0
 109 463 98 454 81 454 c 0
 66 454 57 469 57 483 c 0xd8
 57 486 59 497 62 500 c 1
 83 520 137 556 188 556 c 0
EndSplineSet
Substitution2: "'smcp' Lowercase to Small Capitals lookup 2-1" ordfeminine.sc
EndChar

StartChar: guillemotleft
Encoding: 171 171 105
Width: 482
Flags: HW
LayerCount: 2
Fore
SplineSet
207 246 m 4
 207 256 208 255 212 264 c 5
 343 343 420 422 421 423 c 5
 437 418 441 414 443 411 c 5
 437 390 341 288 295 247 c 5
 341 206 437 104 443 83 c 5
 441 80 437 76 421 71 c 5
 420 72 343 151 212 230 c 5
 210 233 207 240 207 246 c 4
27 246 m 4
 27 256 28 255 32 264 c 5
 163 343 240 422 241 423 c 5
 257 418 261 414 263 411 c 5
 257 390 161 288 115 247 c 5
 161 206 257 104 263 83 c 5
 261 80 257 76 241 71 c 5
 240 72 163 151 32 230 c 5
 30 233 27 240 27 246 c 4
EndSplineSet
Substitution2: "'smcp' Lowercase to Small Capitals lookup 2-1" guillemotleft.sc
EndChar

StartChar: logicalnot
Encoding: 172 172 106
Width: 587
Flags: HW
HStem: 364 56<48.988 456>
VStem: 456 60<159.121 364>
LayerCount: 2
Fore
SplineSet
516 420 m 17
 516 322 516 169 516 169 c 17
 515 168 489 154 469 154 c 0
 469 154 459 155 456 161 c 1
 456 183 456 285 456 364 c 9
 51 364 l 1
 51 364 45 364 45 374 c 1
 45 374 50 420 60 420 c 2
 516 420 l 17
EndSplineSet
EndChar

StartChar: registered
Encoding: 174 174 107
Width: 659
Flags: HW
HStem: 133 32<247.455 411.652> 272.612 14.266<204.088 234.623 285.8 316.336 449.412 478.477> 402.612 18.111<283.61 313.902> 535.801 16.803<204.418 234.623 285.814 341.257> 648 32<247.455 411.652>
VStem: 56 33<321.65 492.235> 236.813 46.797<293.966 402.612 420.723 531.328> 365.43 47.912<431.522 526.474> 572 31<324.848 489.045>
LayerCount: 2
Fore
SplineSet
322.752 552.604 m 4
 361.239 552.604 413.342 527.65 413.342 479.434 c 4
 413.342 448.982 387.183 420.573 358 410 c 5
 380.416 372.78 402 344 429.915 310.254 c 4
 442.801 294.676 454.446 288.569 477.709 286.878 c 5
 479.822 284.763 477.709 273.458 477.285 272.612 c 5
 448.947 272.612 417.915 274.728 409.455 277.688 c 4
 403.535 279.803 392.114 283.186 381.964 296.297 c 4
 375.62 304.757 338.36 356.087 311.715 397.537 c 4
 309.178 401.343 304.948 402.612 299.026 402.612 c 4
 299.026 402.612 287.417 402.612 283.61 402.612 c 5
 283.61 371.736 283.61 324.942 283.61 324.942 c 5
 283.61 312.254 283.61 300.412 285.725 293.645 c 4
 286.994 288.993 309.833 286.878 314.908 286.878 c 5
 316.6 284.763 317.023 274.728 314.908 272.612 c 5
 297.567 273.458 277.918 274.728 261.423 274.728 c 4
 244.929 274.728 222.856 273.458 205.516 272.612 c 5
 203.4 274.728 203.824 284.763 205.516 286.878 c 5
 210.591 286.878 233.43 288.993 234.698 293.645 c 4
 236.813 300.412 237 312 236.813 324.942 c 6
 236.813 501.543 l 6
 237 514 236.813 526.074 234.698 532.841 c 4
 233.43 537.493 210.591 539.607 205.516 539.607 c 5
 203.824 541.723 203.4 551.758 205.516 553.873 c 5
 222.856 553.028 246.197 551.758 262.692 551.758 c 4
 279.188 551.758 297.797 552.604 322.752 552.604 c 4
365.43 469.283 m 4
 365.43 506.926 353.819 535.801 306.873 535.801 c 4
 301.797 535.801 287.417 535.379 285.725 531.572 c 4
 283.61 526.497 284 513 283.61 499.851 c 6
 283.61 420.723 l 5
 283.61 420.723 295 421 302.449 420.723 c 20
 338.4 420.723 365.43 436.717 365.43 469.283 c 4
89 407 m 4
 89 274 197 165 330 165 c 4
 463 165 572 274 572 407 c 4
 572 540 463 648 330 648 c 4
 197 648 89 540 89 407 c 4
56 407 m 4
 56 558 178 680 329 680 c 4
 480 680 603 558 603 407 c 4
 603 256 480 133 329 133 c 4
 178 133 56 256 56 407 c 4
EndSplineSet
Substitution2: "'smcp' Lowercase to Small Capitals lookup 2-1" registered.sc
EndChar

StartChar: macron
Encoding: 175 175 108
Width: 483
Flags: HW
HStem: 550 46<557.21 774.904>
VStem: 556 225<550.013 596>
LayerCount: 2
Fore
SplineSet
556 559 m 0
 556 561 557 596 568 596 c 2
 776 596 l 2
 778 596 781 595 781 589 c 0
 781 584 780 575 775 557 c 0
 773 551 768 550 768 550 c 1
 562 550 l 1
 562 550 556 549 556 559 c 0
EndSplineSet
EndChar

StartChar: degree
Encoding: 176 176 109
Width: 274
Flags: HW
HStem: 437 37<93.8121 179.842> 597 37<93.8121 179.842>
VStem: 38 37<492.812 578.842> 198 37<492.812 578.842>
LayerCount: 2
Fore
SplineSet
75 536 m 0
 75 502 103 474 137 474 c 0
 171 474 198 502 198 536 c 0
 198 570 171 597 137 597 c 0
 103 597 75 570 75 536 c 0
38 536 m 0
 38 590 83 634 137 634 c 0
 191 634 235 590 235 536 c 0
 235 482 191 437 137 437 c 0
 83 437 38 482 38 536 c 0
EndSplineSet
Substitution2: "'smcp' Lowercase to Small Capitals lookup 2-1" degree.sc
EndChar

StartChar: plusminus
Encoding: 177 177 110
Width: 548
Flags: HW
HStem: 6 56<38.4861 510.076> 305 56<38.4861 245 301 510.076>
VStem: 245 56<94.125 305 361 567.966>
LayerCount: 2
Fore
SplineSet
49 62 m 1
 129.168 62 458 62 505 62 c 0
 509 62 514 58 514 50 c 0
 514 33.7207 506 14 498 6 c 1
 423 6 40 6 40 6 c 1
 40 6 34 6 34 16 c 0
 34 20 39 54 49 62 c 1
49 361 m 1
 129.168 361 245 361 245 361 c 9
 245 361 245 542 245 561 c 1
 261 567 281 572 288 572 c 0
 298 572 301 566 301 566 c 1
 301 361 l 25
 381 361 425 361 505 361 c 16
 509 361 514 357 514 349 c 0
 514 332.721 506 313 498 305 c 1
 423 305 301 305 301 305 c 25
 301 305 301 180 301 103 c 1
 289 94 268 92 258 92 c 0
 251 92 245 97 245 101 c 2
 245 305 l 25
 40 305 l 1
 40 305 34 305 34 315 c 0
 34 319 39 353 49 361 c 1
EndSplineSet
EndChar

StartChar: uni00B2
Encoding: 178 178 111
Width: 358
Flags: HW
HStem: 254 55<121.313 283.313> 602 45<108.803 210.695>
VStem: 227.313 65<472.152 585.997>
LayerCount: 2
Fore
SplineSet
320.312 360 m 1
 309.312 331 297.312 287 283.312 254 c 1
 51.3135 254 l 1
 45.3135 254 37.3135 262 39.3135 266 c 1
 79.7432 309.998 138.556 363.188 179.6 418 c 0
 207.588 455.378 227.312 493.511 227.312 530 c 0
 227.312 572 203.312 602 161.312 602 c 0
 116.312 602 92.3135 575 74.3135 553 c 1
 70.3135 549 56.3135 565 57.3135 570 c 1
 80.3135 610 127.312 647 173.312 647 c 0
 243.312 647 292.312 603 292.312 540 c 0
 292.312 507 276.312 475 246.312 439 c 0
 219.312 407 169.312 358 121.312 309 c 1
 129.312 309 241.312 309 241.312 309 c 2
 282.312 309 295.312 353 301.312 363 c 0
 302.312 365 303.312 365 306.312 366 c 0
 309.312 366 317.312 364 320.312 360 c 1
EndSplineSet
EndChar

StartChar: uni00B3
Encoding: 179 179 112
Width: 318
Flags: HW
HStem: 249 28<107.743 187.501> 607 39<102.602 180.209>
VStem: 193 56<513.694 596.981> 217 64<312.363 429.422>
LayerCount: 2
Fore
SplineSet
162 646 m 0xe0
 204 646 249 620 249 569 c 0xe0
 249 525 213 496 191 486 c 1
 217 486 281 452 281 386 c 0
 281 298 205 249 118 249 c 0
 96 249 61 255 51 264 c 1
 51 264 39 275 39 288 c 0
 39 308 54 321 70 321 c 0
 87 321 94 304 106 292 c 0
 116 282 130 277 145 277 c 0
 187 277 217 307 217 368 c 0xd0
 217 417 182 454 145 454 c 0
 127 454 110 447 105 446 c 1
 102.858 448.141 101.004 452.575 100.05 457 c 0
 99.2207 460.841 99.0703 464.677 100 467 c 1
 149 477 193 507 193 556 c 0
 193 582 168 607 142 607 c 0
 105 607 78 576 72 570 c 1
 67 572 62 585 63 586 c 1
 77 607 109 646 162 646 c 0xe0
EndSplineSet
EndChar

StartChar: acute
Encoding: 180 180 113
Width: 489
Flags: HW
HStem: 527 160
VStem: 521 168
LayerCount: 2
Fore
SplineSet
648 687 m 0
 683 687 689 668 689 663 c 0
 689 624 543 527 533 527 c 0
 526 527 521 534 521 540 c 0
 521 546 578 637 614 678 c 0
 619 683 634 687 648 687 c 0
EndSplineSet
EndChar

StartChar: uni00B5
Encoding: 181 181 114
Width: 541
Flags: HW
HStem: -227 21G<126 137> -9 73<167.372 250.249 410.184 469.783> 417 20G<113 124 355 366>
VStem: 95 77<250.141 422.656> 95 43<108.623 298.513> 337 77<250.141 422.656>
LayerCount: 2
Fore
SplineSet
144 223 m 0xf4
 144 144 159 64 195 64 c 0
 262 64 312 155 337 227 c 1
 337 251 337 275 337 298 c 0
 337 311 338 379 337 417 c 1
 342 425 349 437 361 437 c 0
 371 437 414 413 414 400 c 0
 414 382 405 335 391 246 c 0
 389 236 381 195 381 195 c 1
 381 124 405 66 451 66 c 0
 477 66 495 87 502 96 c 1
 505 96 508 92 511 87 c 0
 513 83 514 79 514 76 c 0
 501 32 461 -4 421 -4 c 0
 373 -3 358 115 356 142 c 1
 326 72 271 -9 201 -9 c 0
 159 -9 143 71 138 101 c 1xec
 140 76 133 -89 155 -207 c 1
 150 -215 143 -227 131 -227 c 0
 121 -227 78 -203 78 -190 c 0
 78 -172 87 100 99 204 c 1
 99 228 95 275 95 298 c 0
 95 311 96 379 95 417 c 1
 100 425 107 437 119 437 c 0
 129 437 172 413 172 400 c 0
 172 382 168 335 149 246 c 0
 148 240 144 223 144 223 c 0xf4
EndSplineSet
EndChar

StartChar: paragraph
Encoding: 182 182 115
Width: 484
Flags: HW
HStem: -4 27<156.918 214.942 372.084 432.289> 2 34<268.061 318.941> 288 40<265 321> 299 40<362 391.484> 611 37<265.286 321.805> 624 29<370.14 425.455>
VStem: 34 231<391.968 555.804> 226 39<42.7588 287> 322 40<42.7588 292 339 610.302>
LayerCount: 2
Fore
SplineSet
322 333 m 5x2980
 322 369 322 593 322 606 c 5
 318 610 303 611 293 611 c 4
 283 611 271 611 265 605 c 13
 265 605 265 430 265 328 c 5
 271 328 318 330 322 333 c 5x2980
321 292 m 17
 307 291 281 289 265 288 c 9
 265 221 265 183 265 116 c 16
 265 86 265 58 268 42 c 0
 269 35 289 36 293 36 c 0x6180
 300 36 318 36 319 42 c 0
 322 58 322 86 322 116 c 2
 321 292 l 17
361 299 m 1x1680
 361 228 361 187 361 116 c 16
 361 86 361 58 366 42 c 0
 369 31 419 23 431 23 c 1
 433 23 433 -2 431 -4 c 1x9680
 368 -2 360 2 297 2 c 0x4280
 251 2 198 -2 158 -4 c 1
 156 2 155 19 160 23 c 1
 168 23 218 31 221 42 c 0
 226 58 226 86 226 116 c 2
 226 287 l 17x8180
 98 287 34 399 34 469 c 0
 34 578 123 652 205 652 c 0
 264 652 243 648 302 648 c 0x8a80
 369 648 423 653 423 653 c 1
 428 648 427 627 422 624 c 1
 407 624 370 616 365 604 c 0
 363 597 362 591 362 540 c 0
 362 479 362 358 362 339 c 1
 367 338 411 352 411 352 c 1
 416 352 421 350 421 346 c 0
 420 336 399 312 392 309 c 0
 381 304 369 300 361 299 c 1x1680
EndSplineSet
Substitution2: "'sinf' Scientific Inferiors lookup 5-1" paragraph.sinf
Substitution2: "'sups' Superscript lookup 6-1" paragraph.ssup
Substitution2: "'smcp' Lowercase to Small Capitals lookup 2-1" paragraph.sc
Substitution2: "'subs' Subscript lookup 1-1" paragraph.subs
Substitution2: "'ordn' Ordinals lookup 0-1" paragraph.ordn
EndChar

StartChar: periodcentered
Encoding: 183 183 116
Width: 224
Flags: HW
HStem: 205 117<67.2549 156.745>
VStem: 54 116<217.764 309.619>
LayerCount: 2
Fore
SplineSet
54 264 m 0
 54 296 80 322 112 322 c 0
 144 322 170 296 170 264 c 0
 170 232 144 205 112 205 c 0
 80 205 54 232 54 264 c 0
EndSplineSet
EndChar

StartChar: cedilla
Encoding: 184 184 117
Width: 492
Flags: HW
HStem: -152 24<645.959 721.915> -61 34<699 726.414>
VStem: 731 37<-122.34 -64.0801>
LayerCount: 2
Fore
SplineSet
699 -27 m 1
 724 -27 l 2
 750 -27 768 -50 768 -76 c 0
 768 -123 728 -152 686 -152 c 0
 669 -152 647 -142 643 -138 c 1
 640 -134 635 -126 635 -120 c 0
 635 -118 636 -115 638 -114 c 1
 645 -118 667 -128 688 -128 c 0
 716 -128 731 -112 731 -95 c 0
 731 -71 713 -61 700 -61 c 0
 689 -61 684 -64 674 -68 c 0
 672 -68 662 -59 664 -55 c 0
 673 -40 688 -18 696 -4 c 1
 717 -4 l 1
 699 -27 l 1
EndSplineSet
EndChar

StartChar: uni00B9
Encoding: 185 185 118
Width: 292
Flags: HW
HStem: 253 25<57.7773 115.633 207.768 258.819>
VStem: 123 74<293.746 568.147>
LayerCount: 2
Fore
SplineSet
123 518 m 2
 123 564 115 569 104 569 c 0
 92 569 68 560 48 553 c 1
 42 556 39 564 39 570 c 0
 39 573 40 577 42 578 c 0
 148 622 189 652 192 652 c 2
 194 652 l 2
 200 652 205 632 206 629 c 1
 206 629 197 587 197 548 c 2
 197 340 l 2
 197 320 198 309 205 293 c 0
 208 286 249 279 257 279 c 1
 260 279 260 257 257 253 c 1
 218 254 200 256 161 256 c 0
 122 256 100 254 61 253 c 1
 56 256 56 278 61 278 c 0
 73 278 114 285 117 292 c 0
 122 305 123 328 123 338 c 2
 123 518 l 2
EndSplineSet
EndChar

StartChar: ordmasculine
Encoding: 186 186 119
Width: 388
Flags: HW
HStem: 247 24<163.771 239.041> 530 24<149.201 227.228>
VStem: 38 69<322.561 478.564> 281 69<323.778 480.457>
LayerCount: 2
Fore
SplineSet
187 530 m 0
 129 530 107 467 107 411 c 0
 107 345 138 271 204 271 c 0
 259 271 281 336 281 391 c 0
 281 456 252 530 187 530 c 0
196 554 m 0
 283 554 350 486 350 403 c 0
 350 320 283 247 196 247 c 0
 109 247 38 316 38 399 c 0
 38 484 107 554 196 554 c 0
EndSplineSet
Substitution2: "'smcp' Lowercase to Small Capitals lookup 2-1" ordmasculine.sc
EndChar

StartChar: guillemotright
Encoding: 187 187 120
Width: 482
Flags: HW
LayerCount: 2
Fore
SplineSet
277 246 m 0
 277 240 274 233 272 230 c 1
 141 151 64 72 63 71 c 1
 47 76 43 80 41 83 c 1
 47 104 143 206 189 247 c 1
 143 288 47 390 41 411 c 1
 43 414 47 418 63 423 c 1
 64 422 141 343 272 264 c 1
 276 255 277 256 277 246 c 0
457 246 m 0
 457 240 454 233 452 230 c 1
 321 151 244 72 243 71 c 1
 227 76 223 80 221 83 c 1
 227 104 323 206 369 247 c 1
 323 288 227 390 221 411 c 1
 223 414 227 418 243 423 c 1
 244 422 321 343 452 264 c 1
 456 255 457 256 457 246 c 0
EndSplineSet
Substitution2: "'smcp' Lowercase to Small Capitals lookup 2-1" guillemotright.sc
EndChar

StartChar: onequarter
Encoding: 188 188 121
Width: 699
Flags: HW
HStem: 106 45<442 556 618 652.032> 251 22<51.0603 98.6719 184.454 233.491>
VStem: 112 62<288.617 554.988> 556 59<-2.87817 106 151 305>
LayerCount: 2
Fore
SplineSet
606 407 m 4
 612 407 615 400 615 395 c 12
 615 298 615 238 615 146 c 5
 622 146 640 146 650 146 c 5
 659 138 664 120 656 106 c 5
 642 106 624 106 618 106 c 13
 618 0 l 5
 616.442 -1.55844 602.47 -3.11688 588 -3.13327 c 4
 574.616 -3.14843 560.805 -1.84417 556 2 c 13
 556 106 l 5
 552 106 391 106 391 106 c 5
 386 107 382 111 381 122 c 5
 586 395 l 6
 590 400 598 407 606 407 c 4
556 151 m 13
 556 151 556 296 556 305 c 5
 515 253 487 209 442 151 c 5
 449 151 548 151 556 151 c 13
174 534 m 2
 174 336 l 2
 174 316 176 302 181 287 c 0
 183 280 223 273 231 273 c 1
 236 268 233 253 232 251 c 1
 193 252 185 254 146 254 c 0
 107 254 93 252 54 251 c 1
 49 254 50 269 54 273 c 1
 66 273 101 281 104 288 c 0
 109 301 112 324 112 334 c 2
 112 520 l 2
 112 539 105 555 95 555 c 0
 84 555 67 547 47 540 c 1
 41 543 36 552 34 558 c 1
 53 570 84 588 169 638 c 1
 176 636 182 629 182 622 c 1
 182 622 174 573 174 534 c 2
186.25 -12.6621 m 0
 175.587 -10.5215 174.694 -3.91699 174.694 -3.91699 c 1
 524.32 636.398 l 1
 525.562 638.903 538.35 647.353 555.41 643.928 c 0
 561.097 642.787 562.876 636.922 563.057 634.132 c 1
 218.046 2.06934 l 2
 214.673 -3.67969 202.599 -15.9424 186.25 -12.6621 c 0
EndSplineSet
EndChar

StartChar: onehalf
Encoding: 189 189 122
Width: 750
Flags: HW
HStem: -1 55<517 679> 251 22<54.0603 101.672 187.454 236.491> 347 45<504.49 606.382>
VStem: 115 62<288.617 554.988> 623 65<217.197 330.997>
LayerCount: 2
Fore
SplineSet
569 392 m 0
 639 392 688 348 688 285 c 0
 688 252 672 220 642 184 c 0
 615 152 565 103 517 54 c 1
 525 54 637 54 637 54 c 2
 678 54 691 98 697 108 c 0
 698 110 699 110 702 111 c 0
 705 111 713 109 716 105 c 1
 705 76 693 32 679 -1 c 1
 447 -1 l 1
 441 -1 433 7 435 11 c 1
 472.72 52.0479 526.44 101.096 566.803 152 c 0
 599.205 192.864 623 234.923 623 275 c 0
 623 317 599 347 557 347 c 0
 512 347 488 320 470 298 c 1
 466 294 452 310 453 315 c 1
 476 355 523 392 569 392 c 0
177 534 m 2
 177 336 l 2
 177 316 179 302 184 287 c 0
 186 280 226 273 234 273 c 1
 239 268 236 253 235 251 c 1
 196 252 188 254 149 254 c 0
 110 254 96 252 57 251 c 1
 52 254 53 269 57 273 c 1
 69 273 104 281 107 288 c 0
 112 301 115 324 115 334 c 2
 115 520 l 2
 115 539 108 555 98 555 c 0
 87 555 70 547 50 540 c 1
 44 543 39 552 37 558 c 1
 56 570 87 588 172 638 c 1
 179 636 185 629 185 622 c 1
 185 622 177 573 177 534 c 2
564.057 634.132 m 1
 219.046 2.06934 l 2
 215.673 -3.67969 203.599 -15.9424 187.25 -12.6621 c 0
 176.587 -10.5215 175.694 -3.91699 175.694 -3.91699 c 1
 525.32 636.398 l 1
 526.562 638.903 539.35 647.354 556.41 643.928 c 0
 562.097 642.787 563.876 636.922 564.057 634.132 c 1
EndSplineSet
EndChar

StartChar: threequarters
Encoding: 190 190 123
Width: 700
Flags: HW
HStem: 106 45<443 557 619 653.032> 249 28<103.743 183.501> 607 39<98.6021 176.209>
VStem: 189 56<513.694 596.981> 213 64<312.363 429.422> 557 59<-2.87817 106 151 305>
LayerCount: 2
Fore
SplineSet
607 407 m 0xe4
 613 407 616 400 616 395 c 8
 616 298 616 238 616 146 c 1
 623 146 641 146 651 146 c 1
 660 138 665 120 657 106 c 1
 643 106 625 106 619 106 c 9
 619 0 l 1
 617.442 -1.55859 603.47 -3.11719 589 -3.13281 c 0
 575.616 -3.14844 561.805 -1.84375 557 2 c 9
 557 106 l 1
 553 106 392 106 392 106 c 1
 387 107 383 111 382 122 c 1
 587 395 l 2
 591 400 599 407 607 407 c 0xe4
557 151 m 9
 557 151 557 296 557 305 c 1
 516 253 488 209 443 151 c 1
 450 151 549 151 557 151 c 9
158 646 m 0
 200 646 245 620 245 569 c 0xf4
 245 525 209 496 187 486 c 1
 213 486 277 452 277 386 c 0
 277 298 201 249 114 249 c 0
 92 249 57 255 47 264 c 1
 47 264 35 275 35 288 c 0
 35 308 50 321 66 321 c 0
 83 321 90 304 102 292 c 0
 112 282 126 277 141 277 c 0
 183 277 213 307 213 368 c 0xec
 213 417 178 454 141 454 c 0
 123 454 106 447 101 446 c 1
 98.6973 448.303 96.7256 453.257 95.8496 458 c 0
 95.2031 461.496 95.1514 464.878 96 467 c 1
 145 477 189 507 189 556 c 0xf4
 189 582 164 607 138 607 c 0
 101 607 74 576 68 570 c 1
 63 572 58 585 59 586 c 1
 73 607 105 646 158 646 c 0
569.057 634.132 m 1
 224.046 2.06934 l 2
 220.673 -3.67969 208.599 -15.9424 192.25 -12.6621 c 0
 181.587 -10.5215 180.694 -3.91699 180.694 -3.91699 c 1
 530.32 636.398 l 1
 531.562 638.903 544.35 647.354 561.41 643.928 c 0
 567.097 642.787 568.876 636.922 569.057 634.132 c 1
EndSplineSet
EndChar

StartChar: questiondown
Encoding: 191 191 124
Width: 345
Flags: HW
HStem: -223 94<167.451 286.234> -223 73<158.434 267.661> 320 110<189.463 275.77>
VStem: 41 50<-116.531 -13.6233> 178 110<331.463 417.77> 226 29<177.761 259.712>
LayerCount: 2
Fore
SplineSet
288 374 m 0x38
 288 344 262 320 232 320 c 0
 202 320 178 344 178 374 c 0
 178 404 202 430 232 430 c 0
 262 430 288 404 288 374 c 0x38
255 249 m 1xb4
 260 228 263 185 263 158 c 0
 263 84 215 58 178 34 c 0
 129 3 91 -20 91 -68 c 0
 91 -120 127 -150 165 -150 c 0x78
 218 -150 225 -129 251 -129 c 0
 265 -129 295 -146 295 -179 c 0
 295 -194 291 -209 286 -216 c 1
 276 -221 259 -223 238 -223 c 0
 172 -223 41 -155 41 -38 c 0
 41 30 67 72 142 115 c 0
 169 131 214 166 220 177 c 0
 229 193 226 224 226 247 c 1
 230 255 233 259 242 260 c 1
 247 258 252 255 255 249 c 1xb4
EndSplineSet
Substitution2: "'smcp' Lowercase to Small Capitals lookup 2-1" questiondown.sc
EndChar

StartChar: AE
Encoding: 198 198 131
Width: 897
Flags: HW
HStem: -3 29<-15.4375 34.7074 127.31 187.446 355.373 412.516> 2 35<522.862 751.654> 256 40<268.249 430> 312 37<516.25 693.701> 408 20G<733.75 740.75> 621 43<582.213 753.051> 621 35<519.782 675.236> 629 29<355.222 397.507>
VStem: 430 86.25<47.2663 254 297 310.528 349.429 561.729> 722.25 32<230.002 289.298 372.014 427.976> 792.25 32<523.07 569.412>
LayerCount: 2
Fore
SplineSet
430 297 m 9x38e0
 430 562 l 17
 409 529 268.25 300 268.25 300 c 1
 268.25 300 267.25 296 269.25 296 c 0
 295.25 295 323.25 295 346.25 295 c 0
 377.25 295 411 296 430 297 c 9x38e0
473.25 656 m 0x3ae0
 566.25 656 686.25 664 795.25 664 c 1
 802.25 614 815.25 573 824.25 528 c 1
 821.25 525 813.25 523 806.25 523 c 0
 799.25 523 793.25 525 792.25 530 c 0
 770.25 610 729.25 621 676.25 621 c 2
 590.25 621 l 0
 578.25 621 524.25 620 521.25 610 c 0
 516.25 594 516.25 566 516.25 539 c 2
 516.25 355 l 2
 516.25 350 537.25 349 559.25 349 c 2
 612.25 349 l 2
 708.25 349 705.25 355 722.25 421 c 0
 723.25 426 730.25 428 737.25 428 c 0
 744.25 428 751.25 426 754.25 423 c 1
 754.25 234 l 1
 752.25 232 745.25 230 738.25 230 c 0
 731.25 230 724.25 233 722.25 238 c 0
 707.25 295 703.25 298 694.25 304 c 0
 683.25 311 626.25 312 588.25 312 c 0
 560.25 312 516.25 312 516.25 303 c 2
 516.25 116 l 2
 516.25 101 516.25 52 522.25 47 c 0
 535.25 37 551.25 37 593.25 37 c 2
 641.25 37 l 2
 679.25 37 738.25 46 767.25 61 c 0
 786.25 71 814.25 109 830.25 162 c 0
 831.25 166 837.25 168 844.25 168 c 0
 854.25 168 866.25 165 869.25 162 c 1
 850.25 108 822.25 40 815.25 -4 c 1
 706.25 -4 566.25 2 475.25 2 c 0x7ce0
 408.25 2 357.25 -3 357.25 -3 c 1
 353 2 355.25 26 357.25 26 c 1
 369.25 26 418.25 37 423.25 49 c 1
 429.25 72 430 118 430.25 135 c 10
 430.25 254 l 17
 412 255 366.25 256 341.25 256 c 0
 300.25 256 287.25 254 241.25 251 c 0
 239.25 251 236.25 248 236.25 248 c 1
 236.25 248 192.25 178 161.25 129 c 0
 141.25 98 121.25 65 121.25 52 c 0
 121.25 28 177.25 26 185.25 26 c 1
 188.25 23 189.25 3 187.25 -3 c 1xb8e0
 147.25 -1 134.25 2 90.25 2 c 0x78e0
 44.25 2 32.25 -1 -13.75 -3 c 1
 -16.75 0 -16.75 19 -13.75 26 c 1
 -1.75 26 29.25 36 43.25 45 c 0
 68.25 61 98.25 104 118.25 137 c 2
 395.25 584 l 2
 398.25 589 402.25 597 402.25 604 c 0
 402.25 622 369.25 629 357.25 629 c 1
 352 635 355.25 656 357.25 658 c 1xb9e0
 357.25 658 406.25 656 473.25 656 c 0x3ae0
EndSplineSet
EndChar

StartChar: Eth
Encoding: 208 208 141
Width: 710
Flags: HW
HStem: -3 35<41.6715 113.213 210.782 388.991> 311 37<47.3375 366.829> 624 34<207.918 374.064> 633 29<39.7892 110.637>
VStem: 116.386 88<46.3146 620.395> 557.386 99<197.68 448.61>
LayerCount: 2
Fore
SplineSet
365.001 311 m 5xcc
 336.001 311 63.001 311 49.001 311 c 5
 45.001 311 44.001 339 50.001 348 c 5
 79.001 348 351.001 348 365.001 348 c 5
 369.001 348 369.001 320 365.001 311 c 5xcc
EndSplineSet
Refer: 35 68 N 1 0 0 1 -0.000190735 0 2
EndChar

StartChar: multiply
Encoding: 215 215 148
Width: 464
Flags: HW
HStem: 409 20G<74.5 80.5 384.5 390.5>
LayerCount: 2
Fore
SplineSet
199 247 m 1
 197 249 55 391 55 391 c 1
 55 405 70 429 79 429 c 0
 82 429 83.9668 428.965 86 427 c 2
 86 427 233 285 235 283 c 9
 380 427 l 2
 381.003 427.997 383 429 386 429 c 0
 395 429 408 399 408 389 c 1
 408 389 271 253 268 250 c 1
 269 249 408 105 408 105 c 1
 408 90 397 65 386 65 c 0
 384 65 380.5 65.5 379 67 c 2
 379 67 233 213 232 214 c 1
 230 212 83 66 83 66 c 2
 81.4971 64.5068 79 64 77 64 c 0
 68 64 55 95 55 105 c 1
 55 105 195 243 199 247 c 1
EndSplineSet
Substitution2: "'smcp' Lowercase to Small Capitals lookup 2-1" multiply.sc
EndChar

StartChar: Oslash
Encoding: 216 216 149
Width: 748
Flags: HW
HStem: -10 37<305.874 466.033> 630 37<274.613 434.715> 647 20G<552.276 569.5>
VStem: 46 99<214.231 447.375> 597 99<209.819 443.304>
LayerCount: 2
Fore
SplineSet
565 667 m 17xb8
 574 665 598 651 594 645 c 9
 176 -13 l 17
 167 -10 143 4 147 10 c 9
 565 667 l 17xb8
EndSplineSet
Refer: 46 79 N 1 0 0 1 0 0 2
EndChar

StartChar: Thorn
Encoding: 222 222 155
Width: 531
Flags: HW
HStem: -3 29<42.7891 113.638 212.134 282.982> 124 36<241.642 341.778> 475 35<211.514 331.333> 633 29<42.7891 113.638 212.134 282.982>
VStem: 119.386 87<32.7426 470.37 501 626.257> 409.386 92<236.389 400.698>
LayerCount: 2
Fore
SplineSet
163.386 657 m 0
 202.386 657 239.386 660 280.386 662 c 1
 285.386 657 284.386 638 280.386 633 c 1
 268.386 633 214.386 628 211.386 617 c 0
 206.386 601 206.386 573 206.386 543 c 2
 206.386 501 l 17
 226.386 510 267.386 510 284.386 510 c 0
 396.386 510 501.386 430 501.386 328 c 0
 501.386 223 421.386 124 290.386 124 c 0
 267.386 124 253.386 129 245.386 134 c 0
 242.386 136 228.386 151 228.386 156 c 0
 228.386 160 231.386 163 233.386 164 c 1
 244.386 161 255.386 160 270.386 160 c 0
 350.386 160 409.386 215 409.386 304 c 0
 409.386 396 362.386 475 255.386 475 c 0
 243.386 475 215.386 469 211.386 460 c 0
 206.386 448 206.386 415 206.386 385 c 0
 206.386 116 l 2
 206.386 86 206.386 58 211.386 42 c 0
 214.386 31 268.386 26 280.386 26 c 1
 284.386 21 285.386 2 280.386 -3 c 1
 239.386 -1 202.386 2 163.386 2 c 0
 124.386 2 86.3857 -1 45.3857 -3 c 1
 40.3857 2 41.3857 21 45.3857 26 c 1
 57.3857 26 111.386 31 114.386 42 c 0
 119.386 58 119.386 86 119.386 116 c 2
 119.386 543 l 2
 119.386 573 119.386 601 114.386 617 c 0
 111.386 628 57.3857 633 45.3857 633 c 1
 41.3857 638 40.3857 657 45.3857 662 c 1
 86.3857 660 124.386 657 163.386 657 c 0
EndSplineSet
EndChar

StartChar: germandbls
Encoding: 223 223 156
Width: 537
Flags: HW
HStem: -10 31<28.3854 85.2271 185.81 245.386 346.643 419.513> 391 41<41.3483 96.3853> 660 33<221.057 326.103>
VStem: 96.3853 77.0003<32.7426 391 432 545.797> 247.386 58<314.848 376.33> 368.386 75<488.66 624.745> 443.386 68<55.8919 152.096>
LayerCount: 2
Fore
SplineSet
267.386 693 m 0xfc
 361.386 693 443.386 655 443.386 561 c 0xfc
 443.386 510.359 415.173 475.255 384.26 447 c 0
 346.805 412.765 305.386 388.584 305.386 359 c 0
 305.386 318 356.386 290 403.386 265 c 0
 450.386 240 511.386 206 511.386 137 c 0
 511.386 58 455.386 -10 379.386 -10 c 0
 318.386 -10 271.386 16 261.386 33 c 1
 261.386 37.4961 261.516 41.8438 261.809 46 c 0
 263.665 72.3486 272.064 91 295.386 91 c 0
 314.002 91 322.753 68.7236 336 49.3047 c 0
 346.235 34.2998 359.155 21 381.386 21 c 0
 417.386 21 443.386 52 443.386 102 c 0xfa
 443.386 147.283 403.194 169.6 359.213 193 c 0
 306.066 221.275 247.386 251.132 247.386 325 c 0
 247.386 367.45 287.205 392.131 321.157 430 c 0
 346.392 458.145 368.386 493.575 368.386 549 c 0
 368.386 614 334.386 660 270.386 660 c 0
 181.386 660 173.386 557 173.386 475 c 0
 173.386 343 173.386 116 173.386 116 c 2
 173.386 86 173.386 58 178.386 42 c 0
 181.386 31 233.386 26 245.386 26 c 1
 249.386 21 250.386 2 245.386 -3 c 1
 204.386 -1 173.386 2 134.386 2 c 0
 95.3857 2 69.3857 -1 28.3857 -3 c 1
 23.3857 2 24.3857 21 28.3857 26 c 1
 40.3857 26 88.3857 31 91.3857 42 c 0
 96.3857 58 96.3857 86 96.3857 116 c 2
 96.3857 391 l 1
 38.3857 391 l 2
 35.3857 391 33.3857 397 33.3857 400 c 0
 33.3857 404 58.3857 431 59.3857 432 c 1
 75.3857 432 85.3857 432 96.3857 432 c 1
 96.3857 433 96.3857 434 96.3857 438 c 0
 96.3857 560 187.386 693 267.386 693 c 0xfc
EndSplineSet
Substitution2: "'smcp' Lowercase to Small Capitals lookup 2-1" germandbls.sc
EndChar

StartChar: ae
Encoding: 230 230 163
Width: 653
Flags: HW
HStem: -8 64<414.721 544.098> -8 54<138.481 211.032> 248 37<339 524.487> 402 36<165.987 260.5 392.842 487.878>
VStem: 37 83<64.4927 167.195> 52 81<294.428 353.807> 265 69<142.672 220> 525 85<285.847 368.285>
LayerCount: 2
Fore
SplineSet
181 194 m 0x7b
 145 181 120 154 120 116 c 0
 120 79 149 46 187 46 c 0
 223 46 279 74 279 104 c 1
 270.902 121.667 263.889 162.637 260.751 193 c 0
 259.627 203.883 259 213.404 259 220 c 1
 233 211 198 200 181 194 c 0x7b
443 402 m 0
 359 402 337 285 339 285 c 1
 348 285 492 285 502 285 c 0
 514 285 524 290 525 308 c 0
 526 332 504 402 443 402 c 0
460 438 m 0
 580 438 610 342 610 302 c 0
 610 273 605 256 586 255 c 0
 555 253 346 248 334 248 c 1
 331 120 409 56 497 56 c 0
 552 56 594 94 607 109 c 1
 608 109 615 103 615 95 c 0
 615 90 612 82 609 77 c 0
 591 48 541 -8 463 -8 c 0xb7
 402 -8 332 20 298 77 c 1
 274 52 189 -8 154 -8 c 0
 88 -8 37 42 37 107 c 0x7b
 37 148 60 174 83 186 c 0
 131 210 220 243 249 256 c 0
 259 260 261 262 263 270 c 0
 265 279 265 290 265 302 c 0
 265 347 237 398 188 398 c 0
 153 398 140 374 133 335 c 0
 127 301 111 288 86 288 c 0
 65 288 52 310 52 330 c 0x77
 52 338 56 350 59 354 c 1
 83 377 166 436 239 436 c 0
 282 436 315 406 332 374 c 1
 356 400 403 438 460 438 c 0
EndSplineSet
Substitution2: "'smcp' Lowercase to Small Capitals lookup 2-1" ae.sc
EndChar

StartChar: eth
Encoding: 240 240 173
Width: 517
Flags: HW
HStem: -7 33<207.397 313.579> 406 33<182.49 300.167> 664 24<86.2432 106.22>
VStem: 40 86<116.483 316.648> 375 87<128.32 331.716>
LayerCount: 2
Fore
SplineSet
346 699 m 17
 354 694 371 674 364 668 c 9
 128 509 l 17
 121 514 104 535 111 541 c 9
 346 699 l 17
234 406 m 0
 154 406 126 319 126 227 c 0
 126 129 178 26 259 26 c 0
 338 26 375 104 375 202 c 0
 375 257 366 308 355 329 c 0
 327 382 288 406 234 406 c 0
247 439 m 0
 276 439 312 435 332 423 c 1
 309 482 267 588 81 664 c 1
 81 671 87 688 95 688 c 1
 182.377 668.072 276.282 607.935 347.229 526 c 0
 415.128 447.585 462 349.206 462 247 c 3
 462 85 361 -7 256 -7 c 0
 120 -7 40 91 40 211 c 0
 40 319 108 439 247 439 c 0
EndSplineSet
Substitution2: "'smcp' Lowercase to Small Capitals lookup 2-1" eth.sc
EndChar

StartChar: divide
Encoding: 247 247 180
Width: 599
Flags: HW
HStem: 5 100<260.438 343.562> 219 56<65.2197 536.076> 388 100<260.438 343.562>
VStem: 252 100<13.4375 96.5625 396.438 479.562>
LayerCount: 2
Fore
SplineSet
252 438 m 0
 252 466 274 488 302 488 c 0
 330 488 352 466 352 438 c 0
 352 410 330 388 302 388 c 0
 274 388 252 410 252 438 c 0
252 55 m 0
 252 83 274 105 302 105 c 0
 330 105 352 83 352 55 c 0
 352 27 330 5 302 5 c 0
 274 5 252 27 252 55 c 0
66 219 m 17
 66 219 60 219 60 229 c 0
 60 233 66 267 77 275 c 9
 254 275 354 275 531 275 c 16
 535 275 540 271 540 263 c 0
 540 247 532 227 524 219 c 1
 449 219 66 219 66 219 c 17
EndSplineSet
Substitution2: "'smcp' Lowercase to Small Capitals lookup 2-1" divide.sc
EndChar

StartChar: oslash
Encoding: 248 248 181
Width: 510
Flags: HW
HStem: -8 21G<125 141.706> -7 33<211.699 318.24> 406 33<187.214 293.584> 417 20G<359.264 375.5>
VStem: 39 86<120.834 313.837> 380 86<116.337 309.213>
LayerCount: 2
Back
Refer: 813 -1 N 1 0 0 1 22 0 3
Fore
SplineSet
129 -8 m 17x9c
 121 -4 99 7 102 13 c 9
 372 437 l 17
 379 434 402 423 399 417 c 9
 129 -8 l 17x9c
EndSplineSet
Refer: 78 111 N 1 0 0 1 1 0 2
Substitution2: "'smcp' Lowercase to Small Capitals lookup 2-1" oslash.sc
EndChar

StartChar: thorn
Encoding: 254 254 187
Width: 495
Flags: HW
HStem: -226 29<0.789013 65.6752 154.095 218.981> -8 35<181.557 298.106> 379 59<206.165 302.355> 628 26<4.28394 62.2135> 674 20G<127.385 150.885>
VStem: 71.3854 77<-190.581 2.99635 52.6571 362.458 379.003 621.593> 372.385 84<139.167 301.166>
LayerCount: 2
Fore
SplineSet
275.386 438 m 0
 399.386 438 456.386 318 456.386 232 c 0
 456.386 103 335.386 -8 222.386 -8 c 0
 196.386 -8 168.386 -2 152.386 3 c 1
 152.386 3 148.386 -2 148.386 -10 c 2
 148.386 -107 l 2
 148.386 -137 148.386 -165 153.386 -181 c 0
 156.386 -192 204.386 -197 216.386 -197 c 1
 220.386 -202 221.386 -221 216.386 -226 c 1
 175.386 -224 148.386 -221 109.386 -221 c 0
 70.3857 -221 44.3857 -224 3.38574 -226 c 1
 -1.61426 -221 -0.614258 -202 3.38574 -197 c 1
 15.3857 -197 63.3857 -192 66.3857 -181 c 0
 71.3857 -165 71.3857 -137 71.3857 -107 c 2
 71.3857 558 l 2
 71.3857 572 71.3857 598 66.3857 610 c 0
 60.3857 624 33.3857 628 5.38574 628 c 1
 4.38574 628 2.38574 653 6.38574 654 c 1
 56.3857 659 106.386 675 148.386 694 c 1
 153.386 694 159.386 685 159.386 678 c 1
 159.386 678 148.386 646 148.386 591 c 2
 148.386 591 148.386 392 148.386 384 c 0
 148.386 383 148.386 379 150.386 379 c 0
 151.386 379 152.386 380 153.386 381 c 0
 178.386 402 235.386 438 275.386 438 c 0
232.386 379 m 0
 191.386 379 148.386 354 148.386 340 c 2
 148.386 100 l 2
 148.386 48 206.386 27 241.386 27 c 0
 324.386 27 372.386 114 372.386 195 c 0
 372.386 314 308.386 379 232.386 379 c 0
EndSplineSet
Substitution2: "'smcp' Lowercase to Small Capitals lookup 2-1" thorn.sc
EndChar

StartChar: Aogonek
Encoding: 260 260 193
Width: 627
Flags: HW
HStem: -223 59<460.755 534.225> -3 29<-10.4375 43.4219 131.557 192.446 403.025 461.809 582.411 631.812> 252 42<204.25 380.249> 643 20G<321.75 327.75>
VStem: 402.25 54<-160.236 -83.4554>
LayerCount: 2
Fore
SplineSet
292.25 294 m 0
 323.25 294 346.25 295 377.25 297 c 0
 379.25 297 380.25 302 380.25 302 c 1
 294.25 535 l 1
 204.25 300 l 1
 204.25 300 204.25 296 206.25 296 c 0
 232.25 295 269.25 294 292.25 294 c 0
293.25 252 m 0
 252.25 252 233.25 252 188.25 249 c 0
 186.25 249 183.25 246 183.25 246 c 1
 183.25 246 153.455 172.931 137.25 125 c 0
 125.4 89.9492 123.25 67 123.25 54 c 0
 123.25 30 182.25 26 190.25 26 c 1
 193.25 23 194.25 3 192.25 -3 c 1
 152.25 -1 139.25 2 95.25 2 c 0
 49.25 2 37.25 -1 -8.75 -3 c 1
 -11.75 0 -11.75 19 -8.75 26 c 1
 3.25 26 38.25 32 48.25 45 c 0
 68.25 71 81.2344 103.006 95.25 139 c 2
 95.25 139 227.25 478 288.25 634 c 0
 294.25 650 317.25 663 326.25 663 c 0
 329.25 663 329.25 661 332.25 660 c 1
 332.25 660 552.25 80 561.25 60 c 0
 571.25 36 621.25 26 629.25 26 c 1
 634.25 19 632.25 0 631.25 -3 c 1
 604.019 -1.63867 583.277 0.186523 558.927 1.21289 c 1
 515.057 -25.0576 456.25 -77.4395 456.25 -121 c 0
 456.25 -136 463.25 -164 497.25 -164 c 0
 548.25 -164 572.25 -126 578.25 -126 c 0
 579.25 -126 583.25 -131 583.25 -139 c 0
 583.25 -144 581.25 -153 578.25 -157 c 0
 556.25 -186 518.25 -223 473.25 -223 c 0
 417.25 -223 402.25 -173 402.25 -146 c 0
 402.25 -91.0127 460.223 -32.0283 514.212 1.97559 c 1
 513.469 1.9707 512.732 1.96484 512 1.95801 c 0
 471.822 1.58984 448.066 -1.13867 405.25 -3 c 1
 400.25 2 401.25 21 406.25 26 c 1
 418.25 26 453.25 31 462.25 39 c 0
 465.25 42 466.25 47 466.25 53 c 0
 466.25 83 400.25 247 400.25 247 c 1
 400.25 247 397.25 251 394.25 251 c 0
 368.25 253 318.25 252 293.25 252 c 0
EndSplineSet
EndChar

StartChar: aogonek
Encoding: 261 261 194
Width: 431
Flags: HW
HStem: -223 59<268.505 341.975> -8 54<138.481 211.996> 398 38<158.777 269.5>
VStem: 37 83<64.4927 166.568> 52 81<294.824 353.758> 210 54<-160.236 -87.1945> 274 76<67.9015 223 245.918 361.958>
LayerCount: 2
Fore
SplineSet
187 46 m 0xf6
 222 46 274 77 274 87 c 2
 274 223 l 17
 247 215 199 201 181 194 c 0
 145 180 120 154 120 116 c 0
 120 79 149 46 187 46 c 0xf6
277 59 m 1
 265 47 189 -8 154 -8 c 0
 88 -8 37 42 37 107 c 0xf6
 37 148 65 179 87 187 c 0
 143 207 233 237 262 250 c 0
 272 254 274 257 274 275 c 2
 274 302 l 2
 274 347 237 398 188 398 c 0
 153 398 140 375 133 336 c 0
 127 302 111 288 86 288 c 0
 65 288 52 310 52 330 c 0xee
 52 334 55 349 59 354 c 1
 90 383 168 436 241 436 c 0
 298 436 350 376 350 299 c 2
 350 93 l 2
 350 66 358 46 381 46 c 0
 399 46 411 57 414 59 c 1
 417 59 418 54 418 51 c 0
 418 45 416 37 413 32 c 1
 403 25 389 15 377 7 c 0
 339 -20 264 -67 264 -121 c 0
 264 -136 271 -164 305 -164 c 0
 356 -164 380 -126 386 -126 c 0
 387 -126 391 -131 391 -139 c 0
 391 -144 389 -153 386 -157 c 0
 364 -186 326 -223 281 -223 c 0
 225 -223 210 -173 210 -146 c 0
 210 -102 265 -37 313 1 c 1
 296 11 279 35 277 59 c 1
EndSplineSet
Substitution2: "'smcp' Lowercase to Small Capitals lookup 2-1" aogonek.sc
EndChar

StartChar: dcroat
Encoding: 273 273 206
Width: 515
Flags: HW
HStem: -8 62<189.397 286.897> 20 27<435.72 493.784> 396 42<193.789 324.598> 525 35<213.529 489.01> 628 26<280.899 338.828> 674 20<404 427.5>
VStem: 36 84<130.201 291.813> 348 77<70.6579 374.572 428.007 621.593>
LayerCount: 2
Fore
SplineSet
219 560 m 1x3f
 248 560 470 560 484 560 c 0
 488 560 490 556 490 552 c 3
 490 547 488 533 484 525 c 1
 455 525 232 525 218 525 c 0
 214 525 213 533 213 537 c 3
 213 542 215 553 219 560 c 1x3f
EndSplineSet
Refer: 67 100 N 1 0 0 1 0 0 2
Substitution2: "'smcp' Lowercase to Small Capitals lookup 2-1" dcroat.sc
EndChar

StartChar: Eogonek
Encoding: 280 280 213
Width: 588
Flags: HW
HStem: -224 59<384.505 457.975> -3 29<42.7891 113.638> 0 37<212.998 428.867> 312 37<206.386 383.837> 408 20G<423.886 430.886> 621 36<209.736 437.839> 633 29<42.9341 113.638>
VStem: 119.386 87<47.2663 310.528 349.429 616.995> 326 54<-161.236 -85.6511> 412.386 32<230.002 289.298 372.014 427.976> 482.386 32<523.07 569.412>
LayerCount: 2
Fore
SplineSet
163.386 657 m 0x9de0
 257.386 657 376.386 664 485.386 664 c 1
 492.386 614 505.386 573 514.386 528 c 1
 511.386 525 503.386 523 496.386 523 c 0
 489.386 523 483.386 525 482.386 530 c 0
 460.386 610 419.386 621 366.386 621 c 2
 280.386 621 l 2
 268.386 621 214.386 620 211.386 610 c 0
 206.386 594 206.386 566 206.386 539 c 2
 206.386 355 l 2
 206.386 350 227.386 349 249.386 349 c 2
 302.386 349 l 2
 398.386 349 395.386 355 412.386 421 c 0
 413.386 426 420.386 428 427.386 428 c 0
 434.386 428 441.386 426 444.386 423 c 1
 444.386 234 l 1
 442.386 232 435.386 230 428.386 230 c 0
 421.386 230 414.386 233 412.386 238 c 0
 397.386 295 393.386 298 384.386 304 c 0
 373.386 311 316.386 312 278.386 312 c 0
 250.386 312 206.386 312 206.386 303 c 2
 206.386 116 l 2
 206.386 101 206.386 52 212.386 47 c 0
 225.386 37 241.386 37 283.386 37 c 2
 331.386 37 l 2
 378.386 37 429.303 44.1387 457.386 61 c 0
 489.292 80.1572 504.386 119 520.386 162 c 0
 521.386 166 527.386 168 534.386 168 c 0
 544.386 168 556.386 165 559.386 162 c 1
 540.386 108 512.386 40 505.386 -4 c 1
 446.386 -4 380 -79 380 -122 c 0
 380 -137 387 -165 421 -165 c 0
 472 -165 496 -127 502 -127 c 0
 503 -127 506 -132 506 -140 c 0
 506 -145 505 -154 502 -158 c 0
 480 -187 442 -224 397 -224 c 0
 341 -224 326 -174 326 -147 c 0
 326 -95.709 379.51 -38.5811 429.911 -3.44531 c 1
 348.168 -2.34668 266.249 -0 164.386 0 c 0xbde0
 117.386 0 84.3857 -3 45.3857 -3 c 1
 40.3857 2 41.3857 21 45.3857 26 c 1
 57.3857 26 111.386 31 114.386 42 c 0
 119.386 58 119.386 86 119.386 116 c 2
 119.386 543 l 2
 119.386 573 119.386 601 114.386 617 c 0
 111.386 628 57.3857 633 45.3857 633 c 1
 41.3857 638 40.3857 657 45.3857 662 c 1xdbe0
 86.3857 660 124.386 657 163.386 657 c 0x9de0
EndSplineSet
EndChar

StartChar: eogonek
Encoding: 281 281 214
Width: 431
Flags: HW
HStem: -224 59<244.505 317.975> -8 64<192.798 298.688> 248 37<116 301.487> 402 36<172.002 264.878>
VStem: 40 71<142.672 248> 186 54<-161.236 -81.0087> 302 85<285.847 368.285>
LayerCount: 2
Fore
SplineSet
337.998 25.4531 m 0
 288 -17 240 -64.1191 240 -122 c 0
 240 -137 247 -165 281 -165 c 0
 332 -165 356 -127 362 -127 c 0
 363 -127 366 -132 366 -140 c 0
 366 -145 365 -154 362 -158 c 0
 340 -187 302 -224 257 -224 c 0
 201 -224 186 -174 186 -147 c 0
 186 -107.405 224.214 -46.2529 263.785 -6.22168 c 1
 256.173 -7.375 248.243 -8 240 -8 c 0
 122 -8 40 82 40 200 c 0
 40 334 149 438 237 438 c 0
 357 438 387 342 387 302 c 0
 387 273 382 256 363 255 c 0
 332 253 123 248 111 248 c 1
 108 120 186 56 274 56 c 0
 329 56 371 94 384 109 c 0
 385 109 392 103 392 95 c 0
 392 90 389 82 386 77 c 0
 377.309 62.998 359.073 43.3486 337.998 25.4531 c 0
116 285 m 0
 125 285 269 285 279 285 c 0
 291 285 301 290 302 308 c 0
 303 332 281 402 220 402 c 0
 136 402 114 285 116 285 c 0
EndSplineSet
Substitution2: "'smcp' Lowercase to Small Capitals lookup 2-1" eogonek.sc
EndChar

StartChar: Hbar
Encoding: 294 294 227
Width: 717
Flags: HW
HStem: -3 29<42.0058 106.855 222.335 283.234 434.188 497.855 612.335 673.997> 299 50<207 511> 470 38<81.157 120 207 511 598 643.843> 633 29<42.0511 105.079 223.221 283.234 434.188 496.079 613.221 673.993>
VStem: 120 87<36.9151 298.069 348.627 470 508 621.28> 511 87<36.9151 296.999 349.001 470 508 621.28>
LayerCount: 2
Fore
SplineSet
166 656 m 0
 210 656 242 660 282 662 c 1
 284 656 285 633 280 633 c 0
 272 633 219 623 216 612 c 0
 209 585 207 550 207 508 c 1
 219 507 303 507 361 507 c 0
 406 507 471 507 511 508 c 1
 511 544 510 589 504 612 c 1
 499 624 449 633 437 633 c 0
 432 633 432 657 437 662 c 1
 483 660 512 656 558 656 c 0
 602 656 632 660 672 662 c 1
 673 659 674 652 674 647 c 0
 674 641 673 633 670 633 c 0
 662 633 609 623 606 612 c 0
 599 585 598 548 598 508 c 1
 609 508 639 508 639 508 c 4
 643 508 644 500 644 495 c 7
 644 489 644 479 638 470 c 5
 609 470 598 470 598 470 c 1
 598 139 l 2
 598 103 599 73 606 46 c 0
 609 35 662 26 670 26 c 0
 673 26 674 17 674 11 c 0
 674 6 673 0 672 -3 c 1
 632 -1 602 2 558 2 c 0
 512 2 483 -1 437 -3 c 1
 432 2 432 26 437 26 c 0
 449 26 499 34 504 46 c 1
 510 69 511 117 511 135 c 2
 511 293 l 2
 511 295 509 297 509 297 c 1
 462 298 412 299 361 299 c 0
 207 299 207 298 207 294 c 2
 207 139 l 2
 207 103 209 73 216 46 c 0
 219 35 272 26 280 26 c 0
 285 26 284 3 282 -3 c 1
 242 -1 210 2 166 2 c 0
 120 2 92 -1 46 -3 c 1
 44 -1 42 6 42 12 c 0
 42 18 44 26 46 26 c 0
 58 26 108 34 113 46 c 1
 119 69 120 117 120 135 c 2
 120 470 l 1
 120 470 100 470 86 470 c 4
 82 470 81 478 81 483 c 7
 81 489 81 499 87 508 c 5
 87 508 113 508 120 508 c 1
 120 552 119 589 113 612 c 1
 108 624 58 633 46 633 c 0
 44 633 42 640 42 646 c 0
 42 652 44 660 46 662 c 1
 92 660 120 656 166 656 c 0
361 471 m 0
 313 471 252 471 207 470 c 9
 207 352 l 2
 207 351 208 349 209 349 c 0
 258 348 305 347 361 347 c 0
 408 347 464 348 509 349 c 1
 509 349 511 351 511 353 c 2
 511 470 l 17
 470 471 403 471 361 471 c 0
EndSplineSet
EndChar

StartChar: hbar
Encoding: 295 295 228
Width: 516
Flags: HW
HStem: -3 29<15.7892 80.6753 169.096 233.982 285.79 350.676 439.096 503.982> 380 58<238.147 324.57> 525 35<23.5294 299.011> 628 26<19.2841 77.2137> 674 20<142.386 165.886>
VStem: 86.3855 77.0003<32.4189 347.537 363.001 621.593> 356.386 77<32.4189 346.845>
LayerCount: 2
Fore
SplineSet
29.001 560 m 1
 58.001 560 280.001 560 294.001 560 c 0
 298.001 560 300.001 556 300.001 552 c 3
 300.001 547 298.001 533 294.001 525 c 1
 265.001 525 42.001 525 28.001 525 c 0
 24.001 525 23.001 533 23.001 537 c 3
 23.001 542 25.001 553 29.001 560 c 1
EndSplineSet
Refer: 71 104 N 1 0 0 1 -0.000190735 0 2
Substitution2: "'smcp' Lowercase to Small Capitals lookup 2-1" hbar.sc
EndChar

StartChar: Iogonek
Encoding: 302 302 235
Width: 328
Flags: HW
HStem: -224 59<126.505 199.975> -3 29<42.0058 106.855 229.752 283.997> 633 29<42.0511 105.079 223.221 283.993>
VStem: 68 54<-161.236 -86.8884> 120 87<36.9151 621.28>
LayerCount: 2
Fore
SplineSet
166 657 m 0xe8
 210 657 242 660 282 662 c 1
 283 659 284 652 284 647 c 0
 284 641 283 633 280 633 c 0
 272 633 219 623 216 612 c 0
 209 585 207 555 207 519 c 2
 207 139 l 2xe8
 207 103 209 73 216 46 c 0
 219 35 272 26 280 26 c 0
 283 26 284 17 284 11 c 0
 284 6 283 0 282 -3 c 1
 264 -2 245 -1 229 0 c 1
 185 -26 122 -78 122 -122 c 0
 122 -137 129 -165 163 -165 c 0
 214 -165 238 -127 244 -127 c 0
 245 -127 248 -132 248 -140 c 0
 248 -145 247 -154 244 -158 c 0
 222 -187 184 -224 139 -224 c 0
 83 -224 68 -174 68 -147 c 0xf0
 68 -93 131 -33 184 2 c 1
 178 2 173 2 166 2 c 0
 120 2 92 -1 46 -3 c 1
 44 -1 42 6 42 12 c 0
 42 18 44 26 46 26 c 0
 58 26 108 34 113 46 c 1
 119 69 120 117 120 135 c 2
 120 523 l 2
 120 541 119 589 113 612 c 1
 108 624 58 633 46 633 c 0
 44 633 42 640 42 646 c 0
 42 652 44 660 46 662 c 1
 92 660 120 657 166 657 c 0xe8
EndSplineSet
EndChar

StartChar: dotlessi
Encoding: 305 305 238
Width: 270
Flags: HW
HStem: -3 29<33.7131 98.5992 187.019 251.905> 368 26<32.4906 93.7579> 416 20G<157.309 179.809>
VStem: 104.309 77<32.4189 361.708>
LayerCount: 2
Fore
SplineSet
181.31 325 m 0
 181.31 116 l 2
 181.31 86 181.31 58 186.31 42 c 0
 189.31 31 237.31 26 249.31 26 c 1
 253.31 21 254.31 2 249.31 -3 c 1
 208.31 -1 181.31 2 142.31 2 c 0
 103.31 2 77.3096 -1 36.3096 -3 c 1
 31.3096 2 32.3096 21 36.3096 26 c 1
 48.3096 26 96.3096 31 99.3096 42 c 0
 104.31 58 104.31 86 104.31 116 c 2
 104.31 298 l 2
 104.31 311 104.31 338 99.3096 350 c 0
 92.3096 367 41.3096 368 34.3096 368 c 1
 32.3096 370 30.3096 389 34.3096 394 c 1
 85.3096 401 137.31 415 177.31 436 c 1
 182.31 436 188.31 425 188.31 420 c 1
 187.31 413 181.31 368 181.31 358 c 2
 181.31 325 l 0
EndSplineSet
Substitution2: "'smcp' Lowercase to Small Capitals lookup 2-1" dotlessi.sc
EndChar

StartChar: kgreenlandic
Encoding: 312 312 245
Width: 533
Flags: HW
HStem: -3 29<33.713 98.5992 187.02 251.906 456.808 527.815> 368 26<32.4906 93.7579> 396 29<305.498 354.869 432.593 495.374>
VStem: 104.31 77<32.4189 116 298 361.708>
LayerCount: 2
Fore
SplineSet
181.31 358 m 2
 181.31 368 187.31 413 188.31 420 c 1
 188.31 425 182.31 436 177.31 436 c 1
 137.31 415 85.3096 401 34.3096 394 c 1
 30.3096 389 32.3096 370 34.3096 368 c 1
 41.3096 368 92.3096 367 99.3096 350 c 0
 104.31 338 104.31 311 104.31 298 c 2
 104.31 116 l 2
 104.31 86 104.31 58 99.3096 42 c 0
 96.3096 31 48.3096 26 36.3096 26 c 1
 32.3096 21 31.3096 2 36.3096 -3 c 1
 77.3096 -1 103.31 2 142.31 2 c 0
 181.31 2 208.31 -1 249.31 -3 c 1
 254.31 2 253.31 21 249.31 26 c 1
 237.31 26 189.31 31 186.31 42 c 0
 181.31 58 181.31 86 181.31 116 c 2
 181.31 204 l 1
 181.31 204 192.31 200 196.31 195 c 0
 253.31 133 339.31 40 339.31 40 c 2
 354.31 24 403.31 -4 462.31 -4 c 0
 489.31 -4 520.31 -1 527.31 2 c 1
 530.31 7 528.31 23 526.31 26 c 1
 500.31 25 460.31 32 434.31 53 c 0
 410.31 73 329.31 168 254.31 249 c 1
 313.31 299 405.31 365 416.31 373 c 0
 437.31 388 479.31 396 493.31 396 c 1
 496.31 400 497.31 419 493.31 425 c 1
 471.31 422 439.31 420 405.31 420 c 0
 373.31 420 338.31 422 309.31 425 c 1
 304.31 423 302.31 403 307.31 396 c 1
 316.31 395 355.31 394 355.31 379 c 0
 355.31 369 315.31 340 263.31 296 c 0
 229.31 267 198.31 241 181.31 235 c 1
 181.31 358 l 2
EndSplineSet
Substitution2: "'smcp' Lowercase to Small Capitals lookup 2-1" kgreenlandic.sc
EndChar

StartChar: Lslash
Encoding: 321 321 254
Width: 568
Flags: HW
HStem: -3 29<43.4578 114.306> 0 37<213.666 448.089> 633 29<43.4578 114.306 212.803 283.651>
VStem: 120.055 87<47.2685 626.257>
LayerCount: 2
Fore
SplineSet
383.669 447 m 5x30
 388.669 442 405.669 419 401.669 416 c 13
 50.6689 178 l 5
 44.6689 184 29.6689 204 33.6689 207 c 13
 383.669 447 l 5x30
EndSplineSet
Refer: 43 76 N 1 0 0 1 3.66844 0 2
EndChar

StartChar: lslash
Encoding: 322 322 255
Width: 257
Flags: HW
HStem: -3 29<17.5394 82.4256 170.846 235.733> 628 26<21.0343 78.9639> 674 20<144.136 167.636>
VStem: 88.1357 77.0003<32.4189 621.593>
LayerCount: 2
Fore
SplineSet
34.751 260 m 1
 28.751 266 15.751 284 19.751 288 c 9
 216.751 423 l 1
 221.751 418 236.751 400 232.751 396 c 9
 34.751 260 l 1
EndSplineSet
Refer: 75 108 N 1 0 0 1 1.75006 0 2
Substitution2: "'smcp' Lowercase to Small Capitals lookup 2-1" lslash.sc
EndChar

StartChar: Eng
Encoding: 330 330 262
Width: 738
Flags: HW
HStem: -227 60<391 492.01> -3 29<35.0029 103.782 201.656 269.234> 633 29<39.1875 111.794 477.074 550.881 637.826 711.993>
VStem: 128 56<41.3891 567.234> 566 55<172.79 620.656>
LayerCount: 2
Fore
SplineSet
621 85 m 2
 621 -78 553 -227 403 -227 c 0
 379 -227 351 -211 351 -211 c 1
 346 -205 339 -189 339 -174 c 0
 339 -143 369 -124 401 -124 c 0
 435 -124 449 -167 477 -167 c 0
 508 -167 556 -113 565 28 c 0
 184 568 l 1
 184 141 l 2
 184 105 184 75 191 48 c 0
 194 37 258 26 266 26 c 0
 271 26 270 3 268 -3 c 1
 228 -1 197 2 153 2 c 0
 107 2 84 -1 38 -3 c 1
 36 -1 35 6 35 12 c 0
 35 18 36 26 38 26 c 0
 50 26 113 37 118 50 c 0
 128 76 128 106 128 144 c 0
 128 275 128 406 128 537 c 0
 128 565 127 590 121 612 c 1
 116 624 54 633 42 633 c 0
 37 633 37 657 42 662 c 1
 81 661 98 660 144 660 c 0
 174 660 210 661 224 662 c 1
 269 579 452 327 563 172 c 1
 566 189 566 197 566 213 c 2
 566 524 l 2
 566 541 565 589 559 612 c 1
 554 624 492 635 480 635 c 0
 475 635 475 657 480 662 c 1
 526 660 552 656 598 656 c 0
 642 656 670 660 710 662 c 1
 711 659 712 652 712 647 c 0
 712 641 711 635 708 635 c 0
 700 635 632 623 629 612 c 0
 622 585 621 555 621 519 c 2
 621 85 l 2
EndSplineSet
EndChar

StartChar: eng
Encoding: 331 331 263
Width: 517
Flags: HW
HStem: -3 29<30.1875 88.2849 191.966 249.593> 371 67<240.8 334.51>
VStem: 101 77<36.4871 338.864> 371 77<-82.6719 331.999>
LayerCount: 2
Fore
SplineSet
448 251 m 2
 448 68 l 2
 448 32 444 -65 409 -120 c 0
 373 -177 312 -217 275 -231 c 1
 270 -228 265 -221 263 -216 c 0
 262 -214 261 -210 262 -209 c 0
 264 -203 371 -182 371 46 c 2
 371 227 l 2
 371 333 334 371 273 371 c 0
 228 371 181 323 178 316 c 1
 178 135 l 2
 178 102 179 73 186 46 c 0
 189 35 238 26 246 26 c 0
 251 26 251 3 249 -3 c 1
 209 -1 180 2 142 2 c 0
 101 2 74 -1 33 -3 c 1
 28 2 28 26 33 26 c 0
 45 26 91 35 94 46 c 0
 100 71 101 102 101 116 c 2
 101 305 l 2
 101 313 100 345 87 359 c 1
 65 386 29 376 29 382 c 0
 29 383 30 406 35 407 c 0
 80 414 136 422 173 433 c 0
 174 433 177 434 178 434 c 0
 184 434 184 418 183 413 c 0
 180 392 178 369 178 369 c 1
 178 367 183 367 183 367 c 1
 206 391 253 438 310 438 c 27
 401 438 448 365 448 251 c 2
EndSplineSet
Substitution2: "'smcp' Lowercase to Small Capitals lookup 2-1" eng.sc
EndChar

StartChar: OE
Encoding: 338 338 270
Width: 1017
Flags: HW
HStem: -7 34<314.584 496.256> 0 37<642.612 873.128> 312 37<636 813.451> 408 20G<853.5 860.5> 621 36<639.35 867.453> 630 37<276.272 474.187>
VStem: 49 99<216.52 447.375> 549 87<71.3698 310.528 349.429 571.53> 842 32<230.002 289.298 372.014 427.976> 912 32<523.07 569.412>
LayerCount: 2
Fore
SplineSet
593 657 m 0x3bc0
 687 657 806 664 915 664 c 1
 922 614 935 573 944 528 c 1
 941 525 933 523 926 523 c 0
 919 523 913 525 912 530 c 0
 890 610 849 621 796 621 c 2
 710 621 l 0
 698 621 644 620 641 610 c 0
 636 594 636 566 636 539 c 2
 636 355 l 2
 636 350 657 349 679 349 c 2
 732 349 l 2
 828 349 825 355 842 421 c 0
 843 426 850 428 857 428 c 0
 864 428 871 426 874 423 c 1
 874 234 l 1
 872 232 865 230 858 230 c 0
 851 230 844 233 842 238 c 0
 827 295 823 298 814 304 c 0
 803 311 746 312 708 312 c 0
 680 312 636 312 636 303 c 2
 636 116 l 2
 636 101 636 52 642 47 c 0
 655 37 671 37 713 37 c 2
 761 37 l 2
 799 37 858 46 887 61 c 0
 906 71 934 109 950 162 c 0
 951 166 957 168 964 168 c 0
 974 168 986 165 989 162 c 1
 970 108 942 40 935 -4 c 1
 826 -4 727 0 594 0 c 24x7bc0
 548 0 505 -1 476 -3 c 0
 461 -4 388 -7 363 -7 c 0
 187 -7 49 141 49 328 c 0
 49 515 199 667 368 667 c 0xb7c0
 393 667 528 656 593 657 c 0x3bc0
355 630 m 0xb7c0
 210 630 148 484 148 350 c 0
 148 195 234 27 389 27 c 0
 444 27 502 33 525 68 c 0
 549 104 549 138 549 192 c 2
 549 488 l 2
 549 523 545 558 514 586 c 0
 476 621 425 630 355 630 c 0xb7c0
EndSplineSet
EndChar

StartChar: oe
Encoding: 339 339 271
Width: 778
Flags: HW
HStem: -8 64<539.292 669.098> -7 33<213.699 320.27> 248 37<464 649.487> 406 33<189.214 296.88 526.136 606.574>
VStem: 41 86<120.834 313.837> 382 77<142.863 244.017> 650 85<285.847 368.285>
LayerCount: 2
Fore
SplineSet
568 402 m 0x3e
 484 402 462 285 464 285 c 0
 473 285 617 285 627 285 c 0
 639 285 649 290 650 308 c 0
 651 332 629 402 568 402 c 0x3e
243 406 m 0
 158 406 127 319 127 233 c 0
 127 136 176 26 266 26 c 0x7e
 351 26 382 113 382 198 c 0
 382 295 332 406 243 406 c 0
622 56 m 0xbe
 677 56 719 94 732 109 c 0
 733 109 740 103 740 95 c 0
 740 90 737 82 734 77 c 0
 716 48 666 -8 588 -8 c 0xbe
 516 -8 458 25 423 78 c 1
 385 26 325 -7 256 -7 c 0x7e
 124 -7 41 88 41 213 c 0
 41 342 133 439 254 439 c 0
 336 439 399 403 435 346 c 1
 475 403 533 438 585 438 c 0
 705 438 735 342 735 302 c 0
 735 273 730 256 711 255 c 0
 683 254 499 249 459 248 c 1
 459 101 550 56 622 56 c 0xbe
EndSplineSet
Substitution2: "'smcp' Lowercase to Small Capitals lookup 2-1" oe.sc
EndChar

StartChar: Tbar
Encoding: 358 358 290
Width: 626
Flags: HW
HStem: -3 29<190.404 261.252 359.748 430.596> 311 37<155.337 474.828> 624 37<91.4258 267 354 527.638>
VStem: 9 34<499.671 557.649> 267 87<32.7426 624> 576 34<499.671 557.649>
LayerCount: 2
Fore
SplineSet
473 311 m 1
 444 311 171 311 157 311 c 1
 153 311 152 339 158 348 c 1
 187 348 459 348 473 348 c 1
 477 348 477 320 473 311 c 1
EndSplineSet
Refer: 51 84 N 1 0 0 1 0 0 2
EndChar

StartChar: tbar
Encoding: 359 359 291
Width: 323
Flags: HW
HStem: -7 48<183.894 277.512> 268 40<22.1905 301.084> 374 48<161 301.919>
VStem: 84 77<63.875 374>
LayerCount: 2
Fore
SplineSet
131 526 m 1
 143 526 161 525 161 521 c 2
 161 422 l 1
 205 422 282 421 296 421 c 0
 301 421 304 418 304 412 c 0
 304 403 301 388 294 374 c 1
 161 374 l 1
 161 129 l 2
 161 76 191 41 235 41 c 0
 259 41 292 57 297 60 c 0
 302 63 312 41 311 40 c 0
 296 24 250 -7 201 -7 c 0
 139 -7 84 34 84 120 c 2
 84 374 l 1
 26 374 l 2
 23 374 21 387 21 395 c 0
 21 399 21 401 22 402 c 1
 38 409 63 429 85 455 c 0
 109 484 128 522 131 526 c 1
28 308 m 1
 57 308 282 308 296 308 c 0
 300 308 302 303 302 298 c 3
 302 292 300 277 296 268 c 1
 267 268 41 268 27 268 c 0
 23 268 22 276 22 281 c 3
 22 287 22 299 28 308 c 1
EndSplineSet
Substitution2: "'smcp' Lowercase to Small Capitals lookup 2-1" tbar.sc
EndChar

StartChar: Uogonek
Encoding: 370 370 302
Width: 709
VWidth: 0
Flags: HW
HStem: -224 59<360.505 433.133> 0 49<289.945 435.004> 633 29<27.0511 90.0787 208.221 268.997 458.074 531.881 618.826 692.993>
VStem: 105 87<165.404 621.28> 302 54<-161.236 -80.4004> 547 55<140.793 620.656>
LayerCount: 2
Fore
SplineSet
151 657 m 0
 195 657 227 660 267 662 c 1
 268 659 269 654 269 648 c 0
 269 641 268 633 265 633 c 0
 257 633 204 623 201 612 c 0
 194 585 192 555 192 519 c 2
 192 296 l 2
 192 148 256 49 376 49 c 0
 473 49 547 102 547 274 c 2
 547 524 l 2
 547 541 546 589 540 612 c 1
 535 624 473 635 461 635 c 0
 456 635 456 657 461 662 c 1
 507 660 533 656 579 656 c 0
 623 656 651 660 691 662 c 1
 692 659 693 652 693 647 c 0
 693 641 692 635 689 635 c 0
 681 635 613 623 610 612 c 0
 603 585 602 555 602 519 c 2
 602 276 l 2
 602 136 566 77 492 28 c 0
 432 -12 356 -64 356 -122 c 0
 356 -137 363 -165 397 -165 c 0
 448 -165 472 -127 478 -127 c 0
 479 -127 483 -132 483 -140 c 0
 483 -145 481 -153 478 -157 c 0
 456 -186 418 -224 373 -224 c 0
 317 -224 302 -174 302 -147 c 0
 302 -90 361 -22 405 3 c 1
 388 1 370 0 352 0 c 0
 201 0 105 79 105 296 c 2
 105 523 l 2
 105 541 104 589 98 612 c 1
 93 624 43 633 31 633 c 0
 29 633 27 640 27 646 c 0
 27 652 29 660 31 662 c 1
 77 660 105 657 151 657 c 0
EndSplineSet
EndChar

StartChar: uogonek
Encoding: 371 371 303
Width: 507
Flags: HW
HStem: -227 59<343.505 416.975> -7 61<194.445 278.477> 20 27<432.536 485.58> 414 20G<159.5 163 417.5 421>
VStem: 83 76<93.494 366.601> 285 54<-164.236 -87.7532> 341 76<82.3558 366.601>
LayerCount: 2
Fore
SplineSet
417 341 m 2xde
 417 141 l 2
 417 130 418 93 424 65 c 0
 429 46 480 48 483 47 c 0
 485 46 486 39 486 36 c 0
 486 34 483 20 478 20 c 0xbe
 471 20 465 19 458 18 c 0
 419 12 339 -73 339 -125 c 0
 339 -140 346 -168 380 -168 c 0
 431 -168 455 -130 461 -130 c 0
 462 -130 466 -135 466 -143 c 0
 466 -148 464 -157 461 -161 c 0
 439 -190 401 -227 356 -227 c 0
 300 -227 285 -177 285 -150 c 0
 285 -107 341 -28 385 2 c 1
 368 -3 349 -8 349 -8 c 0
 344 -8 341 1 341 8 c 2
 341 59 l 2
 341 64 339 64 339 64 c 1
 311 34 259 -7 208 -7 c 0
 102 -7 83 109 83 179 c 2
 83 305 l 2
 83 313 82 345 69 359 c 1
 47 386 11 376 11 382 c 0
 11 383 12 406 17 407 c 0
 62 414 118 422 155 433 c 0
 156 433 159 434 160 434 c 0
 166 434 166 418 165 413 c 0
 161 381 159 373 159 339 c 2
 159 204 l 2
 159 103 187 54 257 54 c 0
 301 54 341 98 341 118 c 2
 341 305 l 2
 341 313 340 345 327 359 c 1
 305 386 269 376 269 382 c 0
 269 383 270 406 275 407 c 0
 320 414 376 422 413 433 c 0
 414 433 417 434 418 434 c 0
 424 434 424 418 423 413 c 0
 419 381 417 375 417 341 c 2xde
EndSplineSet
Substitution2: "'smcp' Lowercase to Small Capitals lookup 2-1" uogonek.sc
EndChar

StartChar: uni0218
Encoding: 536 536 316
Width: 504
Flags: HW
HStem: -227 181<218 286> -10 41<170.824 325.72> 625 41<184.362 320.749>
VStem: 47 41<119.3 183.72> 67 80<454.853 571.509> 244 64<-171.345 -91> 374 87<89.7983 213.651>
LayerCount: 2
Fore
SplineSet
207 -101 m 0xe6
 207 -76 226 -46 286 -46 c 1
 298 -56 308 -83 308 -99 c 0
 308 -168 256 -208 226 -225 c 0
 225 -226 222 -227 218 -227 c 0
 205 -227 198 -223 198 -220 c 0
 198 -215 244 -185 244 -161 c 0
 244 -134 207 -131 207 -101 c 0xe6
67 490 m 0xee
 67 596 163 666 263 666 c 0
 325 666 348 653 414 638 c 1
 426 585 426 522 426 495 c 0
 426 488 419 488 416 488 c 0
 412 488 392 488 390 498 c 0
 384 548 335 625 256 625 c 0
 168 625 147 569 147 521 c 0xee
 147 441 221 408 287 366 c 0
 353 324 461 272 461 173 c 0
 461 63 359 -10 252 -10 c 0
 184 -10 121 9 72 19 c 1
 60 78 47 166 47 178 c 0
 47 183 56 184 63 184 c 0
 74 184 85 179 88 175 c 1xf6
 95 145 122 31 254 31 c 0
 316 31 374 68 374 146 c 0
 374 229 310 250 241 290 c 0
 164 335 67 389 67 490 c 0xee
EndSplineSet
EndChar

StartChar: uni0219
Encoding: 537 537 317
Width: 370
Flags: HW
HStem: -227 181<144 212> -11 36<124.44 230.209> 402 35<143.116 242.962>
VStem: 44 28<81.3744 117.998> 49 77<294.31 381.036> 170 64<-171.345 -91> 251 81<55.7917 143.901> 280 28<317.037 357.157>
LayerCount: 2
Fore
SplineSet
133 -101 m 0xe4
 133 -76 152 -46 212 -46 c 1
 224 -56 234 -83 234 -99 c 0
 234 -168 182 -208 152 -225 c 0
 151 -226 148 -227 144 -227 c 0
 131 -227 124 -223 124 -220 c 0
 124 -215 170 -185 170 -161 c 0
 170 -134 133 -131 133 -101 c 0xe4
194 437 m 0
 233 437 252 429 296 424 c 1
 303 393 307 358 308 322 c 0
 308 318 300 317 295 317 c 0
 290 317 281 319 280 324 c 0
 274 358 241 402 198 402 c 0
 150 402 126 379 126 343 c 0xed
 126 291 177 276 222 249 c 0
 267 222 332 190 332 127 c 0
 332 46 259 -11 178 -11 c 0
 132 -11 105 0 61 8 c 1
 53 29 44 86 44 112 c 1
 48 115 51 118 56 118 c 0
 63 118 71 119 72 112 c 0xf6
 79 76 125 25 178 25 c 0
 219 25 251 47 251 93 c 0
 251 154 180 175 122 209 c 0
 82 232 49 262 49 315 c 0xee
 49 389 120 437 194 437 c 0
EndSplineSet
Substitution2: "'smcp' Lowercase to Small Capitals lookup 2-1" uni0219.sc
EndChar

StartChar: uni021A
Encoding: 538 538 318
Width: 627
Flags: HW
HStem: -227 181<301.63 369.63> -3 29<191.404 262.252 360.748 431.596> 624 37<92.4258 268 355 528.638>
VStem: 10 34<499.671 557.649> 268 87<32.7426 624> 327.63 64<-171.345 -91> 577 34<499.671 557.649>
LayerCount: 2
Fore
SplineSet
290.63 -101 m 0xf6
 290.63 -76 309.63 -46 369.63 -46 c 1
 381.63 -56 391.63 -83 391.63 -99 c 0
 391.63 -168 339.63 -208 309.63 -225 c 0
 308.63 -226 305.63 -227 301.63 -227 c 0
 288.63 -227 281.63 -223 281.63 -220 c 0
 281.63 -215 327.63 -185 327.63 -161 c 0
 327.63 -134 290.63 -131 290.63 -101 c 0xf6
EndSplineSet
Refer: 51 84 N 1 0 0 1 1 0 2
EndChar

StartChar: uni021B
Encoding: 539 539 319
Width: 312
Flags: HW
HStem: -227 181<130 198> -7 54<174.456 250.292> 391 41<25.9629 81 158 290.375>
VStem: 81 77<62.1149 391 432 519.684> 156 64<-171.345 -91>
LayerCount: 2
Fore
SplineSet
119 -101 m 0xe8
 119 -76 138 -46 198 -46 c 1
 210 -56 220 -83 220 -99 c 0
 220 -168 168 -208 138 -225 c 0
 137 -226 134 -227 130 -227 c 0
 117 -227 110 -223 110 -220 c 0
 110 -215 156 -185 156 -161 c 0
 156 -134 119 -131 119 -101 c 0xe8
EndSplineSet
Refer: 83 116 N 1 0 0 1 1 0 2
Substitution2: "'smcp' Lowercase to Small Capitals lookup 2-1" uni021B.sc
EndChar

StartChar: uni0237
Encoding: 567 567 320
Width: 238
Flags: HW
HStem: 414 20G<167.914 171.414>
VStem: 91.4142 77<-83.5328 366.601>
LayerCount: 2
Fore
SplineSet
91.4141 305 m 2
 91.4141 313 90.4141 345 77.4141 359 c 1
 55.4141 386 19.4141 376 19.4141 382 c 0
 19.4141 383 20.4141 406 25.4141 407 c 0
 70.4141 414 126.414 422 163.414 433 c 0
 164.414 433 167.414 434 168.414 434 c 0
 174.414 434 174.414 418 173.414 413 c 0
 169.414 381 168.414 375 168.414 341 c 2
 168.414 68 l 2
 168.414 32 164.414 -65 129.414 -120 c 0
 93.4141 -177 32.4141 -217 -4.58594 -231 c 1
 -9.58594 -228 -14.5859 -221 -16.5859 -216 c 0
 -17.5859 -214 -18.5859 -210 -17.5859 -209 c 0
 -15.5859 -203 91.4141 -183 91.4141 45 c 2
 91.4141 305 l 2
EndSplineSet
EndChar

StartChar: uni02BB
Encoding: 699 699 321
Width: 495
Flags: HW
HStem: 476 181<529 597>
VStem: 507 64<521 600.267>
LayerCount: 2
Fore
SplineSet
608 531 m 0
 608 506 589 476 529 476 c 1
 517 486 507 513 507 529 c 0
 507 598 564 642 589 655 c 0
 590 656 593 657 597 657 c 0
 610 657 617 653 617 650 c 0
 617 645 571 615 571 591 c 0
 571 564 608 561 608 531 c 0
EndSplineSet
EndChar

StartChar: afii57929
Encoding: 700 700 322
Width: 143
Flags: HW
HStem: 461 213
VStem: 54 58<529.479 628.5>
LayerCount: 2
Fore
SplineSet
76 674 m 4
 83 674 92 671 98 668 c 5
 104 658 112 645 112 612 c 4
 112 562 82 505 42 461 c 5
 36 461 23 467 23 472 c 5
 41 495 54 523 54 553 c 4
 54 600 26 598 26 632 c 4
 26 650 45 674 76 674 c 4
EndSplineSet
EndChar

StartChar: uni02C0
Encoding: 704 704 323
Width: 485
Flags: HW
HStem: 592 21<519.809 557.772>
VStem: 496 48<465.19 510.333> 564 52<527.983 591.367>
LayerCount: 2
Fore
SplineSet
536 592 m 0
 523 592 518 580 512 569 c 0
 505.576 557.222 498 548 484 548 c 0
 472 548 461 557 461 574 c 0
 461 578 462 582 464 586 c 1
 475 599 502 613 548 613 c 0
 583 613 616 600 616 567 c 0
 616 536 580 519 569 512 c 0
 558.196 505.125 544 497 544 482 c 0
 544 476 547 471 550 466 c 1
 548 463 542 458 538 458 c 1
 529 459 496 469 496 489 c 0
 496 502 509 509 529 518 c 0
 543.419 524.488 564 536 564 562 c 0
 564 580 552 592 536 592 c 0
EndSplineSet
EndChar

StartChar: circumflex
Encoding: 710 710 324
Width: 484
Flags: HW
HStem: 517 154
VStem: 548 210
LayerCount: 2
Fore
SplineSet
653 671 m 0
 657 671 661 667 664 662 c 0
 698 607 719 581 758 530 c 1
 758 523 752 517 747 517 c 1
 709 548 653 593 653 593 c 25
 653 593 594 545 559 517 c 1
 554 517 548 523 548 530 c 1
 587 581 608 607 642 662 c 0
 645 667 649 671 653 671 c 0
EndSplineSet
EndChar

StartChar: caron
Encoding: 711 711 325
Width: 484
Flags: HW
HStem: 492 154
VStem: 548 210
LayerCount: 2
Fore
SplineSet
653 492 m 0
 649 492 645 496 642 501 c 0
 608 556 587 582 548 633 c 1
 548 640 554 646 559 646 c 1
 598 612 653 563 653 563 c 25
 653 563 708 612 747 646 c 1
 752 646 758 640 758 633 c 1
 719 582 698 556 664 501 c 0
 661 496 657 492 653 492 c 0
EndSplineSet
EndChar

StartChar: breve
Encoding: 728 728 326
Width: 483
Flags: HW
HStem: 520.86 47.1396<541.83 663.757>
VStem: 695.191 19.6592<616.158 634.257>
LayerCount: 2
Fore
SplineSet
695.191 639.97 m 1
 701.656 639.97 714.85 630.571 714.85 624.786 c 3
 714.85 623.133 714.32 620.854 713.925 619 c 0
 700.925 558 654.925 520.86 602.657 520.86 c 0
 549.925 520.86 504.925 558 491.925 619 c 0
 491.53 620.854 491 623.133 491 624.786 c 3
 491 630.571 504.194 639.97 510.659 639.97 c 1
 516.925 612 544.925 568 602.925 568 c 0
 660.925 568 688.925 612 695.191 639.97 c 1
EndSplineSet
EndChar

StartChar: dotaccent
Encoding: 729 729 327
Width: 495
Flags: HW
HStem: 495 100<557.438 640.562>
VStem: 549 100<503.438 586.562>
LayerCount: 2
Fore
SplineSet
549 545 m 0
 549 573 571 595 599 595 c 0
 627 595 649 573 649 545 c 0
 649 517 627 495 599 495 c 0
 571 495 549 517 549 545 c 0
EndSplineSet
EndChar

StartChar: ring
Encoding: 730 730 328
Width: 488
Flags: HW
HStem: 502 34<564.68 640.973> 647 34<563.263 641.425>
VStem: 515 33<552.832 630.822> 657 33<552.832 630.822>
LayerCount: 2
Fore
SplineSet
548 592 m 0
 548 561 573 536 603 536 c 0
 633 536 657 561 657 592 c 0
 657 623 633 647 603 647 c 0
 573 647 548 623 548 592 c 0
515 592 m 0
 515 641 555 681 603 681 c 0
 651 681 690 641 690 592 c 0
 690 543 651 502 603 502 c 0
 555 502 515 543 515 592 c 0
EndSplineSet
EndChar

StartChar: ogonek
Encoding: 731 731 329
Width: 487
Flags: HW
HStem: -218 59<547.505 620.133>
VStem: 489 54<-155.236 -80.9335>
LayerCount: 2
Fore
SplineSet
643 42 m 0
 660 42 684 37 672 25 c 0
 649 3 543 -52 543 -116 c 0
 543 -131 550 -159 584 -159 c 0
 635 -159 659 -121 665 -121 c 0
 666 -121 670 -126 670 -134 c 0
 670 -139 668 -147 665 -151 c 0
 643 -180 605 -218 560 -218 c 0
 504 -218 489 -168 489 -141 c 0
 489 -75 614 42 643 42 c 0
EndSplineSet
EndChar

StartChar: hungarumlaut
Encoding: 733 733 331
Width: 464
Flags: HW
HStem: 524 160<647 664>
VStem: 521 284
LayerCount: 2
Fore
SplineSet
769 684 m 4
 804 684 805 660 805 655 c 4
 805 623 664 524 654 524 c 4
 647 524 645 531 645 537 c 4
 645 543 710 636 742 676 c 4
 742.884 677.104 755 684 769 684 c 4
645 684 m 0
 680 684 681 660 681 655 c 0
 681 623 540 524 530 524 c 0
 523 524 521 531 521 537 c 0
 521 543 586 636 618 676 c 0
 618.884 677.104 631 684 645 684 c 0
EndSplineSet
EndChar

StartChar: gravecomb
Encoding: 768 768 332
Width: 246
Flags: HW
HStem: 524 160
VStem: 48 160
LayerCount: 2
Fore
SplineSet
84 684 m 0
 98 684 110.116 677.104 111 676 c 0
 143 636 208 543 208 537 c 0
 208 531 206 524 199 524 c 0
 189 524 48 623 48 655 c 0
 48 660 49 684 84 684 c 0
EndSplineSet
EndChar

StartChar: acutecomb
Encoding: 769 769 333
Width: 231
Flags: HW
HStem: 524 160
VStem: 47 160
LayerCount: 2
Fore
SplineSet
171 684 m 4
 206 684 207 660 207 655 c 4
 207 623 66 524 56 524 c 4
 49 524 47 531 47 537 c 4
 47 543 112 636 144 676 c 4
 144.884 677.104 157 684 171 684 c 4
EndSplineSet
EndChar

StartChar: uni0302
Encoding: 770 770 334
Width: 446
Flags: HW
HStem: 492 149
VStem: 82 199
LayerCount: 2
Fore
SplineSet
274 492 m 0
 263 492 208 534 181 558 c 1
 154 532 102 492 91 492 c 0
 85 492 82 510 82 515 c 1
 89 525 112 548 136 578 c 0
 149 594 162 612 173 631 c 0
 177 638 177 641 181 641 c 0
 185 641 188 637 191 631 c 0
 202 613 214 593 227 576 c 0
 253 543 280 518 281 515 c 1
 281 506 279 492 274 492 c 0
EndSplineSet
EndChar

StartChar: tildecomb
Encoding: 771 771 335
Width: 693
Flags: HW
HStem: 504 45<183.642 274.434> 551 45<69.7853 160.438>
VStem: 46 255
LayerCount: 2
Fore
SplineSet
120 596 m 0
 145 596 163 584 181 573 c 0
 200 561 225 549 239 549 c 0
 275 549 288 584 295 588 c 1
 301 588 301 583 301 579 c 0
 301 566 293 550 287 541 c 0
 270 518 249 504 225 504 c 0
 200 504 183 515 165 526 c 0
 146 538 124 551 106 551 c 0
 70 551 61 516 54 512 c 1
 48 512 46 519 46 523 c 0
 46 536 52 551 58 560 c 0
 75 583 96 596 120 596 c 0
EndSplineSet
EndChar

StartChar: uni0304
Encoding: 772 772 336
Width: 399
Flags: HW
HStem: 550 46<83.2097 300.904>
VStem: 82 225<550.013 596>
LayerCount: 2
Fore
SplineSet
82 559 m 0
 82 561 83 596 94 596 c 2
 302 596 l 2
 304 596 307 595 307 589 c 0
 307 584 306 575 301 557 c 0
 299 551 294 550 294 550 c 1
 88 550 l 1
 88 550 82 549 82 559 c 0
EndSplineSet
EndChar

StartChar: uni0305
Encoding: 773 773 337
Width: 560
Flags: HW
HStem: 739 63<-11.4404 578.903>
LayerCount: 2
Fore
SplineSet
-15 749 m 0
 -15 751 -12 802 -1 802 c 2
 581 802 l 2
 583 802 587 801 587 793 c 0
 587 775 580 750 579 746 c 0
 577 740 571 739 571 739 c 1
 -9 739 l 1
 -9 739 -15 739 -15 749 c 0
EndSplineSet
EndChar

StartChar: uni0306
Encoding: 774 774 338
Width: 255
Flags: HW
HStem: 520 46<67.068 182.932> 621 20G<31 35 215 219>
VStem: 16 22<621.095 638.805> 212 22<620.096 638.805>
LayerCount: 2
Fore
SplineSet
125 566 m 0
 167 566 202 595 212 638 c 0
 212 640 214 641 216 641 c 0
 222 641 234 633 234 628 c 0
 234 627 233 622 233 620 c 0
 224 567 179 520 125 520 c 0
 71 520 26 564 17 621 c 0
 17 623 16 627 16 628 c 0
 16 633 28 641 34 641 c 0
 36 641 38 640 38 638 c 0
 48 595 83 566 125 566 c 0
EndSplineSet
EndChar

StartChar: uni0307
Encoding: 775 775 339
Width: 277
Flags: HW
HStem: 495 100<83.4375 166.562>
VStem: 75 100<503.438 586.562>
LayerCount: 2
Fore
SplineSet
75 545 m 0
 75 573 97 595 125 595 c 0
 153 595 175 573 175 545 c 0
 175 517 153 495 125 495 c 0
 97 495 75 517 75 545 c 0
EndSplineSet
EndChar

StartChar: uni0308
Encoding: 776 776 340
Width: 337
Flags: HW
HStem: 471 92<38.6421 117.358 221.642 300.358>
VStem: 31 94<478.646 555.037> 214 94<478.646 555.037>
LayerCount: 2
Fore
SplineSet
262 563 m 0
 287 563 308 541 308 516 c 0
 308 491 286 471 261 471 c 0
 236 471 214 492 214 517 c 0
 214 542 237 563 262 563 c 0
79 563 m 0
 104 563 125 541 125 516 c 0
 125 491 103 471 78 471 c 0
 53 471 31 492 31 517 c 0
 31 542 54 563 79 563 c 0
EndSplineSet
EndChar

StartChar: hookabovecomb
Encoding: 777 777 341
Width: 182
Flags: HW
HStem: 626 29<69.258 120.225>
VStem: 19 46<570.661 622.444> 49 42<490.096 536.298> 125 41<563.096 624.757>
LayerCount: 2
Fore
SplineSet
112 655 m 0xd0
 147 655 166 634 166 604 c 0
 166 571 138 548 115 538 c 0
 97 530 91 525 91 513 c 0
 91 505 96 497 99 494 c 1
 99 489 88 480 83 480 c 1
 77 482 49 493 49 513 c 0xb0
 49 538 79 550 94 557 c 0
 114 566 125 577 125 594 c 0
 125 610 115 626 97 626 c 0
 77 626 65 617 65 590 c 0
 65 575 47 570 35 570 c 0
 28 570 19 574 19 579 c 0
 19 613 69 655 112 655 c 0xd0
EndSplineSet
EndChar

StartChar: uni030A
Encoding: 778 778 342
Width: 250
Flags: HW
HStem: 502 34<90.6802 166.973> 647 34<89.263 167.425>
VStem: 41 33<552.832 630.822> 183 33<552.832 630.822>
LayerCount: 2
Fore
SplineSet
74 592 m 0
 74 561 99 536 129 536 c 0
 159 536 183 561 183 592 c 0
 183 623 159 647 129 647 c 0
 99 647 74 623 74 592 c 0
41 592 m 0
 41 641 81 681 129 681 c 0
 177 681 216 641 216 592 c 0
 216 543 177 502 129 502 c 0
 81 502 41 543 41 592 c 0
EndSplineSet
EndChar

StartChar: uni030B
Encoding: 779 779 343
Width: 369
Flags: HW
HStem: 527 160<179 196>
VStem: 47 295
LayerCount: 2
Fore
SplineSet
301 687 m 0
 336 687 342 668 342 663 c 0
 342 624 196 527 186 527 c 0
 179 527 174 534 174 540 c 0
 174 546 231 637 267 678 c 0
 272 683 287 687 301 687 c 0
174 687 m 0
 209 687 215 668 215 663 c 0
 215 624 69 527 59 527 c 0
 52 527 47 534 47 540 c 0
 47 546 104 637 140 678 c 0
 145 683 160 687 174 687 c 0
EndSplineSet
EndChar

StartChar: uni030C
Encoding: 780 780 344
Width: 456
Flags: HW
HStem: 492 154
VStem: 82 210
LayerCount: 2
Fore
SplineSet
187 492 m 0
 183 492 179 496 176 501 c 0
 142 556 121 582 82 633 c 1
 82 640 88 646 93 646 c 1
 131 615 187 570 187 570 c 25
 187 570 246 618 281 646 c 1
 286 646 292 640 292 633 c 1
 253 582 232 556 198 501 c 0
 195 496 191 492 187 492 c 0
EndSplineSet
EndChar

StartChar: uni0312
Encoding: 786 786 345
Width: 225
Flags: HW
HStem: 476 181<55 123>
VStem: 33 64<521 600.267>
LayerCount: 2
Fore
SplineSet
134 531 m 0
 134 506 115 476 55 476 c 1
 43 486 33 513 33 529 c 0
 33 598 90 642 115 655 c 0
 116 656 119 657 123 657 c 0
 136 657 143 653 143 650 c 0
 143 645 97 615 97 591 c 0
 97 564 134 561 134 531 c 0
EndSplineSet
EndChar

StartChar: uni0315
Encoding: 789 789 346
Width: 165
Flags: HW
HStem: 465 187<52 119>
VStem: 73 61<527.257 624.398>
LayerCount: 2
Fore
SplineSet
51 601 m 0
 51 632 77 652 119 652 c 1
 129 640 134 618 134 590 c 0
 134 545 83 480 59 466 c 0
 58 465 54 465 52 465 c 0
 47 465 38 473 38 478 c 0
 38 481 73 503 73 548 c 0
 73 562 51 575 51 601 c 0
EndSplineSet
EndChar

StartChar: uni0323
Encoding: 803 803 347
Width: 277
Flags: HW
HStem: -132 100<105.438 188.562>
VStem: 97 100<-123.562 -40.4375>
LayerCount: 2
Fore
SplineSet
97 -82 m 0
 97 -54 119 -32 147 -32 c 0
 175 -32 197 -54 197 -82 c 0
 197 -110 175 -132 147 -132 c 0
 119 -132 97 -110 97 -82 c 0
EndSplineSet
EndChar

StartChar: uni0326
Encoding: 806 806 348
Width: 222
Flags: HW
HStem: -229 183
VStem: 78 63<-164.919 -88.5>
LayerCount: 2
Fore
SplineSet
99 -46 m 4
 111 -46 123 -50 131 -55 c 5
 137 -64 141 -81 141 -96 c 4
 141 -155 93 -207 42 -229 c 5
 34 -227 26 -218 26 -214 c 5
 40 -207 78 -178 78 -148 c 4
 78 -127 43 -131 43 -90 c 4
 43 -81 54 -46 99 -46 c 4
EndSplineSet
EndChar

StartChar: uni0327
Encoding: 807 807 349
Width: 474
Flags: HW
HStem: -152 24<183.049 247.387> -61 34<225 252.414>
VStem: 257 37<-122.34 -64.0801>
LayerCount: 2
Fore
SplineSet
225 -27 m 1
 250 -27 l 2
 276 -27 294 -50 294 -76 c 0
 294 -123 252 -152 200 -152 c 0
 188 -152 172 -147 166 -143 c 1
 165 -138 163 -135 163 -129 c 0
 163 -122 171 -115 177 -115 c 0
 189 -115 198 -128 214 -128 c 0
 242 -128 257 -112 257 -95 c 0
 257 -71 239 -61 226 -61 c 0
 215 -61 210 -64 200 -68 c 0
 198 -68 188 -59 190 -55 c 0
 199 -40 214 -18 222 -4 c 1
 243 -4 l 1
 225 -27 l 1
EndSplineSet
EndChar

StartChar: uni0328
Encoding: 808 808 350
Width: 219
Flags: HW
HStem: -218 59<73.5049 146.133>
VStem: 15 54<-155.236 -80.9335>
LayerCount: 2
Fore
SplineSet
169 42 m 0
 186 42 210 37 198 25 c 0
 175 3 69 -52 69 -116 c 0
 69 -131 76 -159 110 -159 c 0
 161 -159 185 -121 191 -121 c 0
 192 -121 196 -126 196 -134 c 0
 196 -139 194 -147 191 -151 c 0
 169 -180 131 -218 86 -218 c 0
 30 -218 15 -168 15 -141 c 0
 15 -75 140 42 169 42 c 0
EndSplineSet
EndChar

StartChar: alpha
Encoding: 945 945 351
Width: 519
Flags: HW
HStem: -9 36<114.664 191.941> -3 75<366.063 454.184> 369 68<192.425 271.948>
VStem: 41 59<57.3161 225.373> 312 25<270 311.992> 401 56<377.756 403.439>
LayerCount: 2
Fore
SplineSet
346 133 m 1xbc
 356 78 376 72 401 72 c 0
 435 72 474 106 479 117 c 1
 487 114 492 99 492 94 c 0
 492 86 463 -3 413 -3 c 0x7c
 371 -3 329 54 324 103 c 1
 278 37 238 -9 175 -9 c 0
 96 -9 41 48 41 163 c 0
 41 235 93 437 221 437 c 0
 271 437 337 363 337 270 c 1
 364 336 390 407 401 436 c 1
 418 436 457 410 457 382 c 0
 457 355 436 302 419 266 c 0
 395 216 346 133 346 133 c 1xbc
239 369 m 0
 173 369 100 219 100 115 c 0
 100 53 117 27 147 27 c 0xbc
 217 27 312 186 312 219 c 1
 312 298 293 369 239 369 c 0
EndSplineSet
EndChar

StartChar: beta
Encoding: 946 946 352
Width: 484
Flags: HW
HStem: -228 21G<129 137> -6 66<224.488 341.96> 302 66<200.281 245.883> 638 55<188.82 306.257>
VStem: 72 63<-209.944 230.458> 72 51<155.054 544.913> 333 42<463.488 608.682> 385 59<108.842 276.48>
LayerCount: 2
Fore
SplineSet
385 212 m 0xf7
 385 276 346 337 303 337 c 0
 299 337 294 336 290 334 c 1
 264 311 241 304 228 302 c 1
 222 305 210 312 202 322 c 24
 195 331 191 338 191 350 c 0
 191 357 197 363 207 368 c 0
 289 406 333 470 333 550 c 0
 333 600 299 638 251 638 c 0
 153 638 123 520 123 376 c 4xf7
 123 330 134 59 135 0 c 4
 136 -70 149 -190 157 -211 c 5
 150 -221 142 -228 132 -228 c 4
 126 -228 72 -207 72 -192 c 6xfb
 72 401 l 6
 72 602 135 693 237 693 c 0
 340 693 375 592 375 510 c 0
 375 461 350 405 321 368 c 1
 373 348 444 288 444 184 c 0
 444 58 385 -6 294 -6 c 0
 226 -6 191 45 176 69 c 1
 174 76 174 75 174 83 c 0
 174 87 177 94 179 94 c 1
 186 88 219 60 271 60 c 0
 331 60 385 90 385 212 c 0xf7
EndSplineSet
EndChar

StartChar: gamma
Encoding: 947 947 353
Width: 452
Flags: HW
HStem: -226 21G<195.5 209.5> 362 71<38.1592 137.543>
VStem: 152 81<-204.556 -71.7344> 212 26<83 185.877> 363 51<310.92 416.603>
LayerCount: 2
Fore
SplineSet
233 -197 m 0xe8
 230 -215 216 -226 203 -226 c 0
 188 -226 152 -183 152 -164 c 0xe8
 152 -146 183 -34 212 40 c 1
 212 44 210 103 207 132 c 0
 185.417 340.632 122 362 78 362 c 0
 52 362 20 341 13 332 c 1
 10 332 6 337 3 342 c 0
 1 346 0 350 0 353 c 1
 13 397 53 433 93 433 c 0
 182 432 221 292 235 155 c 0
 236.325 142.029 238 88 238 83 c 1xd8
 274 156 306.485 212.457 334 290 c 0
 356 352 363 408 363 422 c 0
 363 428 372 436 374 436 c 0
 388 436 414 373 414 355 c 0
 414 333 407 292 379 226 c 0
 343 142 270 20 248 -16 c 1
 245 -34 242 -138 233 -197 c 0xe8
EndSplineSet
EndChar

StartChar: delta
Encoding: 948 948 354
Width: 443
Flags: HW
HStem: -6 53<136.758 271.829>
VStem: 41 52<102.192 259.942> 99 65<570.973 659> 342 62<122.303 274.752>
LayerCount: 2
Fore
SplineSet
99 650 m 0
 99 668 125 696 170 690 c 0
 239 681 348 573 368 541 c 0
 378 525 385 504 385 493 c 0
 385 489 377 479 375 482 c 1
 350 518 237 624 181 624 c 0
 168 624 164 617 164 607 c 0
 164 565 189 524 261 438 c 0
 317 372 404 289 404 178 c 0
 404 82 335 -6 222 -6 c 0
 87 -6 41 126 41 200 c 0
 41 340 114 392 175 422 c 1
 196 420 224 419 243 408 c 1
 174 492 99 569 99 650 c 0
264 376 m 1
 187 376 93 277 93 169 c 0
 93 99 132 47 202 47 c 0
 267 47 342 103 342 217 c 0
 342 284 303 335 264 376 c 1
EndSplineSet
EndChar

StartChar: epsilon
Encoding: 949 949 355
Width: 373
Flags: HW
HStem: -5 57<100.04 272.738> 201 59<154.084 253.854> 378 57<130.223 282.957>
VStem: 43 35<74.3467 147.317> 52 44<252.413 345.648>
LayerCount: 2
Fore
SplineSet
78 113 m 0xf0
 78 67 124 52 162 52 c 0
 236 52 301 83 342 110 c 1
 346 110 349 106 349 102 c 0
 349 95 347 84 345 77 c 1
 328 42 276 -5 191 -5 c 0
 104 -5 43 42 43 112 c 0xf0
 43 162 82 200 118 219 c 1
 81 229 52 273 52 308 c 4
 52 384 116 435 189 435 c 4
 252 435 299 407 315 390 c 4
 317.472 387.374 318 383 318 380 c 4
 318 374 315 369 313 367 c 5
 297 373 268 378 236 378 c 4
 151 378 96 354 96 292 c 4xe8
 96 257 135 239 153 238 c 1
 176 247 207 260 234 260 c 0
 240 260 251 258 254 256 c 1
 266 246 278 231 278 215 c 0
 278 212 279 201 270 201 c 0
 193 201 78 167 78 113 c 0xf0
EndSplineSet
EndChar

StartChar: zeta
Encoding: 950 950 356
Width: 382
VWidth: 295
Flags: HW
HStem: -3 71<99.2025 299.06> 12 74<162.559 329.036> 673 20G<343 363.5> 674 10<172.74 179.488>
VStem: 47 33<95.8492 246.304> 78 60<571.813 651.768> 330 47<-45.845 42>
LayerCount: 2
Fore
SplineSet
301 -104 m 5x4a
 297 -104 280 -103 280 -93 c 5
 298 -83 330 -53 330 -14 c 4
 330 6 312 12 293 12 c 7x4a
 275.393 12 253.226 7.97754 229 4.09863 c 4
 206.446 0.486328 182.107 -3 158 -3 c 3
 72 -3 47 52 47 132 c 1x8a
 47 254 110 396 193 536 c 1
 193 536 78 544 78 606 c 0
 78 662 156 681 166 684 c 1
 176 684 180 679 180 674 c 1
 161 664 138 629 138 608 c 0x96
 138 567 188 559 209 559 c 1
 260 629 329 693 357 693 c 0
 370 693 387 656 387 645 c 0
 387 630 385 622 366 608 c 0
 350 596 307 566 281 546 c 0
 213 492 80 299 80 155 c 0
 80 74 131 68 165 68 c 3xaa
 186.02 68 210.72 72.7314 236 77.3428 c 4
 260.029 81.7256 284.583 86 307 86 c 7
 357 86 377 56 377 28 c 4
 377 -34 329 -86 301 -104 c 5x4a
EndSplineSet
EndChar

StartChar: eta
Encoding: 951 951 357
Width: 497
Flags: HW
HStem: -227 21G<419.5 428.5> -6 21G<162 173> 362 71<51.1115 131.056 280.842 372.014>
VStem: 111 80<9.07266 167.851> 151 40<160.187 240.245> 388 38<81.9445 344.041>
LayerCount: 2
Fore
SplineSet
361 -182 m 0xec
 365 -110 388 87 388 266 c 0
 388 324 371 363 336 363 c 0
 272 363 217 272 191 190 c 1xec
 191 166 191 159 191 136 c 0
 191 123 190 52 191 14 c 1
 186 6 179 -6 167 -6 c 0
 157 -6 111 18 111 31 c 0xf4
 111 49 118 99 137 188 c 0
 138 194 151 247 151 247 c 1
 151 328 129 362 83 362 c 0
 57 362 33 341 26 332 c 1
 23 332 19 337 16 342 c 0
 14 346 13 350 13 353 c 0
 26 397 66 433 106 433 c 0
 154 432 167 365 176 301 c 1
 206 371 262 440 326 440 c 0
 384 440 419 379 426 290 c 0
 435 171 427 -130 449 -209 c 1
 444 -217 433 -227 424 -227 c 0
 415 -227 360 -198 361 -182 c 0xec
EndSplineSet
EndChar

StartChar: theta
Encoding: 952 952 358
Width: 468
VWidth: 390
Flags: HW
HStem: -5 39<178.265 262.696> 329 40<124.965 350.905> 656 39<211.941 294.703>
VStem: 47 74<176.48 325.203 371.207 491.204> 352 71<185.215 325.203 373.063 511.521>
LayerCount: 2
Fore
SplineSet
234 369 m 0
 268 369 325 372 353 375 c 1
 350 491 335 656 253 656 c 0
 186 656 136 519 124 373 c 1
 144 370 202 369 234 369 c 0
237 695 m 0
 345 695 423 531 423 354 c 0
 423 161 345 -5 237 -5 c 0
 129 -5 47 147 47 340 c 0
 47 533 129 695 237 695 c 0
352 323 m 1
 329 326 283 329 234 329 c 0
 187 329 145 327 121 322 c 1
 121 320 121 319 121 317 c 0
 121 201 138 34 219 34 c 0
 292 34 344 162 352 323 c 1
EndSplineSet
EndChar

StartChar: iota
Encoding: 953 953 359
Width: 227
Flags: HW
HStem: -3 60<107.5 182.536> 413 20G<87 95>
VStem: 67 78<146.829 416.534> 67 59<62.6073 332.588>
LayerCount: 2
Fore
SplineSet
126 -3 m 3xd0
 89 -3 67 28 67 89 c 0xd0
 67 112 67 288 67 416 c 17
 74 426 82 433 92 433 c 0
 98 433 145 407 145 392 c 1xe0
 137 280 126 206.02 126 106 c 0
 126 59 162 57 174 57 c 0
 186 57 195 58 202 62 c 1
 207 58 209 53 209 48 c 1
 205 38 169 -3 126 -3 c 3xd0
EndSplineSet
EndChar

